<?xml version="1.0" standalone="no"?>
<!DOCTYPE svg PUBLIC "-//W3C//DTD SVG 1.1//EN" "http://www.w3.org/Graphics/SVG/1.1/DTD/svg11.dtd" >
<svg>
<metadata>
Created by FontForge 20090914 at Thu May  5 23:53:32 2016
 By www-data
Copyright (c) 1989 Adobe Systems Incorporated.  All Rights Reserved.Eurostile is a registered trademark of Nebiolo S. A.
</metadata>
<defs>
<font id="Sportscenter" horiz-adv-x="272" >
  <font-face 
    font-family="Sportscenter"
    font-weight="400"
    font-stretch="normal"
    units-per-em="1000"
    panose-1="2 0 5 7 6 0 0 2 0 4"
    ascent="800"
    descent="-200"
    x-height="510"
    cap-height="724"
    bbox="-221 -279 1326 1042"
    underline-thickness="50"
    underline-position="-75"
    unicode-range="U+001D-U+FB02"
  />
<missing-glyph horiz-adv-x="482" 
 />
    <glyph glyph-name=".notdef" horiz-adv-x="482" 
 />
    <glyph glyph-name=".null" horiz-adv-x="0" 
 />
    <glyph glyph-name=".null" horiz-adv-x="0" 
 />
    <glyph glyph-name="space" unicode=" " horiz-adv-x="482" 
 />
    <glyph glyph-name="space" unicode="&#xa0;" horiz-adv-x="482" 
 />
    <glyph glyph-name="exclam" unicode="!" horiz-adv-x="482" 
d="M185 0h112v124h-112v-124zM201 210h80v514h-80v-514z" />
    <glyph glyph-name="quotedbl" unicode="&#x22;" horiz-adv-x="334" 
d="M202 482h98v242h-98v-242zM34 482h98v242h-98v-242z" />
    <glyph glyph-name="numbersign" unicode="#" horiz-adv-x="964" 
d="M550 292h-154l19 140h154zM319 292h-102v-70h92l-30 -222h78l30 222h153l-30 -222h78l30 222h101v70h-92l19 140h101v70h-92l30 222h-77l-30 -222h-154l30 222h-77l-30 -222h-101v-70h92z" />
    <glyph glyph-name="dollar" unicode="$" horiz-adv-x="964" 
d="M519 72l-0.000976562 248.002h127c30.667 0 56.334 -1.66699 77.001 -5s37.167 -9.33301 49.5 -18s21 -20.334 26 -35.001s7.5 -33.334 7.5 -56.001c0 -26 -3 -47.667 -9 -65s-16.167 -31 -30.5 -41s-33.333 -17.167 -57 -21.5s-53.5 -6.5 -89.5 -6.5h-101z
M438.999 408.002l-98.999 0.000976562c-38.667 0 -69.834 2 -93.501 6s-42 10.667 -55 20s-21.833 21.666 -26.5 36.999s-7 34.666 -7 57.999c0 28.667 4.5 51.334 13.5 68.001s23.667 29 44 37s47 13 80 15s73.167 3 120.5 3h23v-244zM439 72.0029l-117.999 0.00195312
c-30.667 0 -56.334 2.16699 -77.001 6.5s-37.334 11 -50.001 20s-21.667 20.167 -27 33.5s-8 29 -8 47v49h-92v-53c0 -39.333 7.33301 -71 22 -95s34.334 -42.5 59.001 -55.5s53.167 -21.667 85.5 -26s66.5 -6.5 102.5 -6.5h103v-50h80v50h88c36 0 71.5 1.66699 106.5 5
s66.167 11.333 93.5 24s49.333 31.667 66 57s25 60.333 25 105v47c0 61.333 -21.333 106.333 -64 135s-111.667 43 -207 43h-108v244c63.333 0 112.833 -1.5 148.5 -4.5s62.5 -9.33301 80.5 -19s29.167 -23.5 33.5 -41.5s6.5 -41.667 6.5 -71h92v25c0 32 -4.5 60 -13.5 84
s-24.833 44 -47.5 60s-53.667 27.833 -93 35.5s-89.333 11.5 -150 11.5h-57v47h-80v-47h-73c-50.667 0 -94.667 -2.83301 -132 -8.5s-68.5 -16 -93.5 -31s-43.667 -35.5 -56 -61.5s-18.5 -59.667 -18.5 -101c0 -46.667 6.33301 -83.834 19 -111.501
s33.5 -48.834 62.5 -63.501s67.333 -24.167 115 -28.5s106.5 -6.5 176.5 -6.5v-248z" />
    <glyph glyph-name="percent" unicode="%" horiz-adv-x="1333" 
d="M484 374c0 -11.333 -2 -20.333 -6 -27s-9.16699 -12 -15.5 -16s-13.5 -6.66699 -21.5 -8s-16.333 -2 -25 -2h-243c-8.66699 0 -17 0.666992 -25 2s-15.167 4 -21.5 8s-11.5 9.33301 -15.5 16s-6 15.667 -6 27v234c0 11.333 2 20.5 6 27.5s9.16699 12.5 15.5 16.5
s13.5 6.66699 21.5 8s16.333 2 25 2h243c8.66699 0 17 -0.666992 25 -2s15.167 -4 21.5 -8s11.5 -9.5 15.5 -16.5s6 -16.167 6 -27.5v-234zM507 -8h67l247 740h-66zM1228 115c0 -11.333 -2 -20.333 -6 -27s-9.16699 -12 -15.5 -16s-13.5 -6.66699 -21.5 -8
s-16.333 -2 -25 -2h-243c-8.66699 0 -17 0.666992 -25 2s-15.167 4 -21.5 8s-11.5 9.33301 -15.5 16s-6 15.667 -6 27v234c0 11.333 2 20.5 6 27.5s9.16699 12.5 15.5 16.5s13.5 6.66699 21.5 8s16.333 2 25 2h243c8.66699 0 17 -0.666992 25 -2s15.167 -4 21.5 -8
s11.5 -9.5 15.5 -16.5s6 -16.167 6 -27.5v-234zM25 371c0 -28 4 -50 12 -66s18.5 -28 31.5 -36s27.333 -13 43 -15s31.167 -3 46.5 -3h273c15.333 0 30.833 1 46.5 3s30 7 43 15s23.5 20 31.5 36s12 38 12 66v241c0 28 -4 50 -12 66s-18.5 28 -31.5 36s-27.333 13 -43 15
s-31.167 3 -46.5 3h-273c-15.333 0 -30.833 -1 -46.5 -3s-30 -7 -43 -15s-23.5 -20 -31.5 -36s-12 -38 -12 -66v-241zM769 112c0 -28 4 -50 12 -66s18.5 -28 31.5 -36s27.333 -13 43 -15s31.167 -3 46.5 -3h273c15.333 0 30.833 1 46.5 3s30 7 43 15s23.5 20 31.5 36
s12 38 12 66v241c0 28 -4 50 -12 66s-18.5 28 -31.5 36s-27.333 13 -43 15s-31.167 3 -46.5 3h-273c-15.333 0 -30.833 -1 -46.5 -3s-30 -7 -43 -15s-23.5 -20 -31.5 -36s-12 -38 -12 -66v-241z" />
    <glyph glyph-name="ampersand" unicode="&#x26;" horiz-adv-x="1087" 
d="M1053 0l35.998 73.999l-146 77c1.33301 9.33301 2.5 18.333 3.5 27s1.5 17 1.5 25v153h-92v-162l-558 295c-8.66699 4.66699 -15.334 9.5 -20.001 14.5s-8.16699 11 -10.5 18s-3.66602 14.833 -3.99902 23.5s-0.5 19 -0.5 31s1.16699 22.667 3.5 32s7 17.166 14 23.499
s16.5 11.333 28.5 15s27.667 5.5 47 5.5h325c26.667 0 49.167 -6.33301 67.5 -19s27.5 -35.667 27.5 -69v-54h92v60c0 24.667 -3.16699 47 -9.5 67s-17 37 -32 51s-34.5 24.833 -58.5 32.5s-53.333 11.5 -88 11.5h-353c-24 0 -45.833 -2.66699 -65.5 -8s-36.667 -14 -51 -26
s-25.5 -27.167 -33.5 -45.5s-12 -40.5 -12 -66.5s1 -46.667 3 -62s5.83301 -28.166 11.5 -38.499s13.667 -19.5 24 -27.5s23.833 -17.333 40.5 -28v-2c-36 0 -65.333 -4 -88 -12s-40.667 -20.333 -54 -37s-22.5 -37.334 -27.5 -62.001s-7.5 -53.667 -7.5 -87
c0 -41.333 3.83301 -77 11.5 -107s21.334 -54.667 41.001 -74s46.5 -33.666 80.5 -42.999s77 -14 129 -14h350c24.667 0 48.834 0.833008 72.501 2.5s46 5.33398 67 11.001s40 13.5 57 23.5s31.167 23.667 42.5 41zM827.998 112.999
c-5.33301 -15.333 -21.833 -26.001 -49.5 -32.001s-65.167 -9 -112.5 -9h-335c-36 0 -64.833 3.16699 -86.5 9.5s-38.5 15.333 -50.5 27s-19.833 25.834 -23.5 42.501s-5.5 35.334 -5.5 56.001v49c0 28.667 5 51.5 15 68.5s21.667 29.667 35 38s26.5 13.666 39.5 15.999
s22.833 3.5 29.5 3.5h30z" />
    <glyph glyph-name="quotesingle" unicode="'" 
d="M87 482h98v242h-98v-242z" />
    <glyph glyph-name="parenleft" unicode="(" horiz-adv-x="370" 
d="M61 216c0 -50 5.49902 -89.832 16.499 -119.499s25.5 -52.334 43.5 -68.001s38.833 -25.667 62.5 -30s48.167 -6.5 73.5 -6.5h66v80h-62c-42 0 -70.5 8.83301 -85.5 26.5s-22.5 47.167 -22.5 88.5v310c0 34 2.16699 61.167 6.5 81.5s10.833 36 19.5 47
s19.834 18.167 33.501 21.5s29.834 5 48.501 5h62v80h-66c-44 0 -78.833 -6 -104.5 -18s-45.334 -29.833 -59.001 -53.5s-22.5 -52.667 -26.5 -87s-6 -73.5 -6 -117.5v-240z" />
    <glyph glyph-name="parenright" unicode=")" horiz-adv-x="370" 
d="M47 -8l66.001 -0.000976562c44 0 78.833 6 104.5 18s45.334 29.833 59.001 53.5s22.5 52.667 26.5 87s6 73.5 6 117.5v240c0 50 -5.5 89.833 -16.5 119.5s-25.5 52.334 -43.5 68.001s-38.833 25.667 -62.5 30s-48.167 6.5 -73.5 6.5h-66v-80h62
c42 0 70.5 -8.83301 85.5 -26.5s22.5 -47.167 22.5 -88.5v-310c0 -34 -2.16699 -61.167 -6.5 -81.5s-10.833 -36 -19.5 -47s-19.834 -18.167 -33.501 -21.5s-29.834 -5 -48.501 -5h-62v-80z" />
    <glyph glyph-name="asterisk" unicode="*" horiz-adv-x="592" 
d="M352 491l-56 -32l-55 32v64l55 32l56 -32v-64zM82 491h159l-80 -137l56 -32l79 137l79 -137l56 32l-79 137h158v64h-158l79 137l-56 32l-79 -137l-79 137l-56 -32l80 -137h-159v-64z" />
    <glyph glyph-name="plus" unicode="+" horiz-adv-x="600" 
d="M265 0h70v218h218v70h-218v218h-70v-218h-218v-70h218v-218z" />
    <glyph glyph-name="comma" unicode="," horiz-adv-x="482" 
d="M185 0l38.001 0.000976562c0 -12 -0.666992 -21.667 -2 -29s-3.83301 -13 -7.5 -17s-8.66699 -6.66699 -15 -8s-14.5 -2 -24.5 -2v-58c20.667 0 38.667 1.66699 54 5s28.166 9.33301 38.499 18s18 20.167 23 34.5s7.5 32.166 7.5 53.499v127h-112v-124z" />
    <glyph glyph-name="hyphen" unicode="-" horiz-adv-x="444" 
d="M82 225h280v80h-280v-80z" />
    <glyph glyph-name="hyphen" unicode="&#xad;" horiz-adv-x="444" 
d="M82 225h280v80h-280v-80z" />
    <glyph glyph-name="period" unicode="." horiz-adv-x="482" 
d="M185 0h112v124h-112v-124z" />
    <glyph glyph-name="slash" unicode="/" horiz-adv-x="370" 
d="M-45 -8h84l376 740h-85z" />
    <glyph glyph-name="zero" unicode="0" horiz-adv-x="964" 
d="M61 234c0 -39.333 3.83301 -74 11.5 -104s20.834 -55.333 39.501 -76s44 -36.167 76 -46.5s72.667 -15.5 122 -15.5h344c48.667 0 89.167 5.16699 121.5 15.5s57.833 25.833 76.5 46.5s31.834 46 39.501 76s11.5 64.667 11.5 104v256c0 39.333 -3.83301 74 -11.5 104
s-20.834 55.333 -39.501 76s-44.167 36.167 -76.5 46.5s-72.833 15.5 -121.5 15.5h-344c-49.333 0 -90 -5.16699 -122 -15.5s-57.333 -25.833 -76 -46.5s-31.834 -46 -39.501 -76s-11.5 -64.667 -11.5 -104v-256zM811 280c0 -47.333 -2.5 -84.666 -7.5 -111.999
s-15.167 -48.166 -30.5 -62.499s-37.5 -23.5 -66.5 -27.5s-67.5 -6 -115.5 -6h-218c-48 0 -86.5 2 -115.5 6s-51.167 13.167 -66.5 27.5s-25.5 35.166 -30.5 62.499s-7.5 64.666 -7.5 111.999v164c0 46.667 2.5 83.834 7.5 111.501s15.167 48.667 30.5 63
s37.5 23.5 66.5 27.5s67.5 6 115.5 6h218c48 0 86.5 -2 115.5 -6s51.167 -13.167 66.5 -27.5s25.5 -35.333 30.5 -63s7.5 -64.834 7.5 -111.501v-164z" />
    <glyph glyph-name="one" unicode="1" horiz-adv-x="964" 
d="M510 0h92v724h-115l-298 -236l50 -63l271 215v-640z" />
    <glyph glyph-name="two" unicode="2" horiz-adv-x="964" 
d="M73 0l817.999 -0.00292969v80h-726v64c0 24 2.5 43 7.5 57s16.167 25 33.5 33s43 14 77 18s79.667 8 137 12l150 10c59.333 4 109 8.66699 149 14s72 15.333 96 30s41 35.834 51 63.501s15 65.5 15 113.5c0 36 -3 68.5 -9 97.5s-17.833 53.833 -35.5 74.5
s-42.5 36.667 -74.5 48s-74 17 -126 17h-306c-85.333 0 -149 -15.5 -191 -46.5s-63 -84.5 -63 -160.5v-68h92v40c0 36 3.66699 64.333 11 85s18.166 36.167 32.499 46.5s31.666 16.833 51.999 19.5s43.5 4 69.5 4h304c32.667 0 58.834 -3 78.501 -9s35 -15.167 46 -27.5
s18.333 -28.166 22 -47.499s5.5 -42 5.5 -68c0 -23.333 -1.33301 -43 -4 -59s-9.16699 -29.5 -19.5 -40.5s-25.666 -19.5 -45.999 -25.5s-48.166 -10.333 -83.499 -13l-322 -23c-41.333 -3.33301 -77 -8.66602 -107 -15.999s-55 -18.833 -75 -34.5
s-34.833 -36.5 -44.5 -62.5s-14.5 -58.667 -14.5 -98v-128z" />
    <glyph glyph-name="three" unicode="3" horiz-adv-x="964" 
d="M388 329l302 -0.00292969c21.333 0 39.333 -1 54 -3s26.667 -7.16699 36 -15.5s16.166 -21 20.499 -38s6.5 -40.167 6.5 -69.5c0 -32 -2.16699 -56.833 -6.5 -74.5s-13.833 -30.667 -28.5 -39s-36 -13.333 -64 -15s-65.333 -2.5 -112 -2.5h-279
c-35.333 0 -63.333 2.66699 -84 8s-36.167 14 -46.5 26s-16.833 27.833 -19.5 47.5s-4 43.5 -4 71.5h-92v-46c0 -34 4.16699 -62.833 12.5 -86.5s22.5 -43 42.5 -58s46.667 -25.833 80 -32.5s74.666 -10 123.999 -10h307c63.333 0 112.5 4.83301 147.5 14.5s61 23.5 78 41.5
s27.333 40 31 66s5.5 55.667 5.5 89c0 32.667 -2.33301 59.167 -7 79.5s-12.167 36.5 -22.5 48.5s-23.333 20.667 -39 26s-34.5 9.33301 -56.5 12v2c24 6 43.5 12.167 58.5 18.5s26.5 15.5 34.5 27.5s13.333 28.167 16 48.5s4 47.166 4 80.499
c0 32.667 -3.66699 60.667 -11 84s-20.333 42.5 -39 57.5s-44 26.167 -76 33.5s-72.667 11 -122 11h-359c-71.333 0 -123.166 -14.5 -155.499 -43.5s-48.5 -72.833 -48.5 -131.5v-49h92v52c0 16.667 3 30.834 9 42.501s15.833 21.167 29.5 28.5s31.5 12.666 53.5 15.999
s49.333 5 82 5h280c37.333 0 67.333 -1.33301 90 -4s40.167 -8.16699 52.5 -16.5s20.5 -20.666 24.5 -36.999s6 -38.5 6 -66.5c0 -21.333 -0.833008 -39.666 -2.5 -54.999s-6.66699 -27.666 -15 -36.999s-21.166 -16.166 -38.499 -20.499s-42 -6.5 -74 -6.5h-277v-80z" />
    <glyph glyph-name="four" unicode="4" horiz-adv-x="964" 
d="M49 152h637v-152h92v152h121v80h-121v492h-134l-595 -458v-114zM686 232h-545v2l545 420v-422z" />
    <glyph glyph-name="five" unicode="5" horiz-adv-x="964" 
d="M89 338l88 0.000976562c6 16.667 13.5 30 22.5 40s19.833 17.667 32.5 23s27 8.66602 43 9.99902s33.667 2 53 2h279c36.667 0 67.5 -2.33301 92.5 -7s45 -12.334 60 -23.001s25.833 -25 32.5 -43s10 -40.333 10 -67v-33c0 -33.333 -1.83301 -60.833 -5.5 -82.5
s-12.5 -38.834 -26.5 -51.501s-35 -21.5 -63 -26.5s-66.333 -7.5 -115 -7.5h-277c-34 0 -60.833 3.33301 -80.5 10s-34.5 16.334 -44.5 29.001s-16.333 28.167 -19 46.5s-4 39.5 -4 63.5h-92v-15c0 -38 3.66699 -70.5 11 -97.5s19.5 -49.167 36.5 -66.5s39.833 -30 68.5 -38
s64.667 -12 108 -12h323c61.333 0 110 4.66699 146 14s63.333 22.833 82 40.5s30.667 39.334 36 65.001s8 54.834 8 87.501v88c0 40 -5.33301 73.333 -16 100s-26.667 47.834 -48 63.501s-47.833 26.667 -79.5 33s-68.167 9.5 -109.5 9.5h-241c-36 0 -66 -0.833008 -90 -2.5
s-44 -5.33398 -60 -11.001s-29.167 -13.334 -39.5 -23.001s-19.5 -22.5 -27.5 -38.5h-2v226h687v80h-779v-386z" />
    <glyph glyph-name="six" unicode="6" horiz-adv-x="964" 
d="M413 72c-42 0 -78.3389 0.666016 -109.006 1.99902s-55.667 6.5 -75 15.5s-33.666 23 -42.999 42s-14 46.167 -14 81.5c0 26.667 2.33301 49 7 67s14.834 32.333 30.501 43s38.334 18.334 68.001 23.001s69.5 7 119.5 7h140c60 0 107.167 -1.16699 141.5 -3.5
s59.833 -8.16602 76.5 -17.499s27 -23 31 -41s6 -42.333 6 -73c0 -36.667 -4.16699 -64.834 -12.5 -84.501s-22.166 -34 -41.499 -43s-44.666 -14.333 -75.999 -16s-69.666 -2.5 -114.999 -2.5h-134zM782.994 509.999l91.9971 0.000976562v32
c0 29.333 -3.83301 55.666 -11.5 78.999s-21.667 43.333 -42 60s-48 29.334 -83 38.001s-79.5 13 -133.5 13h-295c-24.667 0 -50.5 -2.83301 -77.5 -8.5s-51.833 -15.667 -74.5 -30s-41.334 -33.833 -56.001 -58.5s-22 -55.667 -22 -93v-339
c0 -49.333 7.83301 -88 23.5 -116s36.334 -49 62.001 -63s54.5 -22.833 86.5 -26.5s64 -5.5 96 -5.5h244c40.667 0 78.834 1.5 114.501 4.5s66.667 11 93 24s47 32.5 62 58.5s22.5 62 22.5 108v68c0 62.667 -16.667 108 -50 136s-85.333 42 -156 42h-334
c-17.333 0 -34.5 -1 -51.5 -3s-33.167 -6.33301 -48.5 -13s-29.166 -16.167 -41.499 -28.5s-21.833 -28.833 -28.5 -49.5h-2v196c0 24 4.83301 43.667 14.5 59s21.834 27.333 36.501 36s31 14.5 49 17.5s35.333 4.5 52 4.5h297c32.667 0 59.5 -2.33301 80.5 -7
s37.5 -11.334 49.5 -20.001s20.333 -19 25 -31s7 -25.333 7 -40v-44z" />
    <glyph glyph-name="seven" unicode="7" horiz-adv-x="964" 
d="M248 0h117l537 615v109h-831v-80h739z" />
    <glyph glyph-name="eight" unicode="8" horiz-adv-x="964" 
d="M388 72c-51.333 0 -91.6689 1.66699 -121.002 5s-51.5 9.83301 -66.5 19.5s-24.5 23.5 -28.5 41.5s-6 41.667 -6 71s2.66699 52.166 8 68.499s15.333 28.5 30 36.5s34.334 13 59.001 15s56.667 3 96 3h246c38.667 0 70.5 -1 95.5 -3s44.833 -7 59.5 -15
s24.667 -20.167 30 -36.5s8 -39.166 8 -68.499s-2 -53 -6 -71s-13.5 -31.833 -28.5 -41.5s-37.167 -16.167 -66.5 -19.5s-69.666 -5 -120.999 -5h-188zM363.997 412c-39.333 0 -71.3311 1 -95.998 3s-43.834 7.16699 -57.501 15.5s-23 20.833 -28 37.5
s-7.5 39.334 -7.5 68.001c0 22.667 2 41.5 6 56.5s12 27 24 36s28.833 15.167 50.5 18.5s50.167 5 85.5 5h282c35.333 0 63.833 -1.66699 85.5 -5s38.5 -9.5 50.5 -18.5s20 -21 24 -36s6 -33.833 6 -56.5c0 -28.667 -2.5 -51.334 -7.5 -68.001s-14.333 -29.167 -28 -37.5
s-32.834 -13.5 -57.501 -15.5s-56.667 -3 -96 -3h-236zM73.999 161c0 -62.667 17.166 -106.504 51.499 -131.504s87.5 -37.5 159.5 -37.5h394c72 0 125.167 12.5 159.5 37.5s51.5 68.833 51.5 131.5v71c0 24.667 -3.5 45.334 -10.5 62.001s-16.333 30.334 -28 41.001
s-25.5 18.834 -41.5 24.501s-33 10.167 -51 13.5v2c28.667 4 51.167 11.5 67.5 22.5s28.5 23.5 36.5 37.5s13 28.333 15 43s3 28 3 40v47c0 60.667 -17.667 103.667 -53 129s-91.666 38 -168.999 38h-354c-77.333 0 -133.666 -12.667 -168.999 -38s-53 -68.333 -53 -129v-47
c0 -12 1 -25.333 3 -40s7.16699 -29 15.5 -43s21.166 -26.5 38.499 -37.5s41.333 -18.5 72 -22.5v-2c-28 -3.33301 -51 -8 -69 -14s-32.167 -14.667 -42.5 -26s-17.333 -26.166 -21 -44.499s-5.5 -41.833 -5.5 -70.5v-57z" />
    <glyph glyph-name="nine" unicode="9" horiz-adv-x="964" 
d="M427 371c-60 0 -107.161 1.16797 -141.494 3.50098s-59.833 8.16602 -76.5 17.499s-27 22.833 -31 40.5s-6 42.167 -6 73.5c0 36.667 4.16699 64.834 12.5 84.501s22.166 34 41.499 43s44.666 14.333 75.999 16s69.666 2.5 114.999 2.5h134c42 0 78.333 -0.666992 109 -2
s55.667 -6.5 75 -15.5s33.666 -23 42.999 -42s14 -46.167 14 -81.5c0 -26.667 -2.33301 -49 -7 -67s-14.834 -32.333 -30.501 -43s-38.334 -18.334 -68.001 -23.001s-69.5 -7 -119.5 -7h-140zM89.0059 182.001c0 -29.333 3.83398 -55.666 11.501 -78.999
s21.667 -43.333 42 -60s48 -29.334 83 -38.001s79.5 -13 133.5 -13h295c24.667 0 50.5 2.83301 77.5 8.5s51.833 15.667 74.5 30s41.334 33.833 56.001 58.5s22 55.667 22 93v339c0 48.667 -7.83301 87.167 -23.5 115.5s-36.334 49.5 -62.001 63.5s-54.5 22.833 -86.5 26.5
s-64 5.5 -96 5.5h-244c-41.333 0 -79.666 -1.5 -114.999 -4.5s-66.166 -11 -92.499 -24s-47 -32.5 -62 -58.5s-22.5 -62 -22.5 -108v-68c0 -62.667 16.667 -108 50 -136s85.333 -42 156 -42h334c16.667 0 33.667 1 51 3s33.666 6.16699 48.999 12.5
s29.166 15.666 41.499 27.999s21.833 28.5 28.5 48.5h2v-194c0 -24 -4.83301 -43.667 -14.5 -59s-21.834 -27.333 -36.501 -36s-31 -14.5 -49 -17.5s-35.333 -4.5 -52 -4.5h-297c-32.667 0 -59.5 2.33301 -80.5 7s-37.5 11.334 -49.5 20.001s-20.333 19 -25 31
s-7 25.333 -7 40v44h-92v-32z" />
    <glyph glyph-name="colon" unicode=":" horiz-adv-x="482" 
d="M185 0h112v124h-112v-124zM185 386h112v124h-112v-124z" />
    <glyph glyph-name="semicolon" unicode=";" horiz-adv-x="482" 
d="M185 0l38.001 0.00195312c0 -21.333 -3.33301 -36.333 -10 -45s-19.667 -12.334 -39 -11.001v-58c20.667 0 38.667 1.66699 54 5s28.166 9.33301 38.499 18s18 20.167 23 34.5s7.5 32.166 7.5 53.499v127h-112v-124zM185.001 386.002h112v124h-112v-124z" />
    <glyph glyph-name="semicolon" unicode="&#x37e;" horiz-adv-x="482" 
d="M185 0l38.001 0.00195312c0 -21.333 -3.33301 -36.333 -10 -45s-19.667 -12.334 -39 -11.001v-58c20.667 0 38.667 1.66699 54 5s28.166 9.33301 38.499 18s18 20.167 23 34.5s7.5 32.166 7.5 53.499v127h-112v-124zM185.001 386.002h112v124h-112v-124z" />
    <glyph glyph-name="less" unicode="&#x3c;" horiz-adv-x="600" 
d="M47 215l506 -223v86l-397 175l397 175v86l-506 -223v-76z" />
    <glyph glyph-name="equal" unicode="=" horiz-adv-x="600" 
d="M47 322h506v70h-506v-70zM47 114h506v70h-506v-70z" />
    <glyph glyph-name="greater" unicode="&#x3e;" horiz-adv-x="600" 
d="M553 291l-506 223v-86l397 -175l-397 -175v-86l506 223v76z" />
    <glyph glyph-name="question" unicode="?" horiz-adv-x="791" 
d="M47 490l86.0049 -0.00390625v65c0 26.667 4.16699 47.334 12.5 62.001s22.166 25.334 41.499 32.001s45.166 10.5 77.499 11.5s72.166 1.5 119.499 1.5c59.333 0 106.333 -1.33301 141 -4s61 -8.33398 79 -17.001s29.5 -21.667 34.5 -39s7.5 -40.333 7.5 -69
c0 -27.333 -1.66699 -48.833 -5 -64.5s-9.83301 -28.167 -19.5 -37.5s-23.334 -16.333 -41.001 -21s-40.834 -9.66699 -69.501 -15c-43.333 -8 -78.5 -15.5 -105.5 -22.5s-48 -15.833 -63 -26.5s-25.167 -24.334 -30.5 -41.001s-8 -38.334 -8 -65.001v-19h80v22
c0 14 4.5 25.333 13.5 34s19.667 15.834 32 21.501s25 9.83398 38 12.501s23.833 4.66699 32.5 6c40 6.66699 74.667 13.334 104 20.001s53.5 16.834 72.5 30.501s33 32.334 42 56.001s13.5 56.5 13.5 98.5c0 50 -5.66699 89 -17 117s-30.833 49 -58.5 63
s-65 22.5 -112 25.5s-106.167 4.5 -177.5 4.5c-52 0 -98 -0.833008 -138 -2.5s-73.5 -7.5 -100.5 -17.5s-47.333 -26 -61 -48s-20.5 -53.333 -20.5 -94v-80zM288.005 -0.00390625h112v124h-112v-124z" />
    <glyph glyph-name="at" unicode="@" horiz-adv-x="800" 
d="M285 319c0 19.333 3.33203 39.1699 9.99902 59.5029s15.834 38.666 27.501 54.999s25.5 29.666 41.5 39.999s33.667 15.5 53 15.5c22 0 41 -8.83301 57 -26.5s24 -40.5 24 -68.5c0 -20 -3.33301 -40.5 -10 -61.5s-16 -40 -28 -57s-26.167 -31 -42.5 -42
s-33.833 -16.5 -52.5 -16.5c-24.667 0 -44.167 9.16699 -58.5 27.5s-21.5 43.166 -21.5 74.499zM666.999 156.004c-34 -36.667 -70.5049 -63.4971 -109.505 -80.4971s-82.833 -25.5 -131.5 -25.5c-45.333 0 -87.166 7.5 -125.499 22.5s-71.5 36.167 -99.5 63.5
s-49.833 60 -65.5 98s-23.5 80 -23.5 126c0 41.333 7.33301 79.833 22 115.5s35.334 66.5 62.001 92.5s58.667 46.5 96 61.5s78.333 22.5 123 22.5c38 0 73.5 -5.16699 106.5 -15.5s61.833 -25.666 86.5 -45.999s44.167 -45.5 58.5 -75.5s21.5 -64.333 21.5 -103
c0 -27.333 -3.83301 -52.833 -11.5 -76.5s-17.5 -44.334 -29.5 -62.001s-25.5 -31.5 -40.5 -41.5s-29.833 -15 -44.5 -15c-7.33301 0 -12.166 2.5 -14.499 7.5s-3.5 11.167 -3.5 18.5s0.666992 14.833 2 22.5s3 15.167 5 22.5l69 259h-77l-17 -58
c-13.333 25.333 -30 43.333 -50 54s-41.667 16 -65 16c-30.667 0 -58.667 -7.33301 -84 -22s-47 -34 -65 -58s-32 -51 -42 -81s-15 -60.333 -15 -91c0 -21.333 3.66699 -41.666 11 -60.999s17.333 -36.333 30 -51s27.334 -26.334 44.001 -35.001s34.334 -13 53.001 -13
c21.333 0 41.833 5.66699 61.5 17s36.834 25 51.501 41h2c0 -19.333 5.83301 -33.833 17.5 -43.5s25.167 -14.5 40.5 -14.5c19.333 0 42.833 5.66699 70.5 17s54.167 28.666 79.5 51.999s47 52.666 65 87.999s27 76.666 27 123.999c0 45.333 -9.33301 86.666 -28 123.999
s-43.834 69.333 -75.501 96s-68.167 47.334 -109.5 62.001s-84.333 22 -129 22c-51.333 0 -99.666 -9.5 -144.999 -28.5s-85 -45.167 -119 -78.5s-60.833 -72.333 -80.5 -117s-29.5 -93 -29.5 -145c0 -58 9.83301 -110 29.5 -156s46.667 -85 81 -117s74.5 -56.333 120.5 -73
s95.333 -25 148 -25c62.667 0 120.667 14.333 174 43s96.666 69 129.999 121h-58z" />
    <glyph glyph-name="A" unicode="A" horiz-adv-x="1012" 
d="M15 0h111l90 153h580l90 -153h111l-430 724h-122zM749 233h-486l243 411z" />
    <glyph glyph-name="B" unicode="B" horiz-adv-x="1012" 
d="M836 177c0 -32 -9.16699 -56.167 -27.5 -72.5s-50.5 -24.5 -96.5 -24.5h-518v253h503c22 0 41.667 -1.16699 59 -3.5s32 -7.16602 44 -14.499s21 -17.833 27 -31.5s9 -31.834 9 -54.501v-52zM808 502c0 -18 -3.16699 -32.833 -9.5 -44.5s-14.5 -20.667 -24.5 -27
s-21.5 -10.833 -34.5 -13.5s-26.167 -4 -39.5 -4h-506v231h511c7.33301 0 16.833 -0.833008 28.5 -2.5s23 -5.16699 34 -10.5s20.5 -13 28.5 -23s12 -23.333 12 -40v-66zM96 0h627.997c30 -0 57.833 3.33301 83.5 10s47.834 16.5 66.501 29.5s33.334 29 44.001 48
s16 41.167 16 66.5v86c0 27.333 -4 50 -12 68s-18.667 32.333 -32 43s-28.666 18.334 -45.999 23.001s-35.666 7.66699 -54.999 9v4c22 2 40.5 6.66699 55.5 14s27 16.333 36 27s15.5 22.167 19.5 34.5s6 25.166 6 38.499v62c0 20.667 -3 40.667 -9 60
s-16.333 36.5 -31 51.5s-34.334 27 -59.001 36s-55.667 13.5 -93 13.5h-618v-724z" />
    <glyph glyph-name="C" unicode="C" horiz-adv-x="1012" 
d="M77 263c0 -46 4.16699 -85.8301 12.5 -119.497s22.5 -61.834 42.5 -84.501s46.5 -39.5 79.5 -50.5s74.167 -16.5 123.5 -16.5h370c50.667 0 92 4.33301 124 13s57 21.5 75 38.5s30.167 38.167 36.5 63.5s9.5 54.333 9.5 87v49h-92v-45c0 -24.667 -2.66699 -45 -8 -61
s-14.5 -28.833 -27.5 -38.5s-30.5 -16.5 -52.5 -20.5s-49.333 -6 -82 -6h-343c-23.333 0 -45.333 2.16699 -66 6.5s-38.667 12.166 -54 23.499s-27.5 27 -36.5 47s-13.5 45.667 -13.5 77v272c0 31.333 4.5 57 13.5 77s21.167 35.667 36.5 47s33.333 19.166 54 23.499
s42.667 6.5 66 6.5h340c22.667 0 44 -1 64 -3s37.5 -7.16699 52.5 -15.5s27 -21.166 36 -38.499s13.5 -41.333 13.5 -72v-33h86v62c0 24 -3.5 47 -10.5 69s-19.167 41.167 -36.5 57.5s-40.5 29.333 -69.5 39s-65.833 14.5 -110.5 14.5h-375
c-49.333 0 -90.5 -5.5 -123.5 -16.5s-59.5 -27.833 -79.5 -50.5s-34.167 -50.834 -42.5 -84.501s-12.5 -73.5 -12.5 -119.5v-198z" />
    <glyph glyph-name="D" unicode="D" horiz-adv-x="1061" 
d="M886 323c0 -54 -4.83105 -97.167 -14.498 -129.5s-23.334 -56.833 -41.001 -73.5s-38.834 -27.5 -63.501 -32.5s-52 -7.5 -82 -7.5h-497v564h513c30 0 56.5 -3 79.5 -9s42.333 -18 58 -36s27.5 -43.167 35.5 -75.5s12 -74.5 12 -126.5v-74zM90.002 0
l582.003 -0.000976562c61.333 0 112.166 6.33301 152.499 19s72.333 33.334 96 62.001s40.167 66 49.5 112s14 102.333 14 169c0 71.333 -4.66699 130.333 -14 177s-25.833 83.667 -49.5 111s-55.334 46.5 -95.001 57.5s-89.834 16.5 -150.501 16.5h-585v-724z" />
    <glyph glyph-name="E" unicode="E" horiz-adv-x="864" 
d="M96 0h715v80h-617v253h589v80h-589v231h613v80h-711v-724z" />
    <glyph glyph-name="F" unicode="F" horiz-adv-x="839" 
d="M96 0h98v333h569v80h-569v231h592v80h-690v-724z" />
    <glyph glyph-name="G" unicode="G" horiz-adv-x="1061" 
d="M984 359l-469 0.00292969v-80h371v-73c0 -50 -14 -84.833 -42 -104.5s-66.667 -29.5 -116 -29.5h-383c-23.333 0 -45.333 2.16699 -66 6.5s-38.667 12.166 -54 23.499s-27.5 27 -36.5 47s-13.5 45.667 -13.5 77v272c0 31.333 4.5 57 13.5 77s21.167 35.667 36.5 47
s33.333 19.166 54 23.499s42.667 6.5 66 6.5h254c60.667 0 109.5 -1.16699 146.5 -3.5s65.667 -8.33301 86 -18s33.833 -24.167 40.5 -43.5s10 -46 10 -80h92v26c0 42 -8 75.833 -24 101.5s-36.667 45.834 -62 60.501s-54 24.5 -86 29.5s-64.333 7.5 -97 7.5h-370
c-49.333 0 -90.5 -5.5 -123.5 -16.5s-59.5 -27.833 -79.5 -50.5s-34.167 -50.834 -42.5 -84.501s-12.5 -73.5 -12.5 -119.5v-198c0 -46 4.16699 -85.833 12.5 -119.5s22.5 -61.834 42.5 -84.501s46.5 -39.5 79.5 -50.5s74.167 -16.5 123.5 -16.5h404
c45.333 0 83.5 4.66699 114.5 14s56.167 24.5 75.5 45.5s33.333 48.5 42 82.5s13 75.667 13 125v100z" />
    <glyph glyph-name="H" unicode="H" horiz-adv-x="1042" 
d="M96 0h98v333h654v-333h98v724h-98v-311h-654v311h-98v-724z" />
    <glyph glyph-name="I" unicode="I" horiz-adv-x="296" 
d="M99 0h98v724h-98v-724z" />
    <glyph glyph-name="J" unicode="J" horiz-adv-x="791" 
d="M26 187c0 -68 18.3311 -117.5 54.998 -148.5s98 -46.5 184 -46.5h186c44.667 0 82.834 3.16699 114.501 9.5s57.5 17.5 77.5 33.5s34.667 37.5 44 64.5s14 61.5 14 103.5v521h-98v-540c0 -23.333 -3 -42.333 -9 -57s-15.5 -26 -28.5 -34s-29.667 -13.5 -50 -16.5
s-44.5 -4.5 -72.5 -4.5h-171c-31.333 0 -57 1.83301 -77 5.5s-35.667 10.5 -47 20.5s-19.166 24 -23.499 42s-6.5 41.333 -6.5 70v57h-92v-80z" />
    <glyph glyph-name="K" unicode="K" horiz-adv-x="987" 
d="M96 0h98v337h115l497 -337h172l2 2l-566 374l519 346l-2 2h-160l-454 -307h-123v307h-98v-724z" />
    <glyph glyph-name="L" unicode="L" horiz-adv-x="765" 
d="M96 0h660v80h-562v644h-98v-724z" />
    <glyph glyph-name="M" unicode="M" horiz-adv-x="1332" 
d="M90 0h98v636h2l441 -636h70l441 636h2v-636h98v724h-153l-423 -607l-423 607h-153v-724z" />
    <glyph glyph-name="N" unicode="N" horiz-adv-x="1087" 
d="M90 0h98v636l663 -636h146v724h-98v-636l-663 636h-146v-724z" />
    <glyph glyph-name="O" unicode="O" horiz-adv-x="1087" 
d="M912 226c0 -31.333 -4.5 -57 -13.5 -77s-21.167 -35.667 -36.5 -47s-33.333 -19.166 -54 -23.499s-42.667 -6.5 -66 -6.5h-397c-23.333 0 -45.333 2.16699 -66 6.5s-38.667 12.166 -54 23.499s-27.5 27 -36.5 47s-13.5 45.667 -13.5 77v272c0 31.333 4.5 57 13.5 77
s21.167 35.667 36.5 47s33.333 19.166 54 23.499s42.667 6.5 66 6.5h397c23.333 0 45.333 -2.16699 66 -6.5s38.667 -12.166 54 -23.499s27.5 -27 36.5 -47s13.5 -45.667 13.5 -77v-272zM77 263c0 -46 4.16699 -85.833 12.5 -119.5s22.5 -61.834 42.5 -84.501
s46.5 -39.5 79.5 -50.5s74.167 -16.5 123.5 -16.5h417c48.667 0 89.5 5.5 122.5 16.5s59.5 27.833 79.5 50.5s34.333 50.834 43 84.501s13 73.5 13 119.5v198c0 46 -4.33301 85.833 -13 119.5s-23 61.834 -43 84.501s-46.5 39.5 -79.5 50.5s-73.833 16.5 -122.5 16.5h-417
c-49.333 0 -90.5 -5.5 -123.5 -16.5s-59.5 -27.833 -79.5 -50.5s-34.167 -50.834 -42.5 -84.501s-12.5 -73.5 -12.5 -119.5v-198z" />
    <glyph glyph-name="P" unicode="P" horiz-adv-x="939" 
d="M96 0l97.999 0.000976562v285h479c53.333 0 95 5 125 15s52.5 25.167 67.5 45.5s24.333 45.666 28 75.999s5.5 65.5 5.5 105.5c0 42 -4.66699 76 -14 102s-22.666 46 -39.999 60s-39 23.333 -65 28s-55.333 7 -88 7h-596v-724zM800.999 468.001
c0 -38 -10.8311 -64.667 -32.498 -80s-52.167 -23 -91.5 -23h-483v279h475c21.333 0 40.166 -1.5 56.499 -4.5s30.166 -8.5 41.499 -16.5s19.833 -19 25.5 -33s8.5 -31.667 8.5 -53v-69z" />
    <glyph glyph-name="Q" unicode="Q" horiz-adv-x="1087" 
d="M1027 31l44 69.001l-73 46c8 32.667 12 71.667 12 117v198c0 46 -4.33301 85.833 -13 119.5s-23 61.834 -43 84.501s-46.5 39.5 -79.5 50.5s-73.833 16.5 -122.5 16.5h-417c-49.333 0 -90.5 -5.5 -123.5 -16.5s-59.5 -27.833 -79.5 -50.5s-34.167 -50.834 -42.5 -84.501
s-12.5 -73.5 -12.5 -119.5v-198c0 -46 4.16699 -85.833 12.5 -119.5s22.5 -61.834 42.5 -84.501s46.5 -39.5 79.5 -50.5s74.167 -16.5 123.5 -16.5h417c54 0 97.833 6.5 131.5 19.5s60.167 32.833 79.5 59.5zM912 201.001l-276 175.001l-44 -69l290 -184
c-14 -20 -31.5 -33.5 -52.5 -40.5s-50.167 -10.5 -87.5 -10.5h-397c-23.333 0 -45.333 2.16699 -66 6.5s-38.667 12.166 -54 23.499s-27.5 27 -36.5 47s-13.5 45.667 -13.5 77v272c0 31.333 4.5 57 13.5 77s21.167 35.667 36.5 47s33.333 19.166 54 23.499
s42.667 6.5 66 6.5h397c23.333 0 45.333 -2.16699 66 -6.5s38.667 -12.166 54 -23.499s27.5 -27 36.5 -47s13.5 -45.667 13.5 -77v-297z" />
    <glyph glyph-name="R" unicode="R" horiz-adv-x="987" 
d="M90 0l98 0.000976562v286h478c22 0 42 -1.33301 60 -4s33.167 -8.33398 45.5 -17.001s21.833 -21.5 28.5 -38.5s10 -39.5 10 -67.5v-159h92v185c0 16.667 -1.83301 32.167 -5.5 46.5s-10 27.5 -19 39.5s-21.667 22.167 -38 30.5s-36.833 14.833 -61.5 19.5v2
c18.667 2 36.167 5.33301 52.5 10s30.5 12.167 42.5 22.5s21.333 24 28 41s10 38.167 10 63.5v59c0 34 -2.83301 63.833 -8.5 89.5s-17 47 -34 64s-41.5 29.833 -73.5 38.5s-74 13 -126 13h-579v-724zM188 366.001v278h446c36 0 65.5 -1.83301 88.5 -5.5
s41.333 -9.66699 55 -18s23 -19.333 28 -33s7.5 -30.5 7.5 -50.5v-66c0 -38 -12.167 -65 -36.5 -81s-63.833 -24 -118.5 -24h-470z" />
    <glyph glyph-name="S" unicode="S" horiz-adv-x="987" 
d="M78 175c0 -39.333 7.3291 -70.9971 21.9961 -94.9971s34.334 -42.5 59.001 -55.5s53.167 -21.667 85.5 -26s66.5 -6.5 102.5 -6.5h272c36 0 71.5 1.66699 106.5 5s66.167 11.333 93.5 24s49.333 31.667 66 57s25 60.333 25 105v47c0 61.333 -21.333 106.333 -64 135
s-111.667 43 -207 43h-290c-38 0 -68.833 2 -92.5 6s-42 10.5 -55 19.5s-21.667 20.833 -26 35.5s-6.5 32.667 -6.5 54c0 30 4.5 53.5 13.5 70.5s23.5 29.833 43.5 38.5s46.333 14.167 79 16.5s72.667 3.5 120 3.5h104c64 0 114.167 -1.66699 150.5 -5s63.333 -10 81 -20
s28.5 -23.833 32.5 -41.5s6.33301 -40.834 7 -69.501h92v25c0 32 -4.5 60 -13.5 84s-24.833 44 -47.5 60s-53.667 27.833 -93 35.5s-89.333 11.5 -150 11.5h-211c-50.667 0 -94.667 -2.83301 -132 -8.5s-68.5 -16 -93.5 -31s-43.667 -35.5 -56 -61.5
s-18.5 -59.667 -18.5 -101c0 -48 6.66699 -86 20 -114s35.5 -49 66.5 -63s71.833 -23 122.5 -27s113.334 -6 188.001 -6h186c30.667 0 56.167 -1.66699 76.5 -5s36.5 -9.33301 48.5 -18s20.5 -20.334 25.5 -35.001s7.5 -33.334 7.5 -56.001c0 -26 -3 -47.667 -9 -65
s-16 -31 -30 -41s-32.833 -17.167 -56.5 -21.5s-53.167 -6.5 -88.5 -6.5h-304c-30.667 0 -56.167 2.16699 -76.5 6.5s-36.666 10.833 -48.999 19.5s-21.166 19.5 -26.499 32.5s-8 28.5 -8 46.5v51h-92v-53z" />
    <glyph glyph-name="T" unicode="T" horiz-adv-x="864" 
d="M383 0h98v644h366v80h-830v-80h366v-644z" />
    <glyph glyph-name="U" unicode="U" horiz-adv-x="1042" 
d="M96 182c0 -36.667 4.8252 -67.167 14.4922 -91.5s24.834 -43.833 45.501 -58.5s47.334 -25 80.001 -31s72 -9 118 -9h334c46 0 85.333 3 118 9s59.334 16.333 80.001 31s35.834 34.167 45.501 58.5s14.5 54.833 14.5 91.5v542h-98v-541c0 -17.333 -2 -33 -6 -47
s-11.667 -25.667 -23 -35s-27.166 -16.5 -47.499 -21.5s-47.166 -7.5 -80.499 -7.5h-340c-33.333 0 -60.166 2.5 -80.499 7.5s-36.166 12.167 -47.499 21.5s-19 21 -23 35s-6 29.667 -6 47v541h-98v-542z" />
    <glyph glyph-name="V" unicode="V" horiz-adv-x="964" 
d="M422 0h120l401 724h-110l-351 -636l-351 636h-110z" />
    <glyph glyph-name="W" unicode="W" horiz-adv-x="1332" 
d="M294 0h126l246 636l246 -636h126l288 724h-96l-256 -636l-245 636h-126l-248 -633l-253 633h-96z" />
    <glyph glyph-name="X" unicode="X" horiz-adv-x="1012" 
d="M21 0h143l342 336l347 -336h138l-399 383l354 341h-135l-305 -291l-301 291h-139l354 -341z" />
    <glyph glyph-name="Y" unicode="Y" horiz-adv-x="964" 
d="M433 0h98v306l415 418h-132l-332 -336l-332 336h-132l415 -418v-306z" />
    <glyph glyph-name="Z" unicode="Z" horiz-adv-x="913" 
d="M42 0h829v80h-678l664 574v70h-794v-80h640l-661 -568v-76z" />
    <glyph glyph-name="bracketleft" unicode="[" horiz-adv-x="370" 
d="M73 0h256v80h-170v564h170v80h-256v-724z" />
    <glyph glyph-name="backslash" unicode="\" horiz-adv-x="370" 
d="M331 -8h84l-375 740h-85z" />
    <glyph glyph-name="bracketright" unicode="]" horiz-adv-x="370" 
d="M41 0h256v724h-256v-80h170v-564h-170v-80z" />
    <glyph glyph-name="asciicircum" unicode="^" horiz-adv-x="600" 
d="M60 320h80l160 324l160 -324h80l-199 404h-82z" />
    <glyph glyph-name="underscore" unicode="_" horiz-adv-x="500" 
d="M0 -125h500v50h-500v-50z" />
    <glyph glyph-name="grave" unicode="`" 
d="M153 588h67l-148 185h-103z" />
    <glyph glyph-name="a" unicode="a" horiz-adv-x="765" 
d="M608 0l86 -0.00292969v342c0 38 -6.5 68.5 -19.5 91.5s-31.167 40.833 -54.5 53.5s-51.5 21 -84.5 25s-69.5 6 -109.5 6h-136c-38.667 0 -71.5 -2.5 -98.5 -7.5s-49 -12.667 -66 -23s-29.333 -23.833 -37 -40.5s-11.5 -36.667 -11.5 -60v-25h86v18
c0 10.667 1.66699 20.167 5 28.5s9.66602 15.5 18.999 21.5s22.333 10.5 39 13.5s38.667 4.5 66 4.5h126c32.667 0 61 -1.16699 85 -3.5s43.833 -7 59.5 -14s27.167 -17.5 34.5 -31.5s11 -32.333 11 -55v-96h-2c-7.33301 12 -15.666 22 -24.999 30s-21 14.333 -35 19
s-30.833 7.83398 -50.5 9.50098s-43.5 2.5 -71.5 2.5h-138c-37.333 0 -70.5 -1.33301 -99.5 -4s-53.333 -8.5 -73 -17.5s-34.5 -22.167 -44.5 -39.5s-15 -40.333 -15 -69v-34c0 -24 2.5 -45.5 7.5 -64.5s13.667 -35 26 -48s29 -23 50 -30s47.833 -10.5 80.5 -10.5h206
c32.667 0 59.5 0.833008 80.5 2.5s38 4.83398 51 9.50098s23.167 10.834 30.5 18.501s14 17.167 20 28.5h2v-51zM608 136.997c0 -16 -3.99902 -28.8311 -11.999 -38.498s-20.5 -17.334 -37.5 -23.001s-39.333 -9.33398 -67 -11.001s-60.834 -2.5 -99.501 -2.5h-114
c-29.333 0 -53 1.5 -71 4.5s-32 7.83301 -42 14.5s-16.667 15.167 -20 25.5s-5 22.5 -5 36.5v16c0 16 2.16699 29.167 6.5 39.5s12 18.5 23 24.5s25.5 10.167 43.5 12.5s41 3.5 69 3.5h132c32.667 0 61.167 -0.833008 85.5 -2.5s44.5 -5.33398 60.5 -11.001
s28 -13.667 36 -24s12 -24.166 12 -41.499v-23z" />
    <glyph glyph-name="b" unicode="b" horiz-adv-x="791" 
d="M647 208c0 -24.667 -2.33105 -46.167 -6.99805 -64.5s-13.334 -33.5 -26.001 -45.5s-30.167 -21 -52.5 -27s-50.833 -9 -85.5 -9h-140c-32 0 -58.833 3.33301 -80.5 10s-39 16.167 -52 28.5s-22.333 27.666 -28 45.999s-8.5 39.166 -8.5 62.499v97
c0 30.667 4.33301 55.334 13 74.001s21 33 37 43s35.5 16.667 58.5 20s49.167 5 78.5 5h116c29.333 0 55.166 -1.83301 77.499 -5.5s40.833 -10.5 55.5 -20.5s25.667 -24.167 33 -42.5s11 -42.166 11 -71.499v-100zM81.002 0l79.998 -0.000976562v81h2
c12.667 -31.333 35.334 -54 68.001 -68s71.667 -21 117 -21h120c38.667 0 74.334 3 107.001 9s60.667 16.833 84 32.5s41.5 37.5 54.5 65.5s19.5 64 19.5 108v90c0 40.667 -4.33301 75 -13 103s-23.5 50.833 -44.5 68.5s-48.667 30.334 -83 38.001s-77.5 11.5 -129.5 11.5
h-131c-49.333 0 -86.5 -6 -111.5 -18s-42.167 -31.333 -51.5 -58h-2v282h-86v-724z" />
    <glyph glyph-name="c" unicode="c" horiz-adv-x="741" 
d="M58 198c0 -46 7.49902 -82.667 22.499 -110s33.5 -48.166 55.5 -62.499s45.333 -23.5 70 -27.5s46.667 -6 66 -6h194c40 0 74.167 3.33301 102.5 10s51.5 17.167 69.5 31.5s31.167 32.833 39.5 55.5s12.5 50 12.5 82v15h-80v-17
c0 -20.667 -3.83301 -37.834 -11.5 -51.501s-18.334 -24.667 -32.001 -33s-29.334 -14.166 -47.001 -17.499s-36.5 -5 -56.5 -5h-145c-26 0 -49.667 2 -71 6s-39.666 11.167 -54.999 21.5s-27.166 24.5 -35.499 42.5s-12.5 41.333 -12.5 70v107c0 32 4.33301 57.167 13 75.5
s20.334 32.166 35.001 41.499s31.5 15.333 50.5 18s38.5 4 58.5 4h158c21.333 0 40.833 -1.5 58.5 -4.5s32.667 -8.33301 45 -16s21.833 -18.334 28.5 -32.001s10 -31.167 10 -52.5v-12h80v14c0 54 -17.167 96.333 -51.5 127s-91.5 46 -171.5 46h-144
c-31.333 0 -62.333 -2 -93 -6s-58 -13.167 -82 -27.5s-43.5 -35.166 -58.5 -62.499s-22.5 -64 -22.5 -110v-114z" />
    <glyph glyph-name="d" unicode="d" horiz-adv-x="791" 
d="M144 308c0 29.333 3.66895 53.166 11.002 71.499s18.333 32.5 33 42.5s33.167 16.833 55.5 20.5s48.166 5.5 77.499 5.5h116c28.667 0 54.667 -1.66699 78 -5s43 -10 59 -20s28.333 -24.333 37 -43s13 -43.334 13 -74.001v-97c0 -23.333 -2.83301 -44.166 -8.5 -62.499
s-15 -33.666 -28 -45.999s-30.333 -21.833 -52 -28.5s-48.5 -10 -80.5 -10h-140c-35.333 0 -64 3 -86 9s-39.333 15 -52 27s-21.334 27.167 -26.001 45.5s-7 39.833 -7 64.5v100zM710.002 724l-85.999 0.000976562v-282h-2c-9.33301 26.667 -26.5 46 -51.5 58
s-62.167 18 -111.5 18h-131c-52 0 -95.167 -3.83301 -129.5 -11.5s-62 -20.334 -83 -38.001s-35.833 -40.5 -44.5 -68.5s-13 -62.333 -13 -103v-90c0 -44 6.5 -80 19.5 -108s31.167 -49.833 54.5 -65.5s51.166 -26.5 83.499 -32.5s68.166 -9 107.499 -9h120
c45.333 0 84.333 7 117 21s55.334 36.667 68.001 68h2v-81h80v724z" />
    <glyph glyph-name="e" unicode="e" horiz-adv-x="765" 
d="M625 310l-480.999 0.00195312c2 28.667 5.83301 52 11.5 70s15 32 28 42s30.5 16.833 52.5 20.5s50 5.5 84 5.5h126c34.667 0 63.667 -3 87 -9s41.666 -13.833 54.999 -23.5s22.833 -20.834 28.5 -33.501s8.5 -25.334 8.5 -38.001v-34zM58.001 201.002
c0 -47.333 7.16406 -84.667 21.4971 -112s33 -48.333 56 -63s48.833 -24 77.5 -28s57 -6 85 -6h156c40 0 75.833 2.5 107.5 7.5s58.667 13.333 81 25s39.333 27.167 51 46.5s17.5 43.666 17.5 72.999v10h-86c-1.33301 -19.333 -5.16602 -35 -11.499 -47
s-15.833 -21.333 -28.5 -28s-28.667 -11.167 -48 -13.5s-42.333 -3.5 -69 -3.5h-118c-37.333 0 -69.166 2.16699 -95.499 6.5s-47.666 12 -63.999 23s-28.166 25.833 -35.499 44.5s-11 42.667 -11 72v32h567v57c0 45.333 -6.66699 82.333 -20 111
s-31.666 51.167 -54.999 67.5s-51.166 27.5 -83.499 33.5s-67.833 9 -106.5 9h-138c-30.667 0 -60.834 -2 -90.501 -6s-56.334 -13.167 -80.001 -27.5s-42.834 -35.166 -57.501 -62.499s-22 -64 -22 -110v-111z" />
    <glyph glyph-name="f" unicode="f" horiz-adv-x="494" 
d="M139 0l86 -0.00195312v440h243v70h-243v63c0 22.667 6.83301 41.834 20.5 57.501s36.5 23.5 68.5 23.5h154v70h-161c-23.333 0 -45.333 -3.16699 -66 -9.5s-38.5 -16.166 -53.5 -29.499s-26.833 -30.833 -35.5 -52.5s-13 -47.5 -13 -77.5v-45h-111v-70h111v-440z" />
    <glyph glyph-name="g" unicode="g" horiz-adv-x="791" 
d="M624 230c0 -44 -12.6689 -77.833 -38.002 -101.5s-68.666 -35.5 -129.999 -35.5h-166c-26 0 -48.333 2.5 -67 7.5s-33.834 13.333 -45.501 25s-20.167 27.334 -25.5 47.001s-8 44.167 -8 73.5v94c0 20.667 3.83301 38 11.5 52s18.334 25.167 32.001 33.5
s29.667 14.166 48 17.499s38.5 5 60.5 5h175c30 0 55 -3.66699 75 -11s35.833 -17.833 47.5 -31.5s19.834 -30 24.501 -49s6.66699 -40.5 6 -64.5v-62zM709.998 510l-80 -0.000976562v-91h-2c-6.66699 20.667 -15.5 37.5 -26.5 50.5s-23.5 23 -37.5 30s-29 11.833 -45 14.5
s-32 4 -48 4h-183c-24 0 -49.5 -2 -76.5 -6s-51.833 -13.167 -74.5 -27.5s-41.5 -35.166 -56.5 -62.499s-22.5 -64 -22.5 -110v-85c0 -66 17.667 -116.5 53 -151.5s89 -52.5 161 -52.5h177c30 0 55 1.83301 75 5.5s36.5 9 49.5 16s23.167 15.333 30.5 25
s13.333 20.5 18 32.5h2v-76c0 -34.667 -4.5 -61.334 -13.5 -80.001s-23 -32.5 -42 -41.5s-43.5 -14.333 -73.5 -16s-66.333 -2.5 -109 -2.5h-84c-20 0 -39 1.33301 -57 4s-33.667 7.16699 -47 13.5s-24 15 -32 26s-12 24.833 -12 41.5v14h-80v-17c0 -16 3 -33 9 -51
s16.5 -34.5 31.5 -49.5s35.5 -27.333 61.5 -37s58.667 -14.5 98 -14.5h194c26.667 0 54.334 2.33301 83.001 7s54.667 13.834 78 27.501s42.666 32.5 57.999 56.5s23 55.333 23 94v509z" />
    <glyph glyph-name="h" unicode="h" horiz-adv-x="791" 
d="M81 0h85.999v290c0 30 3.5 55.167 10.5 75.5s19.667 36.5 38 48.5s43.5 20.667 75.5 26s73 8 123 8h22c42 0 75.333 -3 100 -9s43.5 -14.333 56.5 -25s21.5 -23.667 25.5 -39s6 -32.333 6 -51v-324h86v345c0 22.667 -3.5 44.5 -10.5 65.5s-18.667 39.5 -35 55.5
s-38.166 28.667 -65.499 38s-61 14 -101 14h-123c-26.667 0 -51 -1.33301 -73 -4s-41.5 -7.5 -58.5 -14.5s-31.667 -16.667 -44 -29s-22.5 -28.5 -30.5 -48.5h-2v302h-86v-724z" />
    <glyph glyph-name="i" unicode="i" 
d="M93 0h86v510h-86v-510zM93 630h86v94h-86v-94z" />
    <glyph glyph-name="j" unicode="j" 
d="M9 -178h33.999c44 0 77.667 10.833 101 32.5s35 50.5 35 86.5v569h-86v-556c0 -25.333 -5.66699 -42 -17 -50s-33.666 -12 -66.999 -12v-70zM92.999 630h86v94h-86v-94z" />
    <glyph glyph-name="k" unicode="k" horiz-adv-x="716" 
d="M81 0h86v247h37l369 -247h134l2 2l-419 280l352 226l-2 2h-134l-297 -193h-42v407h-86v-724z" />
    <glyph glyph-name="l" unicode="l" 
d="M93 0h86v724h-86v-724z" />
    <glyph glyph-name="m" unicode="m" horiz-adv-x="1235" 
d="M81 0l86 0.000976562v320c0 41.333 13 73 39 95s66.667 33 122 33h86c34 0 62 -2.66699 84 -8s39.167 -13.5 51.5 -24.5s20.833 -25.333 25.5 -43s7 -38.834 7 -63.501v-309h86v302c0 20.667 1.83301 39.834 5.5 57.501s11.667 33 24 46s30.166 23.333 53.499 31
s54.333 11.5 93 11.5h61c34 0 61.667 -3.33301 83 -10s38 -15.334 50 -26.001s20 -23 24 -37s6 -28.333 6 -43v-332h86v342c0 58.667 -19.833 102.667 -59.5 132s-94.167 44 -163.5 44h-104c-44 0 -82.5 -7 -115.5 -21s-57.5 -38.333 -73.5 -73
c-13.333 32 -34.333 55.667 -63 71s-62.667 23 -102 23h-139c-43.333 0 -78.166 -4.66699 -104.499 -14s-48.5 -27.333 -66.5 -54h-2v60h-80v-510z" />
    <glyph glyph-name="n" unicode="n" horiz-adv-x="791" 
d="M81 0h85.999v290c0 30 3.5 55.167 10.5 75.5s19.667 36.5 38 48.5s43.5 20.667 75.5 26s73 8 123 8h22c42 0 75.333 -3 100 -9s43.5 -14.333 56.5 -25s21.5 -23.667 25.5 -39s6 -32.333 6 -51v-324h86v345c0 22.667 -3.5 44.5 -10.5 65.5s-18.667 39.5 -35 55.5
s-38.166 28.667 -65.499 38s-61 14 -101 14h-129c-26.667 0 -51 -1.33301 -73 -4s-41.5 -7.5 -58.5 -14.5s-31.667 -16.667 -44 -29s-22.5 -28.5 -30.5 -48.5h-2v88h-80v-510z" />
    <glyph glyph-name="o" unicode="o" horiz-adv-x="815" 
d="M64 199c0 -42 7 -76.333 21 -103s33.5 -47.834 58.5 -63.501s54.833 -26.334 89.5 -32.001s72.334 -8.5 113.001 -8.5h123c40.667 0 78.334 2.83301 113.001 8.5s64.5 16.334 89.5 32.001s44.5 36.834 58.5 63.501s21 61 21 103v112c0 42 -7 76.333 -21 103
s-33.5 47.834 -58.5 63.501s-54.833 26.334 -89.5 32.001s-72.334 8.5 -113.001 8.5h-123c-40.667 0 -78.334 -2.83301 -113.001 -8.5s-64.5 -16.334 -89.5 -32.001s-44.5 -36.834 -58.5 -63.501s-21 -61 -21 -103v-112zM665 204c0 -30 -4.16699 -54.167 -12.5 -72.5
s-20 -32.666 -35 -42.999s-33 -17.333 -54 -21s-43.833 -5.5 -68.5 -5.5h-175c-25.333 0 -48.333 1.83301 -69 5.5s-38.5 10.667 -53.5 21s-26.667 24.666 -35 42.999s-12.5 42.5 -12.5 72.5v102c0 30 4.16699 54.167 12.5 72.5s20 32.666 35 42.999s32.833 17.333 53.5 21
s43.667 5.5 69 5.5h175c24.667 0 47.5 -1.83301 68.5 -5.5s39 -10.667 54 -21s26.667 -24.666 35 -42.999s12.5 -42.5 12.5 -72.5v-102z" />
    <glyph glyph-name="p" unicode="p" horiz-adv-x="791" 
d="M647 202c0 -29.333 -3.66797 -53.168 -11.001 -71.501s-17.833 -32.5 -31.5 -42.5s-30.5 -16.833 -50.5 -20.5s-42.333 -5.5 -67 -5.5h-153c-22.667 0 -44.167 1.66699 -64.5 5s-38 10 -53 20s-27 24.333 -36 43s-13.5 43.334 -13.5 74.001v97
c0 44 11.833 79.5 35.5 106.5s63.834 40.5 120.501 40.5h171c30 0 55 -3 75 -9s35.667 -15 47 -27s19.333 -27.167 24 -45.5s7 -39.833 7 -64.5v-100zM80.999 -178.002h86.0029v246h2c9.33301 -26.667 25.166 -46 47.499 -58s56.5 -18 102.5 -18h164
c44 0 81.833 3.83301 113.5 11.5s57.667 20.167 78 37.5s35.166 40 44.499 68s14 62.667 14 104v90c0 44 -6.5 80 -19.5 108s-30.5 49.833 -52.5 65.5s-47.167 26.5 -75.5 32.5s-57.833 9 -88.5 9h-163c-38 0 -72.833 -7 -104.5 -21s-53.834 -36.667 -66.501 -68h-2v81h-80
v-688z" />
    <glyph glyph-name="q" unicode="q" horiz-adv-x="791" 
d="M624 204c0 -30.667 -4.5 -55.332 -13.5 -73.999s-21 -33 -36 -43s-32.667 -16.667 -53 -20s-41.833 -5 -64.5 -5h-153c-25.333 0 -47.833 1.83301 -67.5 5.5s-36.334 10.5 -50.001 20.5s-24.167 24.167 -31.5 42.5s-11 42.166 -11 71.499v100
c0 24.667 2.33301 46.167 7 64.5s12.667 33.5 24 45.5s27 21 47 27s45 9 75 9h171c56.667 0 96.834 -13.5 120.501 -40.5s35.5 -62.5 35.5 -106.5v-97zM624 -177.998h86.0029v688h-80v-81h-2c-12.667 31.333 -34.834 54 -66.501 68s-66.5 21 -104.5 21h-163
c-30.667 0 -60.167 -3 -88.5 -9s-53.5 -16.833 -75.5 -32.5s-39.5 -37.5 -52.5 -65.5s-19.5 -64 -19.5 -108v-90c0 -41.333 4.66699 -76 14 -104s24.166 -50.667 44.499 -68s46.333 -29.833 78 -37.5s69.5 -11.5 113.5 -11.5h164c46 0 80.167 6 102.5 18
s38.166 31.333 47.499 58h2v-246z" />
    <glyph glyph-name="r" unicode="r" horiz-adv-x="642" 
d="M88 0h85.999v324c0 16.667 2.83301 32.5 8.5 47.5s14 28.167 25 39.5s25 20.333 42 27s36.833 10 59.5 10h53c38 0 68.833 -1.66699 92.5 -5s41.834 -10.166 54.501 -20.499s21.167 -25.166 25.5 -44.499s6.5 -44.666 6.5 -75.999v-22h80v61
c0 31.333 -3.66699 58.166 -11 80.499s-19.333 40.666 -36 54.999s-38.667 24.833 -66 31.5s-61 10 -101 10h-81c-14.667 0 -29.5 -1.16699 -44.5 -3.5s-29.5 -6.5 -43.5 -12.5s-26.833 -14.333 -38.5 -25s-21.5 -24.334 -29.5 -41.001h-2v74h-80v-510z" />
    <glyph glyph-name="s" unicode="s" horiz-adv-x="765" 
d="M62 145c0 -38 6.83301 -67.5029 20.5 -88.5029s32 -36.167 55 -45.5s49.167 -14.833 78.5 -16.5s60 -2.5 92 -2.5h158c26 0 53 1 81 3s53.5 7.83301 76.5 17.5s42 24.334 57 44.001s22.5 47.5 22.5 83.5v2c0 34.667 -5.33301 62 -16 82s-25.5 35.167 -44.5 45.5
s-41.833 16.833 -68.5 19.5s-56 4 -88 4h-227c-22.667 0 -40.834 1.5 -54.501 4.5s-24.167 7.33301 -31.5 13s-12.166 12.5 -14.499 20.5s-3.5 17.333 -3.5 28v19c0 14.667 2 26.5 6 35.5s11.5 16 22.5 21s26.333 8.5 46 10.5s44.834 3 75.501 3h150
c23.333 0 44.166 -0.5 62.499 -1.5s33.666 -4 45.999 -9s21.666 -13 27.999 -24s9.5 -26.167 9.5 -45.5v-5h80v27c0 18 -2.5 34.833 -7.5 50.5s-15.167 29.167 -30.5 40.5s-37.5 20.333 -66.5 27s-67.833 10 -116.5 10h-132c-53.333 0 -96.666 -2.83301 -129.999 -8.5
s-59.666 -14 -78.999 -25s-32.5 -24.5 -39.5 -40.5s-10.5 -34.333 -10.5 -55v-30c0 -48.667 12.5 -83.5 37.5 -104.5s67.833 -31.5 128.5 -31.5h265c26 0 46.667 -1.66699 62 -5s27 -8.16602 35 -14.499s13.333 -14.333 16 -24s4 -20.5 4 -32.5v-4
c0 -19.333 -2.83301 -34.333 -8.5 -45s-15 -18.667 -28 -24s-30.5 -8.66602 -52.5 -9.99902s-49 -2 -81 -2h-184c-44 0 -75.167 6.83301 -93.5 20.5s-27.5 36.5 -27.5 68.5v25h-80v-31z" />
    <glyph glyph-name="t" unicode="t" horiz-adv-x="593" 
d="M127 153c0 -20.667 2.83008 -40.666 8.49707 -59.999s15.834 -36.5 30.501 -51.5s35 -27 61 -36s59 -13.5 99 -13.5h47c46.667 0 83 4.66699 109 14s45.5 22.333 58.5 39s21 36.167 24 58.5s4.5 46.166 4.5 71.499v56h-70v-38c0 -26.667 -1.5 -48.5 -4.5 -65.5
s-9.16699 -30.333 -18.5 -40s-22.666 -16.334 -39.999 -20.001s-40.333 -5.5 -69 -5.5h-27c-23.333 0 -43.166 2 -59.499 6s-29.5 10.833 -39.5 20.5s-17.167 22.334 -21.5 38.001s-6.5 35.5 -6.5 59.5v254h341v70h-341v121h-86v-121h-112v-70h112v-287z" />
    <glyph glyph-name="u" unicode="u" horiz-adv-x="791" 
d="M630 0h80.001v510h-86v-290c0 -30 -3.5 -55.167 -10.5 -75.5s-19.667 -36.5 -38 -48.5s-43.5 -20.667 -75.5 -26s-73 -8 -123 -8h-22c-42 0 -75.333 3 -100 9s-43.5 14.333 -56.5 25s-21.5 23.667 -25.5 39s-6 32.333 -6 51v324h-86v-345c0 -23.333 3.5 -45.333 10.5 -66
s18.667 -39 35 -55s38.166 -28.667 65.499 -38s61 -14 101 -14h129c26.667 0 51 1.33301 73 4s41.5 7.5 58.5 14.5s31.667 16.667 44 29s22.5 28.5 30.5 48.5h2v-88z" />
    <glyph glyph-name="v" unicode="v" horiz-adv-x="690" 
d="M294 0h102l288 510h-91l-248 -440l-248 440h-91z" />
    <glyph glyph-name="w" unicode="w" horiz-adv-x="1042" 
d="M239 0h119l163 440l163 -440h119l232 510h-91l-199 -440l-162 440h-124l-162 -440l-199 440h-91z" />
    <glyph glyph-name="x" unicode="x" horiz-adv-x="690" 
d="M5 0h123l217 221l217 -221h123l-279 272l242 238h-118l-185 -187l-185 187h-118l242 -238z" />
    <glyph glyph-name="y" unicode="y" horiz-adv-x="667" 
d="M109 -190c44 0.666992 80.166 2.66992 108.499 6.00293s52 9.66602 71 18.999s34.833 22.166 47.5 38.499s25.667 37.5 39 63.5l288 573h-93l-222 -451l-247 451h-97l289 -518h21c-11.333 -26 -22.166 -46.333 -32.499 -61s-22.833 -25.834 -37.5 -33.501
s-32.667 -12.5 -54 -14.5s-48.333 -3 -81 -3v-70z" />
    <glyph glyph-name="z" unicode="z" horiz-adv-x="667" 
d="M45 0h577v70h-459v2l453 368v70h-556v-70h438v-2l-453 -368v-70z" />
    <glyph glyph-name="braceleft" unicode="{" horiz-adv-x="370" 
d="M46 327c10 0 20.167 -2.5 30.5 -7.5s19.666 -12.167 27.999 -21.5s15.166 -20.833 20.499 -34.5s8 -29.5 8 -47.5v-84c0 -22 3.66699 -41.167 11 -57.5s16.5 -30 27.5 -41s23.167 -19.333 36.5 -25s26 -8.5 38 -8.5h78v70h-55c-10 0 -18.333 2.33301 -25 7
s-11.834 10.834 -15.501 18.501s-6.16699 16.167 -7.5 25.5s-2 19 -2 29v80c0 25.333 -3.5 46.166 -10.5 62.499s-15.5 29.333 -25.5 39s-20.333 16.667 -31 21s-19.334 7.16602 -26.001 8.49902v2c6.66699 1.33301 15.334 4.33301 26.001 9s21 11.834 31 21.501
s18.5 22.167 25.5 37.5s10.5 34.666 10.5 57.999v85c0 10 0.666992 19.667 2 29s3.83301 17.833 7.5 25.5s8.83398 13.834 15.501 18.501s15 7 25 7h55v70h-78c-12 0 -24.667 -2.83301 -38 -8.5s-25.5 -14 -36.5 -25s-20.167 -24.667 -27.5 -41s-11 -35.5 -11 -57.5v-89
c0 -16.667 -2.66699 -31.5 -8 -44.5s-12.166 -24 -20.499 -33s-17.666 -16 -27.999 -21s-20.5 -7.5 -30.5 -7.5v-70z" />
    <glyph glyph-name="bar" unicode="|" horiz-adv-x="222" 
d="M71 -8h80v740h-80v-740z" />
    <glyph glyph-name="braceright" unicode="}" horiz-adv-x="370" 
d="M46 0l78 0.00292969c12 0 24.667 2.83301 38 8.5s25.5 14 36.5 25s20.167 24.667 27.5 41s11 35.5 11 57.5v89c0 16.667 2.66699 31.5 8 44.5s12.166 24 20.499 33s17.666 16 27.999 21s20.5 7.5 30.5 7.5v70c-10 0 -20.167 2.5 -30.5 7.5s-19.666 12.167 -27.999 21.5
s-15.166 20.833 -20.499 34.5s-8 29.5 -8 47.5v84c0 22 -3.66699 41.167 -11 57.5s-16.5 30 -27.5 41s-23.167 19.333 -36.5 25s-26 8.5 -38 8.5h-78v-70h55c10 0 18.333 -2.33301 25 -7s11.834 -10.834 15.501 -18.501s6.16699 -16.167 7.5 -25.5s2 -19 2 -29v-80
c0 -25.333 3.5 -46.166 10.5 -62.499s15.5 -29.333 25.5 -39s20.333 -16.667 31 -21s19.334 -7.16602 26.001 -8.49902v-2c-6.66699 -1.33301 -15.334 -4.33301 -26.001 -9s-21 -11.834 -31 -21.501s-18.5 -22.334 -25.5 -38.001s-10.5 -34.834 -10.5 -57.501v-85
c0 -10 -0.666992 -19.667 -2 -29s-3.83301 -17.833 -7.5 -25.5s-8.83398 -13.834 -15.501 -18.501s-15 -7 -25 -7h-55v-70z" />
    <glyph glyph-name="asciitilde" unicode="~" horiz-adv-x="600" 
d="M105 179l18 26c6 8.66699 12.5 16.5 19.5 23.5s14.667 12.667 23 17s17.5 6.5 27.5 6.5c12 0 26.333 -3.5 43 -10.5s34.667 -15.167 54 -24.5c18.667 -8.66699 37.834 -16.167 57.501 -22.5s39.167 -9.5 58.5 -9.5c16.667 0 31.5 2.33301 44.5 7s24.5 11 34.5 19
s18.833 17 26.5 27s14.167 20.333 19.5 31l-36 59l-18 -26c-6 -8.66699 -12.5 -16.5 -19.5 -23.5s-14.667 -12.667 -23 -17s-17.5 -6.5 -27.5 -6.5c-12 0 -26.333 3.5 -43 10.5s-34.667 15.167 -54 24.5c-18.667 8.66699 -37.834 16.167 -57.501 22.5s-39.167 9.5 -58.5 9.5
c-16.667 0 -31.5 -2.33301 -44.5 -7s-24.5 -11 -34.5 -19s-18.833 -17 -26.5 -27s-14.167 -20.333 -19.5 -31z" />
    <glyph glyph-name="exclamdown" unicode="&#xa1;" horiz-adv-x="482" 
d="M185 386h112v124h-112v-124zM201 -214h80v514h-80v-514z" />
    <glyph glyph-name="cent" unicode="&#xa2;" horiz-adv-x="964" 
d="M398 63c-22 1.33301 -42.001 4.50098 -60.001 9.50098s-33.333 12.833 -46 23.5s-22.5 24.5 -29.5 41.5s-10.5 38.5 -10.5 64.5v107c0 32 4.33301 57.167 13 75.5s20.334 32.166 35.001 41.499s31.5 15.333 50.5 18s38.5 4 58.5 4h100zM340.999 -132.999
l75.999 -0.00195312l36 125h121c40 0 74.167 3.33301 102.5 10s51.5 17.167 69.5 31.5s31.167 32.833 39.5 55.5s12.5 50 12.5 82v15h-80v-15c0 -20 -3.66699 -36.833 -11 -50.5s-17.666 -24.834 -30.999 -33.501s-29 -15 -47 -19s-37.333 -6 -58 -6h-98l111 385
c38.667 -1.33301 69.167 -9.16602 91.5 -23.499s33.5 -41.166 33.5 -80.499v-12h80v14c0 52 -15.333 93 -46 123s-77 46.333 -139 49l37 126h-76l-36 -125h-133c-24 0 -49.5 -2 -76.5 -6s-51.833 -13.167 -74.5 -27.5s-41.5 -35.166 -56.5 -62.499s-22.5 -64 -22.5 -110
v-114c0 -45.333 7.33301 -81.5 22 -108.5s32.667 -47.667 54 -62s44.333 -23.833 69 -28.5s46.667 -7 66 -7z" />
    <glyph glyph-name="sterling" unicode="&#xa3;" horiz-adv-x="964" 
d="M64 0l836 -0.000976562v80h-672v2c10 5.33301 18.333 10.333 25 15s12 11.834 16 21.501s6.83301 22.834 8.5 39.501s2.5 40 2.5 70v72h371v70h-371v184c0 39.333 10.833 65.5 32.5 78.5s56.5 19.5 104.5 19.5h217c37.333 0 66.666 -2.33301 87.999 -7
s37.5 -12.5 48.5 -23.5s17.833 -25.667 20.5 -44s4 -40.833 4 -67.5h86c0 48 -4.5 86.5 -13.5 115.5s-23.5 51.333 -43.5 67s-46.167 26.167 -78.5 31.5s-71.5 8 -117.5 8h-230c-31.333 0 -59.833 -2.33301 -85.5 -7s-47.667 -13.334 -66 -26.001s-32.666 -30 -42.999 -52
s-15.5 -50.333 -15.5 -85v-192h-124v-70h124v-98c0 -20 -1.83301 -37.5 -5.5 -52.5s-10 -27.5 -19 -37.5s-21.667 -17.667 -38 -23s-36.833 -8.33301 -61.5 -9v-80z" />
    <glyph glyph-name="currency" unicode="&#xa4;" horiz-adv-x="964" 
d="M227 158l50.999 -51.001l57 57c19.333 -15.333 41.666 -27.5 66.999 -36.5s52 -13.5 80 -13.5s54.333 4.33301 79 13s47.334 21 68.001 37l57 -57l51 51l-57 57c16 20.667 28.333 43.334 37 68.001s13 51 13 79s-4.33301 54.333 -13 79s-21 47.334 -37 68.001l57 57
l-51 51l-57 -57c-21.333 16 -44.166 28.333 -68.499 37s-50.5 13 -78.5 13s-54.333 -4.33301 -79 -13s-47.667 -20.667 -69 -36l-56 56l-51 -51l56 -56c-15.333 -21.333 -27.333 -44.333 -36 -69s-13 -51 -13 -79s4.33301 -54.333 13 -79s21 -47.334 37 -68.001z
M313.999 361.999c0 24.667 4.16699 47.667 12.5 69s19.833 39.666 34.5 54.999s32.334 27.5 53.001 36.5s43.334 13.5 68.001 13.5s47.334 -4.5 68.001 -13.5s38.334 -21.167 53.001 -36.5s26.167 -33.666 34.5 -54.999s12.5 -44.333 12.5 -69s-4.16699 -47.667 -12.5 -69
s-19.833 -39.666 -34.5 -54.999s-32.334 -27.5 -53.001 -36.5s-43.334 -13.5 -68.001 -13.5s-47.334 4.5 -68.001 13.5s-38.334 21.167 -53.001 36.5s-26.167 33.666 -34.5 54.999s-12.5 44.333 -12.5 69z" />
    <glyph glyph-name="yen" unicode="&#xa5;" horiz-adv-x="964" 
d="M439 0h86v144h224v64h-224v92h224v64h-166l321 360h-106l-316 -356l-316 356h-106l321 -360h-166v-64h224v-92h-224v-64h224v-144z" />
    <glyph glyph-name="brokenbar" unicode="&#xa6;" horiz-adv-x="222" 
d="M71 -8h80v277h-80v-277zM71 455h80v277h-80v-277z" />
    <glyph glyph-name="section" unicode="&#xa7;" horiz-adv-x="815" 
d="M132 119c0 -40 11.0039 -71.168 33.0039 -93.501s57.333 -33.5 106 -33.5h247c25.333 0 48.166 1 68.499 3s37.666 7.5 51.999 16.5s25.333 23 33 42s11.5 45.167 11.5 78.5c0 12.667 -0.333008 24.334 -1 35.001s-2.66699 20.5 -6 29.5s-8.83301 17.5 -16.5 25.5
s-18.5 15.667 -32.5 23c65.333 18.667 98 59 98 121c0 38.667 -10.833 66.834 -32.5 84.501s-52.5 30.167 -92.5 37.5l-317 62c-22 4.66699 -39.5 10.5 -52.5 17.5s-19.5 19.5 -19.5 37.5c0 16.667 1.83301 29.667 5.5 39s9.5 16.166 17.5 20.499s18.333 7 31 8
s28 1.5 46 1.5h200c8.66699 0 17.5 -0.5 26.5 -1.5s17.167 -3.66699 24.5 -8s13.333 -10.666 18 -18.999s7 -19.5 7 -33.5v-17h70v27c0 16 -1.66699 30.667 -5 44s-10.166 25 -20.499 35s-24.833 17.667 -43.5 23s-43.334 8 -74.001 8h-244c-28 0 -51 -3.5 -69 -10.5
s-32.167 -16.333 -42.5 -28s-17.5 -25.334 -21.5 -41.001s-6 -32.167 -6 -49.5c0 -21.333 4.33301 -41.666 13 -60.999s21.667 -34.666 39 -45.999c-36.667 -9.33301 -61.334 -24 -74.001 -44s-19 -42.667 -19 -68c0 -19.333 3.16699 -36.166 9.5 -50.499
s14.666 -26.5 24.999 -36.5s22.333 -18 36 -24s27.5 -10.333 41.5 -13l340 -63c11.333 -2 21 -4.33301 29 -7s14.333 -6.33398 19 -11.001s8 -10.834 10 -18.501s3 -17.834 3 -30.501c0 -15.333 -1.16699 -27.666 -3.5 -36.999s-6.5 -16.833 -12.5 -22.5
s-14.5 -9.5 -25.5 -11.5s-25.167 -3 -42.5 -3h-168c-33.333 0 -59.333 0.833008 -78 2.5s-32.5 5.5 -41.5 11.5s-14.5 15.167 -16.5 27.5s-3 29.166 -3 50.499h-80v-29zM593.004 412.999c15.333 -3.33301 29.499 -9.83203 42.499 -19.499s19.5 -24.167 19.5 -43.5
c0 -15.333 -2.66699 -28 -8 -38s-12.166 -18.333 -20.499 -25s-17.333 -11.334 -27 -14.001s-18.834 -4 -27.501 -4c-1.33301 0 -6.16602 0.666992 -14.499 2s-17.833 3 -28.5 5l-278 56c-8 1.33301 -16.667 3.33301 -26 6s-18 6.5 -26 11.5s-14.833 11.5 -20.5 19.5
s-8.5 18 -8.5 30s2.83301 23.333 8.5 34s13 19.5 22 26.5s19 12.167 30 15.5s21.833 4 32.5 2z" />
    <glyph glyph-name="dieresis" unicode="&#xa8;" 
d="M-12 602h86v112h-86v-112zM198 602h86v112h-86v-112z" />
    <glyph glyph-name="copyright" unicode="&#xa9;" horiz-adv-x="800" 
d="M519 299c-4 -30 -15.3311 -52.6699 -33.998 -68.0029s-42.334 -23 -71.001 -23c-20 0 -38 3.83301 -54 11.5s-29.667 18.334 -41 32.001s-20.166 29.834 -26.499 48.501s-9.5 39 -9.5 61c0 46 11 83.667 33 113s54 44 96 44c27.333 0 50.666 -7.5 69.999 -22.5
s31.666 -35.833 36.999 -62.5h73c-3.33301 24 -10.333 45.333 -21 64s-24 34.167 -40 46.5s-34.333 21.833 -55 28.5s-42.334 10 -65.001 10c-32.667 0 -61.834 -5.5 -87.501 -16.5s-47.5 -26.167 -65.5 -45.5s-31.667 -42.333 -41 -69s-14 -56 -14 -88
c0 -31.333 5 -60.333 15 -87s24.167 -49.667 42.5 -69s40.5 -34.666 66.5 -45.999s55 -17 87 -17c44.667 0 83.834 13.5 117.501 40.5s54.834 65.167 63.501 114.5h-76zM30.002 361.997c0 -51.333 9.66699 -99.333 29 -144s45.833 -83.834 79.5 -117.501
s72.834 -60.167 117.501 -79.5s92.667 -29 144 -29c50.667 0 98.5 9.66699 143.5 29s84.333 45.833 118 79.5s60.167 72.834 79.5 117.501s29 92.667 29 144c0 50.667 -9.66699 98.5 -29 143.5s-45.833 84.333 -79.5 118s-73 60.167 -118 79.5s-92.833 29 -143.5 29
c-51.333 0 -99.333 -9.66699 -144 -29s-83.834 -45.833 -117.501 -79.5s-60.167 -73 -79.5 -118s-29 -92.833 -29 -143.5zM100.002 361.997c0 41.333 7.83301 80.333 23.5 117s37 68.5 64 95.5s58.833 48.333 95.5 64s75.667 23.5 117 23.5s80.333 -7.83301 117 -23.5
s68.5 -37 95.5 -64s48.333 -58.833 64 -95.5s23.5 -75.667 23.5 -117s-7.83301 -80.333 -23.5 -117s-37 -68.5 -64 -95.5s-58.833 -48.333 -95.5 -64s-75.667 -23.5 -117 -23.5s-80.333 7.83301 -117 23.5s-68.5 37 -95.5 64s-48.333 58.833 -64 95.5
s-23.5 75.667 -23.5 117z" />
    <glyph glyph-name="ordfeminine" unicode="&#xaa;" horiz-adv-x="497" 
d="M402 421h54.998v206c0 26 -5.83301 46.167 -17.5 60.5s-26 24.833 -43 31.5s-34.667 10.5 -53 11.5s-34.5 1.5 -48.5 1.5h-114c-26 0 -47.167 -2.16699 -63.5 -6.5s-29 -10.166 -38 -17.499s-15.167 -15.666 -18.5 -24.999s-5 -19.333 -5 -30v-15h58
c0 4.66699 0.666992 9.5 2 14.5s4.33301 9.5 9 13.5s11.5 7.33301 20.5 10s21.167 4 36.5 4h111c31.333 0 55.833 -3.83301 73.5 -11.5s26.5 -24.834 26.5 -51.501v-47h-2c-9.33301 13.333 -21.666 22.5 -36.999 27.5s-38.666 7.5 -69.999 7.5h-136
c-14.667 0 -28.5 -1.16699 -41.5 -3.5s-24.5 -6.33301 -34.5 -12s-17.833 -13.5 -23.5 -23.5s-8.5 -22.667 -8.5 -38v-20c0 -29.333 7.16699 -52 21.5 -68s42.5 -24 84.5 -24h137c41.333 0 69.666 2.66699 84.999 8c8.66699 2.66699 15.334 6.16699 20.001 10.5
s8.66699 10.166 12 17.499h2v-31zM286.998 559c15.333 0 29.501 -0.5 42.501 -1.5s24.167 -3.16699 33.5 -6.5s16.666 -8.33301 21.999 -15s8 -15.667 8 -27c0 -20.667 -10.333 -33.667 -31 -39s-48.667 -8 -84 -8h-113c-27.333 0 -45.333 4.5 -54 13.5s-13 20.5 -13 34.5
c0 17.333 5.5 29.833 16.5 37.5s30.167 11.5 57.5 11.5h115z" />
    <glyph glyph-name="guillemotleft" unicode="&#xab;" horiz-adv-x="519" 
d="M356 111h83l-109 154l109 154h-83l-109 -154zM189 111h83l-109 154l109 154h-83l-109 -154z" />
    <glyph glyph-name="logicalnot" unicode="&#xac;" horiz-adv-x="600" 
d="M483 111h70v281h-506v-70h436v-211z" />
    <glyph glyph-name="registered" unicode="&#xae;" horiz-adv-x="800" 
d="M30 362c0 -51.333 9.66699 -99.333 29 -144s45.833 -83.834 79.5 -117.501s72.834 -60.167 117.501 -79.5s92.667 -29 144 -29c50.667 0 98.5 9.66699 143.5 29s84.333 45.833 118 79.5s60.167 72.834 79.5 117.501s29 92.667 29 144c0 50.667 -9.66699 98.5 -29 143.5
s-45.833 84.333 -79.5 118s-73 60.167 -118 79.5s-92.833 29 -143.5 29c-51.333 0 -99.333 -9.66699 -144 -29s-83.834 -45.833 -117.501 -79.5s-60.167 -73 -79.5 -118s-29 -92.833 -29 -143.5zM100 362c0 41.333 7.83301 80.333 23.5 117s37 68.5 64 95.5
s58.833 48.333 95.5 64s75.667 23.5 117 23.5s80.333 -7.83301 117 -23.5s68.5 -37 95.5 -64s48.333 -58.833 64 -95.5s23.5 -75.667 23.5 -117s-7.83301 -80.333 -23.5 -117s-37 -68.5 -64 -95.5s-58.833 -48.333 -95.5 -64s-75.667 -23.5 -117 -23.5
s-80.333 7.83301 -117 23.5s-68.5 37 -95.5 64s-48.333 58.833 -64 95.5s-23.5 75.667 -23.5 117zM258 153h70v180h61l105 -180h80l-115 183c32.667 3.33301 59.5 13.5 80.5 30.5s31.5 44.5 31.5 82.5c0 44 -13.333 75.5 -40 94.5s-66 28.5 -118 28.5h-155v-419zM328 391
l0.000976562 122.999h85c10 0 20.333 -0.666992 31 -2s20.167 -4.16602 28.5 -8.49902s15.166 -10.333 20.499 -18s8 -17.834 8 -30.501c0 -14 -2.33301 -25.333 -7 -34s-11 -15.167 -19 -19.5s-17.5 -7.16602 -28.5 -8.49902s-22.5 -2 -34.5 -2h-84z" />
    <glyph glyph-name="macron" unicode="&#xaf;" 
d="M-61 637h394v64h-394v-64z" />
    <glyph glyph-name="macron" unicode="&#x2c9;" 
d="M-61 637h394v64h-394v-64z" />
    <glyph glyph-name="degree" unicode="&#xb0;" horiz-adv-x="400" 
d="M200 446c20 0 38.667 3.66699 56 11s32.5 17.5 45.5 30.5s23.167 28.167 30.5 45.5s11 36 11 56s-3.66699 38.667 -11 56s-17.5 32.5 -30.5 45.5s-28.167 23.167 -45.5 30.5s-36 11 -56 11s-38.667 -3.66699 -56 -11s-32.5 -17.5 -45.5 -30.5
s-23.167 -28.167 -30.5 -45.5s-11 -36 -11 -56s3.66699 -38.667 11 -56s17.5 -32.5 30.5 -45.5s28.167 -23.167 45.5 -30.5s36 -11 56 -11zM115 589c0 23.333 8.33301 43.333 25 60s36.667 25 60 25s43.333 -8.33301 60 -25s25 -36.667 25 -60s-8.33301 -43.333 -25 -60
s-36.667 -25 -60 -25s-43.333 8.33301 -60 25s-25 36.667 -25 60z" />
    <glyph glyph-name="plusminus" unicode="&#xb1;" horiz-adv-x="600" 
d="M265 123h70v157h218v70h-218v156h-70v-156h-218v-70h218v-157zM47 0h506v75h-506v-75z" />
    <glyph glyph-name="uni00B2" unicode="&#xb2;" horiz-adv-x="626" 
d="M48 293l530.001 0.00195312v58h-460v28c0 11.333 1.16699 21 3.5 29s7.66602 14.833 15.999 20.5s20.5 10 36.5 13s37.333 5.5 64 7.5l170 11c30 2 55.5 4.83301 76.5 8.5s38.167 10 51.5 19s23 21.667 29 38s9 37.833 9 64.5c0 21.333 -2 40.833 -6 58.5
s-11.667 32.667 -23 45s-27.5 21.833 -48.5 28.5s-48.5 10 -82.5 10h-198c-56.667 0 -98.5 -9.16699 -125.5 -27.5s-40.5 -50.5 -40.5 -96.5v-41h70v14c0 21.333 2.33301 38.166 7 50.499s11.667 21.666 21 27.999s20.5 10.333 33.5 12s28.167 2.5 45.5 2.5h178
c20.667 0 37.5 -1.83301 50.5 -5.5s23.167 -9.16699 30.5 -16.5s12.166 -16.333 14.499 -27s3.5 -23.334 3.5 -38.001s-1.16699 -26.334 -3.5 -35.001s-9.16602 -15.667 -20.499 -21s-28.5 -9.5 -51.5 -12.5s-55.167 -5.83301 -96.5 -8.5l-128 -8
c-26 -2 -48.833 -5.16699 -68.5 -9.5s-36 -11.166 -49 -20.499s-22.667 -21.666 -29 -36.999s-9.5 -35 -9.5 -59v-83z" />
    <glyph glyph-name="uni00B3" unicode="&#xb3;" horiz-adv-x="626" 
d="M40 397c0 -20 2.83203 -37.165 8.49902 -51.498s15 -26 28 -35s30.333 -15.5 52 -19.5s48.5 -6 80.5 -6h199c40.667 0 72.5 2.83301 95.5 8.5s40 14 51 25s17.667 24.333 20 40s3.5 33.5 3.5 53.5s-1.5 36.333 -4.5 49s-7.83301 22.667 -14.5 30
s-15.167 12.666 -25.5 15.999s-22.5 5.66602 -36.5 6.99902v2c16 3.33301 28.833 6.83301 38.5 10.5s17.167 9.16699 22.5 16.5s8.83301 17.166 10.5 29.499s2.5 28.5 2.5 48.5c0 19.333 -2.33301 36 -7 50s-13.167 25.5 -25.5 34.5s-29 15.667 -50 20s-47.5 6.5 -79.5 6.5
h-233c-46 0 -79.667 -8.66699 -101 -26s-32 -43.666 -32 -78.999v-29h70v20c0 20.667 8.16699 35.167 24.5 43.5s45.833 12.5 88.5 12.5h163c24 0 43.333 -0.666992 58 -2s26 -4.5 34 -9.5s13.333 -12 16 -21s4 -20.833 4 -35.5c0 -10.667 -0.5 -20 -1.5 -28
s-4.16699 -14.5 -9.5 -19.5s-13.666 -8.66699 -24.999 -11s-27.333 -3.5 -48 -3.5h-171v-58h186c14 0 25.833 -0.5 35.5 -1.5s17.5 -3.83301 23.5 -8.5s10.333 -11.667 13 -21s4 -22 4 -38c0 -18 -1.5 -32 -4.5 -42s-9.16699 -17.333 -18.5 -22s-23 -7.5 -41 -8.5
s-42.333 -1.5 -73 -1.5h-161c-23.333 0 -41.5 1.66699 -54.5 5s-23 8.5 -30 15.5s-11.333 16.333 -13 28s-2.5 26.167 -2.5 43.5h-70v-38z" />
    <glyph glyph-name="acute" unicode="&#xb4;" 
d="M52 588h67l184 185h-103z" />
    <glyph glyph-name="mu" unicode="&#xb5;" horiz-adv-x="791" 
d="M630 0h80v510h-86v-290c0 -30 -3.5 -55.167 -10.5 -75.5s-19.667 -36.5 -38 -48.5s-43.5 -20.667 -75.5 -26s-73 -8 -123 -8h-22c-42 0 -75.333 3 -100 9s-43.5 14.333 -56.5 25s-21.5 23.667 -25.5 39s-6 32.333 -6 51v324h-86v-688h86v195
c13.333 -7.33301 30.5 -13.333 51.5 -18s45.833 -7 74.5 -7h129c26.667 0 51 1.33301 73 4s41.5 7.5 58.5 14.5s31.667 16.667 44 29s22.5 28.5 30.5 48.5h2v-88z" />
    <glyph glyph-name="mu" unicode="&#x3bc;" horiz-adv-x="791" 
d="M630 0h80v510h-86v-290c0 -30 -3.5 -55.167 -10.5 -75.5s-19.667 -36.5 -38 -48.5s-43.5 -20.667 -75.5 -26s-73 -8 -123 -8h-22c-42 0 -75.333 3 -100 9s-43.5 14.333 -56.5 25s-21.5 23.667 -25.5 39s-6 32.333 -6 51v324h-86v-688h86v195
c13.333 -7.33301 30.5 -13.333 51.5 -18s45.833 -7 74.5 -7h129c26.667 0 51 1.33301 73 4s41.5 7.5 58.5 14.5s31.667 16.667 44 29s22.5 28.5 30.5 48.5h2v-88z" />
    <glyph glyph-name="paragraph" unicode="&#xb6;" horiz-adv-x="600" 
d="M410 0l80 -0.00195312v724h-248c-28.667 0 -54.667 -2.83301 -78 -8.5s-43.5 -14.667 -60.5 -27s-30.167 -28.666 -39.5 -48.999s-14 -45.166 -14 -74.499c0 -47.333 15.833 -85 47.5 -113s74.5 -42 128.5 -42v-410h80v660h104v-660z" />
    <glyph glyph-name="periodcentered" unicode="&#xb7;" horiz-adv-x="482" 
d="M241 375c20 0 37.333 -7.33301 52 -22s22 -32 22 -52s-7.33301 -37.333 -22 -52s-32 -22 -52 -22s-37.333 7.33301 -52 22s-22 32 -22 52c0 10 2 19.333 6 28s9.33301 16.5 16 23.5s14.5 12.5 23.5 16.5s18.5 6 28.5 6z" />
    <glyph glyph-name="periodcentered" unicode="&#x2219;" horiz-adv-x="482" 
d="M241 375c20 0 37.333 -7.33301 52 -22s22 -32 22 -52s-7.33301 -37.333 -22 -52s-32 -22 -52 -22s-37.333 7.33301 -52 22s-22 32 -22 52c0 10 2 19.333 6 28s9.33301 16.5 16 23.5s14.5 12.5 23.5 16.5s18.5 6 28.5 6z" />
    <glyph glyph-name="cedilla" unicode="&#xb8;" 
d="M12 -252c19.333 -8 38.999 -14.5 58.999 -19.5s40.667 -7.5 62 -7.5c16.667 0 33.834 1.83301 51.501 5.5s33.667 9.83398 48 18.501s26 20 35 34s13.5 31 13.5 51c0 32 -10.5 56 -31.5 72s-46.5 24 -76.5 24c-7.33301 0 -14.833 -0.833008 -22.5 -2.5
s-14.5 -3.5 -20.5 -5.5l-2 2l65 80h-51l-83 -112l21 -18c10 2 19.333 4.16699 28 6.5s17.667 3.5 27 3.5c16 0 31 -4.16699 45 -12.5s21 -22.166 21 -41.499c0 -11.333 -2.66699 -20.833 -8 -28.5s-12.333 -13.834 -21 -18.501s-18 -7.83398 -28 -9.50098
s-19.667 -2.5 -29 -2.5c-28.667 0 -56.667 6.33301 -84 19z" />
    <glyph glyph-name="uni00B9" unicode="&#xb9;" horiz-adv-x="626" 
d="M321 293h70v434h-76l-191 -141l36 -49l161 120v-364z" />
    <glyph glyph-name="ordmasculine" unicode="&#xba;" horiz-adv-x="530" 
d="M42 540c0 -25.333 4.5 -46 13.5 -62s21.667 -28.5 38 -37.5s35.666 -15.333 57.999 -19s46.833 -5.5 73.5 -5.5h80c26.667 0 51.167 1.83301 73.5 5.5s41.666 10 57.999 19s29 21.5 38 37.5s13.5 36.667 13.5 62v68c0 24.667 -4.5 45.167 -13.5 61.5s-21.667 29 -38 38
s-35.666 15.333 -57.999 19s-46.833 5.5 -73.5 5.5h-80c-26.667 0 -51.167 -1.83301 -73.5 -5.5s-41.666 -10 -57.999 -19s-29 -21.667 -38 -38s-13.5 -36.833 -13.5 -61.5v-68zM424 553c0 -18 -2.66699 -32.5 -8 -43.5s-13 -19.5 -23 -25.5s-21.833 -10.167 -35.5 -12.5
s-28.5 -3.5 -44.5 -3.5h-97c-16 0 -30.833 1.16699 -44.5 3.5s-25.334 6.5 -35.001 12.5s-17.167 14.5 -22.5 25.5s-8 25.5 -8 43.5v42c0 18 2.66699 32.5 8 43.5s12.833 19.5 22.5 25.5s21.334 10.167 35.001 12.5s28.5 3.5 44.5 3.5h97c16 0 30.833 -1.16699 44.5 -3.5
s25.5 -6.5 35.5 -12.5s17.667 -14.5 23 -25.5s8 -25.5 8 -43.5v-42z" />
    <glyph glyph-name="guillemotright" unicode="&#xbb;" horiz-adv-x="519" 
d="M80 111h83l109 154l-109 154h-83l109 -154zM247 111h83l109 154l-109 154h-83l109 -154z" />
    <glyph glyph-name="onequarter" unicode="&#xbc;" horiz-adv-x="1444" 
d="M745 89h410v-89h70v89h75v58h-75v287h-83l-397 -273v-72zM1155 147h-330v2l330 227v-229zM340 -8h83l581 740h-83zM341 293h70v434h-76l-191 -141l36 -49l161 120v-364z" />
    <glyph glyph-name="onehalf" unicode="&#xbd;" horiz-adv-x="1444" 
d="M260 -8h83l581 740h-83zM341 293h70v434h-76l-191 -141l36 -49l161 120v-364zM747 0h530.002v58h-460v28c0 11.333 1.16699 21 3.5 29s7.66602 14.833 15.999 20.5s20.5 10 36.5 13s37.333 5.5 64 7.5l170 11c30 2 55.5 4.83301 76.5 8.5s38.167 10 51.5 19
s23 21.667 29 38s9 37.833 9 64.5c0 21.333 -2 40.833 -6 58.5s-11.667 32.667 -23 45s-27.5 21.833 -48.5 28.5s-48.5 10 -82.5 10h-198c-56.667 0 -98.5 -9.16699 -125.5 -27.5s-40.5 -50.5 -40.5 -96.5v-41h70v14c0 21.333 2.33301 38.166 7 50.499
s11.667 21.666 21 27.999s20.5 10.333 33.5 12s28.167 2.5 45.5 2.5h178c20.667 0 37.5 -1.83301 50.5 -5.5s23.167 -9.16699 30.5 -16.5s12.166 -16.333 14.499 -27s3.5 -23.334 3.5 -38.001c0 -10.667 -1 -20.167 -3 -28.5s-6 -15.333 -12 -21s-14.667 -10.167 -26 -13.5
s-26.333 -5.66602 -45 -6.99902l-214 -15c-26 -2 -48.833 -5.16699 -68.5 -9.5s-36 -11.166 -49 -20.499s-22.667 -21.666 -29 -36.999s-9.5 -35 -9.5 -59v-83z" />
    <glyph glyph-name="threequarters" unicode="&#xbe;" horiz-adv-x="1444" 
d="M440 -8h83l581 740h-83zM86 397c0 -20 2.83203 -37.165 8.49902 -51.498s15 -26 28 -35s30.333 -15.5 52 -19.5s48.5 -6 80.5 -6h199c40.667 0 72.5 2.83301 95.5 8.5s40 14 51 25s17.667 24.333 20 40s3.5 33.5 3.5 53.5s-1.5 36.333 -4.5 49s-7.83301 22.667 -14.5 30
s-15.167 12.666 -25.5 15.999s-22.5 5.66602 -36.5 6.99902v2c16 3.33301 28.833 6.83301 38.5 10.5s17.167 9.16699 22.5 16.5s8.83301 17.166 10.5 29.499s2.5 28.5 2.5 48.5c0 19.333 -2.33301 36 -7 50s-13.167 25.5 -25.5 34.5s-29 15.667 -50 20s-47.5 6.5 -79.5 6.5
h-233c-46 0 -79.667 -8.66699 -101 -26s-32 -43.666 -32 -78.999v-29h70v20c0 20.667 8.16699 35.167 24.5 43.5s45.833 12.5 88.5 12.5h163c24 0 43.333 -0.666992 58 -2s26 -4.5 34 -9.5s13.333 -12 16 -21s4 -20.833 4 -35.5c0 -10.667 -0.5 -20 -1.5 -28
s-4.16699 -14.5 -9.5 -19.5s-13.666 -8.66699 -24.999 -11s-27.333 -3.5 -48 -3.5h-171v-58h186c14 0 25.833 -0.5 35.5 -1.5s17.5 -3.83301 23.5 -8.5s10.333 -11.667 13 -21s4 -22 4 -38c0 -18 -1.5 -32 -4.5 -42s-9.16699 -17.333 -18.5 -22s-23 -7.5 -41 -8.5
s-42.333 -1.5 -73 -1.5h-161c-23.333 0 -41.5 1.66699 -54.5 5s-23 8.5 -30 15.5s-11.333 16.333 -13 28s-2.5 26.167 -2.5 43.5h-70v-38zM744.999 89.002h410v-89h70v89h75v58h-75v287h-83l-397 -273v-72zM1155 147.002h-330v2l330 227v-229z" />
    <glyph glyph-name="questiondown" unicode="&#xbf;" horiz-adv-x="791" 
d="M407 267c0 -14 -4.50195 -25.3301 -13.502 -33.9971s-19.667 -15.834 -32 -21.501s-25 -9.83398 -38 -12.501s-23.833 -4.66699 -32.5 -6c-40 -6.66699 -74.667 -13.167 -104 -19.5s-53.5 -16.333 -72.5 -30s-33 -32.5 -42 -56.5s-13.5 -57 -13.5 -99
c0 -50 5.66699 -89 17 -117s30.833 -49 58.5 -63s65 -22.5 112 -25.5s106.167 -4.5 177.5 -4.5c52 0 98 0.833008 138 2.5s73.5 7.5 100.5 17.5s47.333 26 61 48s20.5 53.333 20.5 94v80h-86v-65c0 -26.667 -4.16699 -47.334 -12.5 -62.001s-22.333 -25.334 -42 -32.001
s-45.5 -10.5 -77.5 -11.5s-71.667 -1.5 -119 -1.5c-59.333 0 -106.333 1.33301 -141 4s-61 8.33398 -79 17.001s-29.5 21.5 -34.5 38.5s-7.5 40.167 -7.5 69.5c0 27.333 1.66699 48.833 5 64.5s9.83301 28.167 19.5 37.5s23.334 16.333 41.001 21s40.834 9.66699 69.501 15
c43.333 8 78.5 15.667 105.5 23s48 16.333 63 27s25.167 24.167 30.5 40.5s8 37.833 8 64.5v19h-80v-22zM390.998 386.003h112v124h-112v-124z" />
    <glyph glyph-name="Agrave" unicode="&#xc0;" horiz-adv-x="1012" 
d="M15 0h111l90 153h580l90 -153h111l-430 724h-122zM749 233h-486l243 411zM523 772h67l-148 185h-103z" />
    <glyph glyph-name="Aacute" unicode="&#xc1;" horiz-adv-x="1012" 
d="M15 0h111l90 153h580l90 -153h111l-430 724h-122zM749 233h-486l243 411zM422 772h67l184 185h-103z" />
    <glyph glyph-name="Acircumflex" unicode="&#xc2;" horiz-adv-x="1012" 
d="M15 0h111l90 153h580l90 -153h111l-430 724h-122zM749 233h-486l243 411zM314 772h78l113 139l113 -139h80l-151 185h-82z" />
    <glyph glyph-name="Atilde" unicode="&#xc3;" horiz-adv-x="1012" 
d="M15 0h111l90 153h580l90 -153h111l-430 724h-122zM749 233h-486l243 411zM664 921c-2 -8 -4.33105 -15.832 -6.99805 -23.499s-6.33398 -14.667 -11.001 -21s-10.334 -11.5 -17.001 -15.5s-14.334 -6 -23.001 -6c-13.333 0 -27.666 3.16699 -42.999 9.5
s-31.333 13.5 -48 21.5c-16 7.33301 -32.333 14.166 -49 20.499s-33.667 9.5 -51 9.5c-15.333 0 -30 -3.83301 -44 -11.5s-26.167 -17.667 -36.5 -30s-18.833 -26.166 -25.5 -41.499s-10.334 -31 -11.001 -47h50c2 8 4.33301 15.833 7 23.5s6.33398 14.667 11.001 21
s10.167 11.5 16.5 15.5s14.166 6 23.499 6c13.333 0 27.833 -3 43.5 -9s31.5 -13 47.5 -21s32.5 -15.167 49.5 -21.5s33.833 -9.5 50.5 -9.5c15.333 0 30 3.83301 44 11.5s26.167 17.667 36.5 30s18.833 26.166 25.5 41.499s10.334 31 11.001 47h-50z" />
    <glyph glyph-name="Adieresis" unicode="&#xc4;" horiz-adv-x="1012" 
d="M15 0h111l90 153h580l90 -153h111l-430 724h-122zM749 233h-486l243 411zM358 786h86v112h-86v-112zM568 786h86v112h-86v-112z" />
    <glyph glyph-name="Aring" unicode="&#xc5;" horiz-adv-x="1012" 
d="M15 0h111l90 153h580l90 -153h111l-430 724h-122zM749 233h-486l243 411zM429 907c0 21.333 7.5 39.5 22.5 54.5s33.167 22.5 54.5 22.5s39.5 -7.5 54.5 -22.5s22.5 -33.167 22.5 -54.5s-7.5 -39.5 -22.5 -54.5s-33.167 -22.5 -54.5 -22.5s-39.5 7.5 -54.5 22.5
s-22.5 33.167 -22.5 54.5zM371 907c0 -18.667 3.5 -36.167 10.5 -52.5s16.667 -30.666 29 -42.999s26.666 -22 42.999 -29s33.833 -10.5 52.5 -10.5s36.167 3.5 52.5 10.5s30.666 16.667 42.999 29s22 26.666 29 42.999s10.5 33.833 10.5 52.5s-3.5 36.167 -10.5 52.5
s-16.667 30.666 -29 42.999s-26.666 22 -42.999 29s-33.833 10.5 -52.5 10.5s-36.167 -3.5 -52.5 -10.5s-30.666 -16.667 -42.999 -29s-22 -26.666 -29 -42.999s-10.5 -33.833 -10.5 -52.5z" />
    <glyph glyph-name="AE" unicode="&#xc6;" horiz-adv-x="1259" 
d="M605 249h-321l245 395h76v-395zM20 0h110l109 169h366v-169h587v80h-489v253h458v80h-458v231h480v80h-710z" />
    <glyph glyph-name="Ccedilla" unicode="&#xc7;" horiz-adv-x="1012" 
d="M77 263c0 -46 4.16699 -85.8301 12.5 -119.497s22.5 -61.834 42.5 -84.501s46.5 -39.5 79.5 -50.5s74.167 -16.5 123.5 -16.5h370c50.667 0 92 4.33301 124 13s57 21.5 75 38.5s30.167 38.167 36.5 63.5s9.5 54.333 9.5 87v49h-92v-45c0 -24.667 -2.66699 -45 -8 -61
s-14.5 -28.833 -27.5 -38.5s-30.5 -16.5 -52.5 -20.5s-49.333 -6 -82 -6h-343c-23.333 0 -45.333 2.16699 -66 6.5s-38.667 12.166 -54 23.499s-27.5 27 -36.5 47s-13.5 45.667 -13.5 77v272c0 31.333 4.5 57 13.5 77s21.167 35.667 36.5 47s33.333 19.166 54 23.499
s42.667 6.5 66 6.5h340c22.667 0 44 -1 64 -3s37.5 -7.16699 52.5 -15.5s27 -21.166 36 -38.499s13.5 -41.333 13.5 -72v-33h86v62c0 24 -3.5 47 -10.5 69s-19.167 41.167 -36.5 57.5s-40.5 29.333 -69.5 39s-65.833 14.5 -110.5 14.5h-375
c-49.333 0 -90.5 -5.5 -123.5 -16.5s-59.5 -27.833 -79.5 -50.5s-34.167 -50.834 -42.5 -84.501s-12.5 -73.5 -12.5 -119.5v-198zM382 -251.997c19.333 -8 38.999 -14.5 58.999 -19.5s40.667 -7.5 62 -7.5c16.667 0 33.834 1.83301 51.501 5.5s33.667 9.83398 48 18.501
s26 20 35 34s13.5 31 13.5 51c0 32 -10.5 56 -31.5 72s-46.5 24 -76.5 24c-7.33301 0 -14.833 -0.833008 -22.5 -2.5s-14.5 -3.5 -20.5 -5.5l-2 2l65 80h-51l-83 -112l21 -18c10 2 19.333 4.16699 28 6.5s17.667 3.5 27 3.5c16 0 31 -4.16699 45 -12.5
s21 -22.166 21 -41.499c0 -11.333 -2.66699 -20.833 -8 -28.5s-12.333 -13.834 -21 -18.501s-18 -7.83398 -28 -9.50098s-19.667 -2.5 -29 -2.5c-28.667 0 -56.667 6.33301 -84 19z" />
    <glyph glyph-name="Egrave" unicode="&#xc8;" horiz-adv-x="864" 
d="M96 0h715v80h-617v253h589v80h-589v231h613v80h-711v-724zM449 772h67l-148 185h-103z" />
    <glyph glyph-name="Eacute" unicode="&#xc9;" horiz-adv-x="864" 
d="M96 0h715v80h-617v253h589v80h-589v231h613v80h-711v-724zM348 772h67l184 185h-103z" />
    <glyph glyph-name="Ecircumflex" unicode="&#xca;" horiz-adv-x="864" 
d="M96 0h715v80h-617v253h589v80h-589v231h613v80h-711v-724zM240 772h78l113 139l113 -139h80l-151 185h-82z" />
    <glyph glyph-name="Edieresis" unicode="&#xcb;" horiz-adv-x="864" 
d="M96 0h715v80h-617v253h589v80h-589v231h613v80h-711v-724zM284 786h86v112h-86v-112zM494 786h86v112h-86v-112z" />
    <glyph glyph-name="Igrave" unicode="&#xcc;" horiz-adv-x="296" 
d="M99 0h98v724h-98v-724zM165 772h67l-148 185h-103z" />
    <glyph glyph-name="Iacute" unicode="&#xcd;" horiz-adv-x="296" 
d="M99 0h98v724h-98v-724zM64 772h67l184 185h-103z" />
    <glyph glyph-name="Icircumflex" unicode="&#xce;" horiz-adv-x="296" 
d="M99 0h98v724h-98v-724zM-44 772h78l113 139l113 -139h80l-151 185h-82z" />
    <glyph glyph-name="Idieresis" unicode="&#xcf;" horiz-adv-x="296" 
d="M99 0h98v724h-98v-724zM0 786h86v112h-86v-112zM210 786h86v112h-86v-112z" />
    <glyph glyph-name="Eth" unicode="&#xd0;" horiz-adv-x="1061" 
d="M886 323c0 -54 -4.83105 -97.167 -14.498 -129.5s-23.334 -56.833 -41.001 -73.5s-38.834 -27.5 -63.501 -32.5s-52 -7.5 -82 -7.5h-497v253h418v80h-418v231h513c30 0 56.5 -3 79.5 -9s42.333 -18 58 -36s27.5 -43.167 35.5 -75.5s12 -74.5 12 -126.5v-74zM90.002 0
l582.003 -0.000976562c61.333 0 112.166 6.33301 152.499 19s72.333 33.334 96 62.001s40.167 66 49.5 112s14 102.333 14 169c0 71.333 -4.66699 130.333 -14 177s-25.833 83.667 -49.5 111s-55.334 46.5 -95.001 57.5s-89.834 16.5 -150.501 16.5h-585v-311h-63v-80h63
v-333z" />
    <glyph glyph-name="Ntilde" unicode="&#xd1;" horiz-adv-x="1087" 
d="M90 0h98v636l663 -636h146v724h-98v-636l-663 636h-146v-724zM702 921c-2 -8 -4.33105 -15.832 -6.99805 -23.499s-6.33398 -14.667 -11.001 -21s-10.334 -11.5 -17.001 -15.5s-14.334 -6 -23.001 -6c-13.333 0 -27.666 3.16699 -42.999 9.5s-31.333 13.5 -48 21.5
c-16 7.33301 -32.333 14.166 -49 20.499s-33.667 9.5 -51 9.5c-15.333 0 -30 -3.83301 -44 -11.5s-26.167 -17.667 -36.5 -30s-18.833 -26.166 -25.5 -41.499s-10.334 -31 -11.001 -47h50c2 8 4.33301 15.833 7 23.5s6.33398 14.667 11.001 21s10.167 11.5 16.5 15.5
s14.166 6 23.499 6c13.333 0 27.833 -3 43.5 -9s31.5 -13 47.5 -21s32.5 -15.167 49.5 -21.5s33.833 -9.5 50.5 -9.5c15.333 0 30 3.83301 44 11.5s26.167 17.667 36.5 30s18.833 26.166 25.5 41.499s10.334 31 11.001 47h-50z" />
    <glyph glyph-name="Ograve" unicode="&#xd2;" horiz-adv-x="1087" 
d="M912 226c0 -31.333 -4.5 -57 -13.5 -77s-21.167 -35.667 -36.5 -47s-33.333 -19.166 -54 -23.499s-42.667 -6.5 -66 -6.5h-397c-23.333 0 -45.333 2.16699 -66 6.5s-38.667 12.166 -54 23.499s-27.5 27 -36.5 47s-13.5 45.667 -13.5 77v272c0 31.333 4.5 57 13.5 77
s21.167 35.667 36.5 47s33.333 19.166 54 23.499s42.667 6.5 66 6.5h397c23.333 0 45.333 -2.16699 66 -6.5s38.667 -12.166 54 -23.499s27.5 -27 36.5 -47s13.5 -45.667 13.5 -77v-272zM77 263c0 -46 4.16699 -85.833 12.5 -119.5s22.5 -61.834 42.5 -84.501
s46.5 -39.5 79.5 -50.5s74.167 -16.5 123.5 -16.5h417c48.667 0 89.5 5.5 122.5 16.5s59.5 27.833 79.5 50.5s34.333 50.834 43 84.501s13 73.5 13 119.5v198c0 46 -4.33301 85.833 -13 119.5s-23 61.834 -43 84.501s-46.5 39.5 -79.5 50.5s-73.833 16.5 -122.5 16.5h-417
c-49.333 0 -90.5 -5.5 -123.5 -16.5s-59.5 -27.833 -79.5 -50.5s-34.167 -50.834 -42.5 -84.501s-12.5 -73.5 -12.5 -119.5v-198zM561 772h67l-148 185h-103z" />
    <glyph glyph-name="Oacute" unicode="&#xd3;" horiz-adv-x="1087" 
d="M912 226c0 -31.333 -4.5 -57 -13.5 -77s-21.167 -35.667 -36.5 -47s-33.333 -19.166 -54 -23.499s-42.667 -6.5 -66 -6.5h-397c-23.333 0 -45.333 2.16699 -66 6.5s-38.667 12.166 -54 23.499s-27.5 27 -36.5 47s-13.5 45.667 -13.5 77v272c0 31.333 4.5 57 13.5 77
s21.167 35.667 36.5 47s33.333 19.166 54 23.499s42.667 6.5 66 6.5h397c23.333 0 45.333 -2.16699 66 -6.5s38.667 -12.166 54 -23.499s27.5 -27 36.5 -47s13.5 -45.667 13.5 -77v-272zM77 263c0 -46 4.16699 -85.833 12.5 -119.5s22.5 -61.834 42.5 -84.501
s46.5 -39.5 79.5 -50.5s74.167 -16.5 123.5 -16.5h417c48.667 0 89.5 5.5 122.5 16.5s59.5 27.833 79.5 50.5s34.333 50.834 43 84.501s13 73.5 13 119.5v198c0 46 -4.33301 85.833 -13 119.5s-23 61.834 -43 84.501s-46.5 39.5 -79.5 50.5s-73.833 16.5 -122.5 16.5h-417
c-49.333 0 -90.5 -5.5 -123.5 -16.5s-59.5 -27.833 -79.5 -50.5s-34.167 -50.834 -42.5 -84.501s-12.5 -73.5 -12.5 -119.5v-198zM460 772h67l184 185h-103z" />
    <glyph glyph-name="Ocircumflex" unicode="&#xd4;" horiz-adv-x="1087" 
d="M912 226c0 -31.333 -4.5 -57 -13.5 -77s-21.167 -35.667 -36.5 -47s-33.333 -19.166 -54 -23.499s-42.667 -6.5 -66 -6.5h-397c-23.333 0 -45.333 2.16699 -66 6.5s-38.667 12.166 -54 23.499s-27.5 27 -36.5 47s-13.5 45.667 -13.5 77v272c0 31.333 4.5 57 13.5 77
s21.167 35.667 36.5 47s33.333 19.166 54 23.499s42.667 6.5 66 6.5h397c23.333 0 45.333 -2.16699 66 -6.5s38.667 -12.166 54 -23.499s27.5 -27 36.5 -47s13.5 -45.667 13.5 -77v-272zM77 263c0 -46 4.16699 -85.833 12.5 -119.5s22.5 -61.834 42.5 -84.501
s46.5 -39.5 79.5 -50.5s74.167 -16.5 123.5 -16.5h417c48.667 0 89.5 5.5 122.5 16.5s59.5 27.833 79.5 50.5s34.333 50.834 43 84.501s13 73.5 13 119.5v198c0 46 -4.33301 85.833 -13 119.5s-23 61.834 -43 84.501s-46.5 39.5 -79.5 50.5s-73.833 16.5 -122.5 16.5h-417
c-49.333 0 -90.5 -5.5 -123.5 -16.5s-59.5 -27.833 -79.5 -50.5s-34.167 -50.834 -42.5 -84.501s-12.5 -73.5 -12.5 -119.5v-198zM352 772h78l113 139l113 -139h80l-151 185h-82z" />
    <glyph glyph-name="Otilde" unicode="&#xd5;" horiz-adv-x="1087" 
d="M912 226c0 -31.333 -4.5 -57 -13.5 -77s-21.167 -35.667 -36.5 -47s-33.333 -19.166 -54 -23.499s-42.667 -6.5 -66 -6.5h-397c-23.333 0 -45.333 2.16699 -66 6.5s-38.667 12.166 -54 23.499s-27.5 27 -36.5 47s-13.5 45.667 -13.5 77v272c0 31.333 4.5 57 13.5 77
s21.167 35.667 36.5 47s33.333 19.166 54 23.499s42.667 6.5 66 6.5h397c23.333 0 45.333 -2.16699 66 -6.5s38.667 -12.166 54 -23.499s27.5 -27 36.5 -47s13.5 -45.667 13.5 -77v-272zM77 263c0 -46 4.16699 -85.833 12.5 -119.5s22.5 -61.834 42.5 -84.501
s46.5 -39.5 79.5 -50.5s74.167 -16.5 123.5 -16.5h417c48.667 0 89.5 5.5 122.5 16.5s59.5 27.833 79.5 50.5s34.333 50.834 43 84.501s13 73.5 13 119.5v198c0 46 -4.33301 85.833 -13 119.5s-23 61.834 -43 84.501s-46.5 39.5 -79.5 50.5s-73.833 16.5 -122.5 16.5h-417
c-49.333 0 -90.5 -5.5 -123.5 -16.5s-59.5 -27.833 -79.5 -50.5s-34.167 -50.834 -42.5 -84.501s-12.5 -73.5 -12.5 -119.5v-198zM702 921c-2 -8 -4.33105 -15.832 -6.99805 -23.499s-6.33398 -14.667 -11.001 -21s-10.334 -11.5 -17.001 -15.5s-14.334 -6 -23.001 -6
c-13.333 0 -27.666 3.16699 -42.999 9.5s-31.333 13.5 -48 21.5c-16 7.33301 -32.333 14.166 -49 20.499s-33.667 9.5 -51 9.5c-15.333 0 -30 -3.83301 -44 -11.5s-26.167 -17.667 -36.5 -30s-18.833 -26.166 -25.5 -41.499s-10.334 -31 -11.001 -47h50
c2 8 4.33301 15.833 7 23.5s6.33398 14.667 11.001 21s10.167 11.5 16.5 15.5s14.166 6 23.499 6c13.333 0 27.833 -3 43.5 -9s31.5 -13 47.5 -21s32.5 -15.167 49.5 -21.5s33.833 -9.5 50.5 -9.5c15.333 0 30 3.83301 44 11.5s26.167 17.667 36.5 30
s18.833 26.166 25.5 41.499s10.334 31 11.001 47h-50z" />
    <glyph glyph-name="Odieresis" unicode="&#xd6;" horiz-adv-x="1087" 
d="M912 226c0 -31.333 -4.5 -57 -13.5 -77s-21.167 -35.667 -36.5 -47s-33.333 -19.166 -54 -23.499s-42.667 -6.5 -66 -6.5h-397c-23.333 0 -45.333 2.16699 -66 6.5s-38.667 12.166 -54 23.499s-27.5 27 -36.5 47s-13.5 45.667 -13.5 77v272c0 31.333 4.5 57 13.5 77
s21.167 35.667 36.5 47s33.333 19.166 54 23.499s42.667 6.5 66 6.5h397c23.333 0 45.333 -2.16699 66 -6.5s38.667 -12.166 54 -23.499s27.5 -27 36.5 -47s13.5 -45.667 13.5 -77v-272zM77 263c0 -46 4.16699 -85.833 12.5 -119.5s22.5 -61.834 42.5 -84.501
s46.5 -39.5 79.5 -50.5s74.167 -16.5 123.5 -16.5h417c48.667 0 89.5 5.5 122.5 16.5s59.5 27.833 79.5 50.5s34.333 50.834 43 84.501s13 73.5 13 119.5v198c0 46 -4.33301 85.833 -13 119.5s-23 61.834 -43 84.501s-46.5 39.5 -79.5 50.5s-73.833 16.5 -122.5 16.5h-417
c-49.333 0 -90.5 -5.5 -123.5 -16.5s-59.5 -27.833 -79.5 -50.5s-34.167 -50.834 -42.5 -84.501s-12.5 -73.5 -12.5 -119.5v-198zM396 786h86v112h-86v-112zM606 786h86v112h-86v-112z" />
    <glyph glyph-name="multiply" unicode="&#xd7;" horiz-adv-x="600" 
d="M521 80l-172 173l172 170l-49 49l-172 -171l-171 171l-49 -49l172 -170l-173 -173l49 -48l172 171l172 -171z" />
    <glyph glyph-name="Oslash" unicode="&#xd8;" horiz-adv-x="1087" 
d="M197 133c-7.33301 11.333 -12.833 24.501 -16.5 39.501s-5.5 32.833 -5.5 53.5v272c0 31.333 4.5 57 13.5 77s21.167 35.667 36.5 47s33.333 19.166 54 23.499s42.667 6.5 66 6.5h397c21.333 0 40.333 -1 57 -3s30 -6.66699 40 -14zM912 226.001
c0 -31.333 -4.50098 -57.001 -13.501 -77.001s-21.167 -35.667 -36.5 -47s-33.333 -19.166 -54 -23.499s-42.667 -6.5 -66 -6.5h-397c-17.333 0 -34.166 1.16699 -50.499 3.5s-31.5 6.5 -45.5 12.5l641 502c7.33301 -11.333 12.833 -24.5 16.5 -39.5s5.5 -32.5 5.5 -52.5
v-272zM86.999 -38l84 64.999c39.333 -23.333 94 -35 164 -35h417c48.667 0 89.5 5.5 122.5 16.5s59.5 27.833 79.5 50.5s34.333 50.834 43 84.501s13 73.5 13 119.5v198c0 40.667 -3.33301 76.667 -10 108s-18 58.333 -34 81l76 59l-42 53l-84 -66
c-19.333 12 -42.5 21 -69.5 27s-58.5 9 -94.5 9h-417c-49.333 0 -90.5 -5.5 -123.5 -16.5s-59.5 -27.833 -79.5 -50.5s-34.167 -50.834 -42.5 -84.501s-12.5 -73.5 -12.5 -119.5v-198c0 -41.333 3.5 -77.666 10.5 -108.999s18.167 -58 33.5 -80l-76 -59z" />
    <glyph glyph-name="Ugrave" unicode="&#xd9;" horiz-adv-x="1042" 
d="M96 182c0 -36.667 4.8252 -67.167 14.4922 -91.5s24.834 -43.833 45.501 -58.5s47.334 -25 80.001 -31s72 -9 118 -9h334c46 0 85.333 3 118 9s59.334 16.333 80.001 31s35.834 34.167 45.501 58.5s14.5 54.833 14.5 91.5v542h-98v-541c0 -17.333 -2 -33 -6 -47
s-11.667 -25.667 -23 -35s-27.166 -16.5 -47.499 -21.5s-47.166 -7.5 -80.499 -7.5h-340c-33.333 0 -60.166 2.5 -80.499 7.5s-36.166 12.167 -47.499 21.5s-19 21 -23 35s-6 29.667 -6 47v541h-98v-542zM537.992 772h67l-148 185h-103z" />
    <glyph glyph-name="Uacute" unicode="&#xda;" horiz-adv-x="1042" 
d="M96 182c0 -36.667 4.8252 -67.167 14.4922 -91.5s24.834 -43.833 45.501 -58.5s47.334 -25 80.001 -31s72 -9 118 -9h334c46 0 85.333 3 118 9s59.334 16.333 80.001 31s35.834 34.167 45.501 58.5s14.5 54.833 14.5 91.5v542h-98v-541c0 -17.333 -2 -33 -6 -47
s-11.667 -25.667 -23 -35s-27.166 -16.5 -47.499 -21.5s-47.166 -7.5 -80.499 -7.5h-340c-33.333 0 -60.166 2.5 -80.499 7.5s-36.166 12.167 -47.499 21.5s-19 21 -23 35s-6 29.667 -6 47v541h-98v-542zM436.992 772h67l184 185h-103z" />
    <glyph glyph-name="Ucircumflex" unicode="&#xdb;" horiz-adv-x="1042" 
d="M96 182c0 -36.667 4.8252 -67.167 14.4922 -91.5s24.834 -43.833 45.501 -58.5s47.334 -25 80.001 -31s72 -9 118 -9h334c46 0 85.333 3 118 9s59.334 16.333 80.001 31s35.834 34.167 45.501 58.5s14.5 54.833 14.5 91.5v542h-98v-541c0 -17.333 -2 -33 -6 -47
s-11.667 -25.667 -23 -35s-27.166 -16.5 -47.499 -21.5s-47.166 -7.5 -80.499 -7.5h-340c-33.333 0 -60.166 2.5 -80.499 7.5s-36.166 12.167 -47.499 21.5s-19 21 -23 35s-6 29.667 -6 47v541h-98v-542zM328.992 772h78l113 139l113 -139h80l-151 185h-82z" />
    <glyph glyph-name="Udieresis" unicode="&#xdc;" horiz-adv-x="1042" 
d="M96 182c0 -36.667 4.8252 -67.167 14.4922 -91.5s24.834 -43.833 45.501 -58.5s47.334 -25 80.001 -31s72 -9 118 -9h334c46 0 85.333 3 118 9s59.334 16.333 80.001 31s35.834 34.167 45.501 58.5s14.5 54.833 14.5 91.5v542h-98v-541c0 -17.333 -2 -33 -6 -47
s-11.667 -25.667 -23 -35s-27.166 -16.5 -47.499 -21.5s-47.166 -7.5 -80.499 -7.5h-340c-33.333 0 -60.166 2.5 -80.499 7.5s-36.166 12.167 -47.499 21.5s-19 21 -23 35s-6 29.667 -6 47v541h-98v-542zM372.992 786h86v112h-86v-112zM582.992 786h86v112h-86v-112z" />
    <glyph glyph-name="Yacute" unicode="&#xdd;" horiz-adv-x="964" 
d="M433 0h98v306l415 418h-132l-332 -336l-332 336h-132l415 -418v-306zM398 772h67l184 185h-103z" />
    <glyph glyph-name="Thorn" unicode="&#xde;" horiz-adv-x="939" 
d="M96 0l97.999 0.000976562v196h479c53.333 0 95 5 125 15s52.5 25.167 67.5 45.5s24.333 45.666 28 75.999s5.5 65.5 5.5 105.5c0 42 -4.66699 76 -14 102s-22.666 46 -39.999 60s-39 23.333 -65 28s-55.333 7 -88 7h-498v89h-98v-724zM800.999 379.001
c0 -38 -10.8311 -64.667 -32.498 -80s-52.167 -23 -91.5 -23h-483v279h475c21.333 0 40.166 -1.5 56.499 -4.5s30.166 -8.5 41.499 -16.5s19.833 -19 25.5 -33s8.5 -31.667 8.5 -53v-69z" />
    <glyph glyph-name="germandbls" unicode="&#xdf;" horiz-adv-x="815" 
d="M88 0l85.998 0.00390625v430c0 50.667 1.16699 91.667 3.5 123s10.166 55.5 23.499 72.5s34.833 28.333 64.5 34s71.5 8.5 125.5 8.5c40 0 74.333 -1.16699 103 -3.5s52.167 -7.5 70.5 -15.5s31.833 -19.833 40.5 -35.5s13 -36.834 13 -63.501
c0 -29.333 -2.16699 -52.333 -6.5 -69s-13.5 -29.167 -27.5 -37.5s-34.167 -13.5 -60.5 -15.5s-61.833 -3 -106.5 -3h-86v-64h119c37.333 0 68.833 -1.33301 94.5 -4s46.334 -9 62.001 -19s27 -25 34 -45s10.5 -47.333 10.5 -82c0 -36 -3.16699 -64.167 -9.5 -84.5
s-16.666 -35.166 -30.999 -44.499s-32.833 -15 -55.5 -17s-50 -3 -82 -3c-24.667 0 -49.167 1 -73.5 3s-48.166 4.33301 -71.499 7v-73c20.667 -1.33301 42.5 -2.83301 65.5 -4.5s52.167 -2.5 87.5 -2.5c38 0 72.833 1.66699 104.5 5s58.667 11.166 81 23.499
s39.666 30.666 51.999 54.999s18.5 57.166 18.5 98.499v56c0 18.667 -1.66699 37.167 -5 55.5s-9.66602 35.166 -18.999 50.499s-22.5 28.333 -39.5 39s-39.167 18 -66.5 22v2c33.333 10 57.833 24.833 73.5 44.5s23.5 47.834 23.5 84.501v30c0 34 -5.5 62.167 -16.5 84.5
s-27.167 40.166 -48.5 53.499s-47.5 22.666 -78.5 27.999s-66.167 8 -105.5 8h-153c-69.333 0 -122.333 -15.667 -159 -47s-55 -74.666 -55 -129.999v-555z" />
    <glyph glyph-name="agrave" unicode="&#xe0;" horiz-adv-x="765" 
d="M608 0l86 -0.00292969v342c0 38 -6.5 68.5 -19.5 91.5s-31.167 40.833 -54.5 53.5s-51.5 21 -84.5 25s-69.5 6 -109.5 6h-136c-38.667 0 -71.5 -2.5 -98.5 -7.5s-49 -12.667 -66 -23s-29.333 -23.833 -37 -40.5s-11.5 -36.667 -11.5 -60v-25h86v18
c0 10.667 1.66699 20.167 5 28.5s9.66602 15.5 18.999 21.5s22.333 10.5 39 13.5s38.667 4.5 66 4.5h126c32.667 0 61 -1.16699 85 -3.5s43.833 -7 59.5 -14s27.167 -17.5 34.5 -31.5s11 -32.333 11 -55v-96h-2c-7.33301 12 -15.666 22 -24.999 30s-21 14.333 -35 19
s-30.833 7.83398 -50.5 9.50098s-43.5 2.5 -71.5 2.5h-138c-37.333 0 -70.5 -1.33301 -99.5 -4s-53.333 -8.5 -73 -17.5s-34.5 -22.167 -44.5 -39.5s-15 -40.333 -15 -69v-34c0 -24 2.5 -45.5 7.5 -64.5s13.667 -35 26 -48s29 -23 50 -30s47.833 -10.5 80.5 -10.5h206
c32.667 0 59.5 0.833008 80.5 2.5s38 4.83398 51 9.50098s23.167 10.834 30.5 18.501s14 17.167 20 28.5h2v-51zM608 136.997c0 -16 -3.99902 -28.8311 -11.999 -38.498s-20.5 -17.334 -37.5 -23.001s-39.333 -9.33398 -67 -11.001s-60.834 -2.5 -99.501 -2.5h-114
c-29.333 0 -53 1.5 -71 4.5s-32 7.83301 -42 14.5s-16.667 15.167 -20 25.5s-5 22.5 -5 36.5v16c0 16 2.16699 29.167 6.5 39.5s12 18.5 23 24.5s25.5 10.167 43.5 12.5s41 3.5 69 3.5h132c32.667 0 61.167 -0.833008 85.5 -2.5s44.5 -5.33398 60.5 -11.001
s28 -13.667 36 -24s12 -24.166 12 -41.499v-23zM400.001 587.999h67l-148 185h-103z" />
    <glyph glyph-name="aacute" unicode="&#xe1;" horiz-adv-x="765" 
d="M608 0l86 -0.00292969v342c0 38 -6.5 68.5 -19.5 91.5s-31.167 40.833 -54.5 53.5s-51.5 21 -84.5 25s-69.5 6 -109.5 6h-136c-38.667 0 -71.5 -2.5 -98.5 -7.5s-49 -12.667 -66 -23s-29.333 -23.833 -37 -40.5s-11.5 -36.667 -11.5 -60v-25h86v18
c0 10.667 1.66699 20.167 5 28.5s9.66602 15.5 18.999 21.5s22.333 10.5 39 13.5s38.667 4.5 66 4.5h126c32.667 0 61 -1.16699 85 -3.5s43.833 -7 59.5 -14s27.167 -17.5 34.5 -31.5s11 -32.333 11 -55v-96h-2c-7.33301 12 -15.666 22 -24.999 30s-21 14.333 -35 19
s-30.833 7.83398 -50.5 9.50098s-43.5 2.5 -71.5 2.5h-138c-37.333 0 -70.5 -1.33301 -99.5 -4s-53.333 -8.5 -73 -17.5s-34.5 -22.167 -44.5 -39.5s-15 -40.333 -15 -69v-34c0 -24 2.5 -45.5 7.5 -64.5s13.667 -35 26 -48s29 -23 50 -30s47.833 -10.5 80.5 -10.5h206
c32.667 0 59.5 0.833008 80.5 2.5s38 4.83398 51 9.50098s23.167 10.834 30.5 18.501s14 17.167 20 28.5h2v-51zM608 136.997c0 -16 -3.99902 -28.8311 -11.999 -38.498s-20.5 -17.334 -37.5 -23.001s-39.333 -9.33398 -67 -11.001s-60.834 -2.5 -99.501 -2.5h-114
c-29.333 0 -53 1.5 -71 4.5s-32 7.83301 -42 14.5s-16.667 15.167 -20 25.5s-5 22.5 -5 36.5v16c0 16 2.16699 29.167 6.5 39.5s12 18.5 23 24.5s25.5 10.167 43.5 12.5s41 3.5 69 3.5h132c32.667 0 61.167 -0.833008 85.5 -2.5s44.5 -5.33398 60.5 -11.001
s28 -13.667 36 -24s12 -24.166 12 -41.499v-23zM299.001 587.999h67l184 185h-103z" />
    <glyph glyph-name="acircumflex" unicode="&#xe2;" horiz-adv-x="765" 
d="M608 0l86 -0.00292969v342c0 38 -6.5 68.5 -19.5 91.5s-31.167 40.833 -54.5 53.5s-51.5 21 -84.5 25s-69.5 6 -109.5 6h-136c-38.667 0 -71.5 -2.5 -98.5 -7.5s-49 -12.667 -66 -23s-29.333 -23.833 -37 -40.5s-11.5 -36.667 -11.5 -60v-25h86v18
c0 10.667 1.66699 20.167 5 28.5s9.66602 15.5 18.999 21.5s22.333 10.5 39 13.5s38.667 4.5 66 4.5h126c32.667 0 61 -1.16699 85 -3.5s43.833 -7 59.5 -14s27.167 -17.5 34.5 -31.5s11 -32.333 11 -55v-96h-2c-7.33301 12 -15.666 22 -24.999 30s-21 14.333 -35 19
s-30.833 7.83398 -50.5 9.50098s-43.5 2.5 -71.5 2.5h-138c-37.333 0 -70.5 -1.33301 -99.5 -4s-53.333 -8.5 -73 -17.5s-34.5 -22.167 -44.5 -39.5s-15 -40.333 -15 -69v-34c0 -24 2.5 -45.5 7.5 -64.5s13.667 -35 26 -48s29 -23 50 -30s47.833 -10.5 80.5 -10.5h206
c32.667 0 59.5 0.833008 80.5 2.5s38 4.83398 51 9.50098s23.167 10.834 30.5 18.501s14 17.167 20 28.5h2v-51zM608 136.997c0 -16 -3.99902 -28.8311 -11.999 -38.498s-20.5 -17.334 -37.5 -23.001s-39.333 -9.33398 -67 -11.001s-60.834 -2.5 -99.501 -2.5h-114
c-29.333 0 -53 1.5 -71 4.5s-32 7.83301 -42 14.5s-16.667 15.167 -20 25.5s-5 22.5 -5 36.5v16c0 16 2.16699 29.167 6.5 39.5s12 18.5 23 24.5s25.5 10.167 43.5 12.5s41 3.5 69 3.5h132c32.667 0 61.167 -0.833008 85.5 -2.5s44.5 -5.33398 60.5 -11.001
s28 -13.667 36 -24s12 -24.166 12 -41.499v-23zM191.001 587.999h78l113 139l113 -139h80l-151 185h-82z" />
    <glyph glyph-name="atilde" unicode="&#xe3;" horiz-adv-x="765" 
d="M608 0l86 -0.00292969v342c0 38 -6.5 68.5 -19.5 91.5s-31.167 40.833 -54.5 53.5s-51.5 21 -84.5 25s-69.5 6 -109.5 6h-136c-38.667 0 -71.5 -2.5 -98.5 -7.5s-49 -12.667 -66 -23s-29.333 -23.833 -37 -40.5s-11.5 -36.667 -11.5 -60v-25h86v18
c0 10.667 1.66699 20.167 5 28.5s9.66602 15.5 18.999 21.5s22.333 10.5 39 13.5s38.667 4.5 66 4.5h126c32.667 0 61 -1.16699 85 -3.5s43.833 -7 59.5 -14s27.167 -17.5 34.5 -31.5s11 -32.333 11 -55v-96h-2c-7.33301 12 -15.666 22 -24.999 30s-21 14.333 -35 19
s-30.833 7.83398 -50.5 9.50098s-43.5 2.5 -71.5 2.5h-138c-37.333 0 -70.5 -1.33301 -99.5 -4s-53.333 -8.5 -73 -17.5s-34.5 -22.167 -44.5 -39.5s-15 -40.333 -15 -69v-34c0 -24 2.5 -45.5 7.5 -64.5s13.667 -35 26 -48s29 -23 50 -30s47.833 -10.5 80.5 -10.5h206
c32.667 0 59.5 0.833008 80.5 2.5s38 4.83398 51 9.50098s23.167 10.834 30.5 18.501s14 17.167 20 28.5h2v-51zM608 136.997c0 -16 -3.99902 -28.8311 -11.999 -38.498s-20.5 -17.334 -37.5 -23.001s-39.333 -9.33398 -67 -11.001s-60.834 -2.5 -99.501 -2.5h-114
c-29.333 0 -53 1.5 -71 4.5s-32 7.83301 -42 14.5s-16.667 15.167 -20 25.5s-5 22.5 -5 36.5v16c0 16 2.16699 29.167 6.5 39.5s12 18.5 23 24.5s25.5 10.167 43.5 12.5s41 3.5 69 3.5h132c32.667 0 61.167 -0.833008 85.5 -2.5s44.5 -5.33398 60.5 -11.001
s28 -13.667 36 -24s12 -24.166 12 -41.499v-23zM541.001 736.999c-2 -8 -4.33105 -15.832 -6.99805 -23.499s-6.33398 -14.667 -11.001 -21s-10.334 -11.5 -17.001 -15.5s-14.334 -6 -23.001 -6c-13.333 0 -27.666 3.16699 -42.999 9.5s-31.333 13.5 -48 21.5
c-16 7.33301 -32.333 14.166 -49 20.499s-33.667 9.5 -51 9.5c-15.333 0 -30 -3.83301 -44 -11.5s-26.167 -17.667 -36.5 -30s-18.833 -26.166 -25.5 -41.499s-10.334 -31 -11.001 -47h50c2 8 4.33301 15.833 7 23.5s6.33398 14.667 11.001 21s10.167 11.5 16.5 15.5
s14.166 6 23.499 6c13.333 0 27.833 -3 43.5 -9s31.5 -13 47.5 -21s32.5 -15.167 49.5 -21.5s33.833 -9.5 50.5 -9.5c15.333 0 30 3.83301 44 11.5s26.167 17.667 36.5 30s18.833 26.166 25.5 41.499s10.334 31 11.001 47h-50z" />
    <glyph glyph-name="adieresis" unicode="&#xe4;" horiz-adv-x="765" 
d="M608 0l86 -0.00292969v342c0 38 -6.5 68.5 -19.5 91.5s-31.167 40.833 -54.5 53.5s-51.5 21 -84.5 25s-69.5 6 -109.5 6h-136c-38.667 0 -71.5 -2.5 -98.5 -7.5s-49 -12.667 -66 -23s-29.333 -23.833 -37 -40.5s-11.5 -36.667 -11.5 -60v-25h86v18
c0 10.667 1.66699 20.167 5 28.5s9.66602 15.5 18.999 21.5s22.333 10.5 39 13.5s38.667 4.5 66 4.5h126c32.667 0 61 -1.16699 85 -3.5s43.833 -7 59.5 -14s27.167 -17.5 34.5 -31.5s11 -32.333 11 -55v-96h-2c-7.33301 12 -15.666 22 -24.999 30s-21 14.333 -35 19
s-30.833 7.83398 -50.5 9.50098s-43.5 2.5 -71.5 2.5h-138c-37.333 0 -70.5 -1.33301 -99.5 -4s-53.333 -8.5 -73 -17.5s-34.5 -22.167 -44.5 -39.5s-15 -40.333 -15 -69v-34c0 -24 2.5 -45.5 7.5 -64.5s13.667 -35 26 -48s29 -23 50 -30s47.833 -10.5 80.5 -10.5h206
c32.667 0 59.5 0.833008 80.5 2.5s38 4.83398 51 9.50098s23.167 10.834 30.5 18.501s14 17.167 20 28.5h2v-51zM608 136.997c0 -16 -3.99902 -28.8311 -11.999 -38.498s-20.5 -17.334 -37.5 -23.001s-39.333 -9.33398 -67 -11.001s-60.834 -2.5 -99.501 -2.5h-114
c-29.333 0 -53 1.5 -71 4.5s-32 7.83301 -42 14.5s-16.667 15.167 -20 25.5s-5 22.5 -5 36.5v16c0 16 2.16699 29.167 6.5 39.5s12 18.5 23 24.5s25.5 10.167 43.5 12.5s41 3.5 69 3.5h132c32.667 0 61.167 -0.833008 85.5 -2.5s44.5 -5.33398 60.5 -11.001
s28 -13.667 36 -24s12 -24.166 12 -41.499v-23zM235.001 601.999h86v112h-86v-112zM445.001 601.999h86v112h-86v-112z" />
    <glyph glyph-name="aring" unicode="&#xe5;" horiz-adv-x="765" 
d="M608 0l86 -0.00292969v342c0 38 -6.5 68.5 -19.5 91.5s-31.167 40.833 -54.5 53.5s-51.5 21 -84.5 25s-69.5 6 -109.5 6h-136c-38.667 0 -71.5 -2.5 -98.5 -7.5s-49 -12.667 -66 -23s-29.333 -23.833 -37 -40.5s-11.5 -36.667 -11.5 -60v-25h86v18
c0 10.667 1.66699 20.167 5 28.5s9.66602 15.5 18.999 21.5s22.333 10.5 39 13.5s38.667 4.5 66 4.5h126c32.667 0 61 -1.16699 85 -3.5s43.833 -7 59.5 -14s27.167 -17.5 34.5 -31.5s11 -32.333 11 -55v-96h-2c-7.33301 12 -15.666 22 -24.999 30s-21 14.333 -35 19
s-30.833 7.83398 -50.5 9.50098s-43.5 2.5 -71.5 2.5h-138c-37.333 0 -70.5 -1.33301 -99.5 -4s-53.333 -8.5 -73 -17.5s-34.5 -22.167 -44.5 -39.5s-15 -40.333 -15 -69v-34c0 -24 2.5 -45.5 7.5 -64.5s13.667 -35 26 -48s29 -23 50 -30s47.833 -10.5 80.5 -10.5h206
c32.667 0 59.5 0.833008 80.5 2.5s38 4.83398 51 9.50098s23.167 10.834 30.5 18.501s14 17.167 20 28.5h2v-51zM608 136.997c0 -16 -3.99902 -28.8311 -11.999 -38.498s-20.5 -17.334 -37.5 -23.001s-39.333 -9.33398 -67 -11.001s-60.834 -2.5 -99.501 -2.5h-114
c-29.333 0 -53 1.5 -71 4.5s-32 7.83301 -42 14.5s-16.667 15.167 -20 25.5s-5 22.5 -5 36.5v16c0 16 2.16699 29.167 6.5 39.5s12 18.5 23 24.5s25.5 10.167 43.5 12.5s41 3.5 69 3.5h132c32.667 0 61.167 -0.833008 85.5 -2.5s44.5 -5.33398 60.5 -11.001
s28 -13.667 36 -24s12 -24.166 12 -41.499v-23zM306.001 722.999c0 21.333 7.5 39.5 22.5 54.5s33.167 22.5 54.5 22.5s39.5 -7.5 54.5 -22.5s22.5 -33.167 22.5 -54.5s-7.5 -39.5 -22.5 -54.5s-33.167 -22.5 -54.5 -22.5s-39.5 7.5 -54.5 22.5s-22.5 33.167 -22.5 54.5z
M248.001 722.999c0 -18.667 3.5 -36.167 10.5 -52.5s16.667 -30.666 29 -42.999s26.666 -22 42.999 -29s33.833 -10.5 52.5 -10.5s36.167 3.5 52.5 10.5s30.666 16.667 42.999 29s22 26.666 29 42.999s10.5 33.833 10.5 52.5s-3.5 36.167 -10.5 52.5
s-16.667 30.666 -29 42.999s-26.666 22 -42.999 29s-33.833 10.5 -52.5 10.5s-36.167 -3.5 -52.5 -10.5s-30.666 -16.667 -42.999 -29s-22 -26.666 -29 -42.999s-10.5 -33.833 -10.5 -52.5z" />
    <glyph glyph-name="ae" unicode="&#xe6;" horiz-adv-x="1259" 
d="M582 248l-2.00098 -0.000976562c-7.33301 12 -15.666 22 -24.999 30s-20.333 14.333 -33 19s-27.667 7.83398 -45 9.50098s-38 2.5 -62 2.5h-129c-37.333 0 -70.5 -1.33301 -99.5 -4s-53.333 -8.5 -73 -17.5s-34.5 -22.167 -44.5 -39.5s-15 -40.333 -15 -69v-34
c0 -24 2.5 -45.5 7.5 -64.5s13.667 -35 26 -48s29 -23 50 -30s47.833 -10.5 80.5 -10.5h126c36 0 69.167 0.666992 99.5 2s57.666 4.83301 81.999 10.5s45.333 13.667 63 24s31.834 24.5 42.501 42.5c12 -17.333 26 -31.166 42 -41.499s33.833 -18.166 53.5 -23.499
s41.5 -9 65.5 -11s50 -3 78 -3h84c37.333 0 71.5 2.5 102.5 7.5s57.5 13.333 79.5 25s39 27.167 51 46.5s18 43.666 18 72.999v10h-80c-1.33301 -19.333 -5.33301 -35 -12 -47s-16.5 -21.333 -29.5 -28s-28.833 -11.167 -47.5 -13.5s-40.667 -3.5 -66 -3.5h-98
c-37.333 0 -68.833 2.16699 -94.5 6.5s-46.667 12 -63 23s-28.166 25.833 -35.499 44.5s-11 42.667 -11 72v32h537v57c0 45.333 -6.5 82.333 -19.5 111s-31 51.167 -54 67.5s-50.167 27.5 -81.5 33.5s-65.333 9 -102 9h-100c-23.333 0 -46.333 -0.666992 -69 -2
s-43.667 -4.5 -63 -9.5s-36.666 -13 -51.999 -24s-27.333 -25.833 -36 -44.5c-5.33301 19.333 -15.5 34.5 -30.5 45.5s-31.5 19 -49.5 24s-36.333 8 -55 9s-34.334 1.5 -47.001 1.5h-156c-38.667 0 -71.5 -2.5 -98.5 -7.5s-49 -12.667 -66 -23s-29.333 -23.833 -37 -40.5
s-11.5 -36.667 -11.5 -60v-25h86v18c0 10.667 1.66699 20.167 5 28.5s9.66602 15.5 18.999 21.5s22.333 10.5 39 13.5s38.667 4.5 66 4.5h136c24 0 45.5 -1.33301 64.5 -4s35.167 -7.83398 48.5 -15.501s23.5 -18.167 30.5 -31.5s10.5 -31 10.5 -53v-96zM581.999 130.999
c0 -16 -4.16797 -28.8311 -12.501 -38.498s-20.166 -17.334 -35.499 -23.001s-34 -9.33398 -56 -11.001s-46.333 -2.5 -73 -2.5h-162c-21.333 0 -38.666 2 -51.999 6s-23.833 9.66699 -31.5 17s-12.834 15.833 -15.501 25.5s-4 20.5 -4 32.5v22
c0 16 2.16699 29.167 6.5 39.5s12 18.5 23 24.5s25.5 10.167 43.5 12.5s41 3.5 69 3.5h138c24 0 45.833 -0.833008 65.5 -2.5s36.667 -5.33398 51 -11.001s25.5 -13.667 33.5 -24s12 -24.166 12 -41.499v-29zM1119 310.001l-450.999 0.00195312c2 28.667 6 52 12 70
s15.5 32 28.5 42s30 16.833 51 20.5s47.833 5.5 80.5 5.5h102c34.667 0 63.5 -3 86.5 -9s41.167 -13.833 54.5 -23.5s22.666 -20.834 27.999 -33.501s8 -25.334 8 -38.001v-34z" />
    <glyph glyph-name="ccedilla" unicode="&#xe7;" horiz-adv-x="741" 
d="M58 198c0 -46 7.49902 -82.667 22.499 -110s33.5 -48.166 55.5 -62.499s45.333 -23.5 70 -27.5s46.667 -6 66 -6h194c40 0 74.167 3.33301 102.5 10s51.5 17.167 69.5 31.5s31.167 32.833 39.5 55.5s12.5 50 12.5 82v15h-80v-17
c0 -20.667 -3.83301 -37.834 -11.5 -51.501s-18.334 -24.667 -32.001 -33s-29.334 -14.166 -47.001 -17.499s-36.5 -5 -56.5 -5h-145c-26 0 -49.667 2 -71 6s-39.666 11.167 -54.999 21.5s-27.166 24.5 -35.499 42.5s-12.5 41.333 -12.5 70v107c0 32 4.33301 57.167 13 75.5
s20.334 32.166 35.001 41.499s31.5 15.333 50.5 18s38.5 4 58.5 4h158c21.333 0 40.833 -1.5 58.5 -4.5s32.667 -8.33301 45 -16s21.833 -18.334 28.5 -32.001s10 -31.167 10 -52.5v-12h80v14c0 54 -17.167 96.333 -51.5 127s-91.5 46 -171.5 46h-144
c-31.333 0 -62.333 -2 -93 -6s-58 -13.167 -82 -27.5s-43.5 -35.166 -58.5 -62.499s-22.5 -64 -22.5 -110v-114zM246.999 -252c19.333 -8 38.999 -14.5 58.999 -19.5s40.667 -7.5 62 -7.5c16.667 0 33.834 1.83301 51.501 5.5s33.667 9.83398 48 18.501s26 20 35 34
s13.5 31 13.5 51c0 32 -10.5 56 -31.5 72s-46.5 24 -76.5 24c-7.33301 0 -14.833 -0.833008 -22.5 -2.5s-14.5 -3.5 -20.5 -5.5l-2 2l65 80h-51l-83 -112l21 -18c10 2 19.333 4.16699 28 6.5s17.667 3.5 27 3.5c16 0 31 -4.16699 45 -12.5s21 -22.166 21 -41.499
c0 -11.333 -2.66699 -20.833 -8 -28.5s-12.333 -13.834 -21 -18.501s-18 -7.83398 -28 -9.50098s-19.667 -2.5 -29 -2.5c-28.667 0 -56.667 6.33301 -84 19z" />
    <glyph glyph-name="egrave" unicode="&#xe8;" horiz-adv-x="765" 
d="M625 310l-480.999 0.00195312c2 28.667 5.83301 52 11.5 70s15 32 28 42s30.5 16.833 52.5 20.5s50 5.5 84 5.5h126c34.667 0 63.667 -3 87 -9s41.666 -13.833 54.999 -23.5s22.833 -20.834 28.5 -33.501s8.5 -25.334 8.5 -38.001v-34zM58.001 201.002
c0 -47.333 7.16406 -84.667 21.4971 -112s33 -48.333 56 -63s48.833 -24 77.5 -28s57 -6 85 -6h156c40 0 75.833 2.5 107.5 7.5s58.667 13.333 81 25s39.333 27.167 51 46.5s17.5 43.666 17.5 72.999v10h-86c-1.33301 -19.333 -5.16602 -35 -11.499 -47
s-15.833 -21.333 -28.5 -28s-28.667 -11.167 -48 -13.5s-42.333 -3.5 -69 -3.5h-118c-37.333 0 -69.166 2.16699 -95.499 6.5s-47.666 12 -63.999 23s-28.166 25.833 -35.499 44.5s-11 42.667 -11 72v32h567v57c0 45.333 -6.66699 82.333 -20 111
s-31.666 51.167 -54.999 67.5s-51.166 27.5 -83.499 33.5s-67.833 9 -106.5 9h-138c-30.667 0 -60.834 -2 -90.501 -6s-56.334 -13.167 -80.001 -27.5s-42.834 -35.166 -57.501 -62.499s-22 -64 -22 -110v-111zM399.998 588.001h67l-148 185h-103z" />
    <glyph glyph-name="eacute" unicode="&#xe9;" horiz-adv-x="765" 
d="M625 310l-480.999 0.00195312c2 28.667 5.83301 52 11.5 70s15 32 28 42s30.5 16.833 52.5 20.5s50 5.5 84 5.5h126c34.667 0 63.667 -3 87 -9s41.666 -13.833 54.999 -23.5s22.833 -20.834 28.5 -33.501s8.5 -25.334 8.5 -38.001v-34zM58.001 201.002
c0 -47.333 7.16406 -84.667 21.4971 -112s33 -48.333 56 -63s48.833 -24 77.5 -28s57 -6 85 -6h156c40 0 75.833 2.5 107.5 7.5s58.667 13.333 81 25s39.333 27.167 51 46.5s17.5 43.666 17.5 72.999v10h-86c-1.33301 -19.333 -5.16602 -35 -11.499 -47
s-15.833 -21.333 -28.5 -28s-28.667 -11.167 -48 -13.5s-42.333 -3.5 -69 -3.5h-118c-37.333 0 -69.166 2.16699 -95.499 6.5s-47.666 12 -63.999 23s-28.166 25.833 -35.499 44.5s-11 42.667 -11 72v32h567v57c0 45.333 -6.66699 82.333 -20 111
s-31.666 51.167 -54.999 67.5s-51.166 27.5 -83.499 33.5s-67.833 9 -106.5 9h-138c-30.667 0 -60.834 -2 -90.501 -6s-56.334 -13.167 -80.001 -27.5s-42.834 -35.166 -57.501 -62.499s-22 -64 -22 -110v-111zM298.998 588.001h67l184 185h-103z" />
    <glyph glyph-name="ecircumflex" unicode="&#xea;" horiz-adv-x="765" 
d="M625 310l-480.999 0.00195312c2 28.667 5.83301 52 11.5 70s15 32 28 42s30.5 16.833 52.5 20.5s50 5.5 84 5.5h126c34.667 0 63.667 -3 87 -9s41.666 -13.833 54.999 -23.5s22.833 -20.834 28.5 -33.501s8.5 -25.334 8.5 -38.001v-34zM58.001 201.002
c0 -47.333 7.16406 -84.667 21.4971 -112s33 -48.333 56 -63s48.833 -24 77.5 -28s57 -6 85 -6h156c40 0 75.833 2.5 107.5 7.5s58.667 13.333 81 25s39.333 27.167 51 46.5s17.5 43.666 17.5 72.999v10h-86c-1.33301 -19.333 -5.16602 -35 -11.499 -47
s-15.833 -21.333 -28.5 -28s-28.667 -11.167 -48 -13.5s-42.333 -3.5 -69 -3.5h-118c-37.333 0 -69.166 2.16699 -95.499 6.5s-47.666 12 -63.999 23s-28.166 25.833 -35.499 44.5s-11 42.667 -11 72v32h567v57c0 45.333 -6.66699 82.333 -20 111
s-31.666 51.167 -54.999 67.5s-51.166 27.5 -83.499 33.5s-67.833 9 -106.5 9h-138c-30.667 0 -60.834 -2 -90.501 -6s-56.334 -13.167 -80.001 -27.5s-42.834 -35.166 -57.501 -62.499s-22 -64 -22 -110v-111zM190.998 588.001h78l113 139l113 -139h80l-151 185h-82z" />
    <glyph glyph-name="edieresis" unicode="&#xeb;" horiz-adv-x="765" 
d="M625 310l-480.999 0.00195312c2 28.667 5.83301 52 11.5 70s15 32 28 42s30.5 16.833 52.5 20.5s50 5.5 84 5.5h126c34.667 0 63.667 -3 87 -9s41.666 -13.833 54.999 -23.5s22.833 -20.834 28.5 -33.501s8.5 -25.334 8.5 -38.001v-34zM58.001 201.002
c0 -47.333 7.16406 -84.667 21.4971 -112s33 -48.333 56 -63s48.833 -24 77.5 -28s57 -6 85 -6h156c40 0 75.833 2.5 107.5 7.5s58.667 13.333 81 25s39.333 27.167 51 46.5s17.5 43.666 17.5 72.999v10h-86c-1.33301 -19.333 -5.16602 -35 -11.499 -47
s-15.833 -21.333 -28.5 -28s-28.667 -11.167 -48 -13.5s-42.333 -3.5 -69 -3.5h-118c-37.333 0 -69.166 2.16699 -95.499 6.5s-47.666 12 -63.999 23s-28.166 25.833 -35.499 44.5s-11 42.667 -11 72v32h567v57c0 45.333 -6.66699 82.333 -20 111
s-31.666 51.167 -54.999 67.5s-51.166 27.5 -83.499 33.5s-67.833 9 -106.5 9h-138c-30.667 0 -60.834 -2 -90.501 -6s-56.334 -13.167 -80.001 -27.5s-42.834 -35.166 -57.501 -62.499s-22 -64 -22 -110v-111zM234.998 602.001h86v112h-86v-112zM444.998 602.001h86v112
h-86v-112z" />
    <glyph glyph-name="igrave" unicode="&#xec;" 
d="M93 0h86v510h-86v-510zM153 588h67l-148 185h-103z" />
    <glyph glyph-name="iacute" unicode="&#xed;" 
d="M93 0h86v510h-86v-510zM52 588h67l184 185h-103z" />
    <glyph glyph-name="icircumflex" unicode="&#xee;" 
d="M93 0h86v510h-86v-510zM-56 588h78l113 139l113 -139h80l-151 185h-82z" />
    <glyph glyph-name="idieresis" unicode="&#xef;" 
d="M93 0h86v510h-86v-510zM-12 602h86v112h-86v-112zM198 602h86v112h-86v-112z" />
    <glyph glyph-name="eth" unicode="&#xf0;" horiz-adv-x="815" 
d="M665 204c0 -30 -4.16699 -54.167 -12.5 -72.5s-20 -32.666 -35 -42.999s-33 -17.333 -54 -21s-43.833 -5.5 -68.5 -5.5h-175c-25.333 0 -48.333 1.83301 -69 5.5s-38.5 10.667 -53.5 21s-26.667 24.666 -35 42.999s-12.5 42.5 -12.5 72.5v102
c0 30 4.16699 54.167 12.5 72.5s20 32.666 35 42.999s32.833 17.333 53.5 21s43.667 5.5 69 5.5h175c24.667 0 47.5 -1.83301 68.5 -5.5s39 -10.667 54 -21s26.667 -24.666 35 -42.999s12.5 -42.5 12.5 -72.5v-102zM278 603l50 -34.9961l151 90
c36.667 -15.333 68.667 -36.333 96 -63s47.666 -60.334 60.999 -101.001c-22.667 9.33301 -48.167 15.666 -76.5 18.999s-58.5 5 -90.5 5h-123c-40.667 0 -78.334 -2.83301 -113.001 -8.5s-64.5 -16.334 -89.5 -32.001s-44.5 -36.834 -58.5 -63.501s-21 -61 -21 -103v-112
c0 -42 7 -76.333 21 -103s33.5 -47.834 58.5 -63.501s54.833 -26.334 89.5 -32.001s72.334 -8.5 113.001 -8.5h123c40.667 0 78.334 2.83301 113.001 8.5s64.5 16.334 89.5 32.001s44.5 36.834 58.5 63.501s21 61 21 103v85c0 108.667 -16.333 197 -49 265
s-81.667 119.667 -147 155l119 72l-50 35l-132 -79c-39.333 14 -83 24.167 -131 30.5s-101.333 9.5 -160 9.5l-26 -64c39.333 0 78.833 -1.83301 118.5 -5.5s78.167 -10.5 115.5 -20.5z" />
    <glyph glyph-name="ntilde" unicode="&#xf1;" horiz-adv-x="791" 
d="M81 0h85.999v290c0 30 3.5 55.167 10.5 75.5s19.667 36.5 38 48.5s43.5 20.667 75.5 26s73 8 123 8h22c42 0 75.333 -3 100 -9s43.5 -14.333 56.5 -25s21.5 -23.667 25.5 -39s6 -32.333 6 -51v-324h86v345c0 22.667 -3.5 44.5 -10.5 65.5s-18.667 39.5 -35 55.5
s-38.166 28.667 -65.499 38s-61 14 -101 14h-129c-26.667 0 -51 -1.33301 -73 -4s-41.5 -7.5 -58.5 -14.5s-31.667 -16.667 -44 -29s-22.5 -28.5 -30.5 -48.5h-2v88h-80v-510zM553.999 737c-2 -8 -4.33105 -15.832 -6.99805 -23.499s-6.33398 -14.667 -11.001 -21
s-10.334 -11.5 -17.001 -15.5s-14.334 -6 -23.001 -6c-13.333 0 -27.666 3.16699 -42.999 9.5s-31.333 13.5 -48 21.5c-16 7.33301 -32.333 14.166 -49 20.499s-33.667 9.5 -51 9.5c-15.333 0 -30 -3.83301 -44 -11.5s-26.167 -17.667 -36.5 -30
s-18.833 -26.166 -25.5 -41.499s-10.334 -31 -11.001 -47h50c2 8 4.33301 15.833 7 23.5s6.33398 14.667 11.001 21s10.167 11.5 16.5 15.5s14.166 6 23.499 6c13.333 0 27.833 -3 43.5 -9s31.5 -13 47.5 -21s32.5 -15.167 49.5 -21.5s33.833 -9.5 50.5 -9.5
c15.333 0 30 3.83301 44 11.5s26.167 17.667 36.5 30s18.833 26.166 25.5 41.499s10.334 31 11.001 47h-50z" />
    <glyph glyph-name="ograve" unicode="&#xf2;" horiz-adv-x="815" 
d="M64 199c0 -42 7 -76.333 21 -103s33.5 -47.834 58.5 -63.501s54.833 -26.334 89.5 -32.001s72.334 -8.5 113.001 -8.5h123c40.667 0 78.334 2.83301 113.001 8.5s64.5 16.334 89.5 32.001s44.5 36.834 58.5 63.501s21 61 21 103v112c0 42 -7 76.333 -21 103
s-33.5 47.834 -58.5 63.501s-54.833 26.334 -89.5 32.001s-72.334 8.5 -113.001 8.5h-123c-40.667 0 -78.334 -2.83301 -113.001 -8.5s-64.5 -16.334 -89.5 -32.001s-44.5 -36.834 -58.5 -63.501s-21 -61 -21 -103v-112zM665 204c0 -30 -4.16699 -54.167 -12.5 -72.5
s-20 -32.666 -35 -42.999s-33 -17.333 -54 -21s-43.833 -5.5 -68.5 -5.5h-175c-25.333 0 -48.333 1.83301 -69 5.5s-38.5 10.667 -53.5 21s-26.667 24.666 -35 42.999s-12.5 42.5 -12.5 72.5v102c0 30 4.16699 54.167 12.5 72.5s20 32.666 35 42.999s32.833 17.333 53.5 21
s43.667 5.5 69 5.5h175c24.667 0 47.5 -1.83301 68.5 -5.5s39 -10.667 54 -21s26.667 -24.666 35 -42.999s12.5 -42.5 12.5 -72.5v-102zM425 588h67l-148 185h-103z" />
    <glyph glyph-name="oacute" unicode="&#xf3;" horiz-adv-x="815" 
d="M64 199c0 -42 7 -76.333 21 -103s33.5 -47.834 58.5 -63.501s54.833 -26.334 89.5 -32.001s72.334 -8.5 113.001 -8.5h123c40.667 0 78.334 2.83301 113.001 8.5s64.5 16.334 89.5 32.001s44.5 36.834 58.5 63.501s21 61 21 103v112c0 42 -7 76.333 -21 103
s-33.5 47.834 -58.5 63.501s-54.833 26.334 -89.5 32.001s-72.334 8.5 -113.001 8.5h-123c-40.667 0 -78.334 -2.83301 -113.001 -8.5s-64.5 -16.334 -89.5 -32.001s-44.5 -36.834 -58.5 -63.501s-21 -61 -21 -103v-112zM665 204c0 -30 -4.16699 -54.167 -12.5 -72.5
s-20 -32.666 -35 -42.999s-33 -17.333 -54 -21s-43.833 -5.5 -68.5 -5.5h-175c-25.333 0 -48.333 1.83301 -69 5.5s-38.5 10.667 -53.5 21s-26.667 24.666 -35 42.999s-12.5 42.5 -12.5 72.5v102c0 30 4.16699 54.167 12.5 72.5s20 32.666 35 42.999s32.833 17.333 53.5 21
s43.667 5.5 69 5.5h175c24.667 0 47.5 -1.83301 68.5 -5.5s39 -10.667 54 -21s26.667 -24.666 35 -42.999s12.5 -42.5 12.5 -72.5v-102zM324 588h67l184 185h-103z" />
    <glyph glyph-name="ocircumflex" unicode="&#xf4;" horiz-adv-x="815" 
d="M64 199c0 -42 7 -76.333 21 -103s33.5 -47.834 58.5 -63.501s54.833 -26.334 89.5 -32.001s72.334 -8.5 113.001 -8.5h123c40.667 0 78.334 2.83301 113.001 8.5s64.5 16.334 89.5 32.001s44.5 36.834 58.5 63.501s21 61 21 103v112c0 42 -7 76.333 -21 103
s-33.5 47.834 -58.5 63.501s-54.833 26.334 -89.5 32.001s-72.334 8.5 -113.001 8.5h-123c-40.667 0 -78.334 -2.83301 -113.001 -8.5s-64.5 -16.334 -89.5 -32.001s-44.5 -36.834 -58.5 -63.501s-21 -61 -21 -103v-112zM665 204c0 -30 -4.16699 -54.167 -12.5 -72.5
s-20 -32.666 -35 -42.999s-33 -17.333 -54 -21s-43.833 -5.5 -68.5 -5.5h-175c-25.333 0 -48.333 1.83301 -69 5.5s-38.5 10.667 -53.5 21s-26.667 24.666 -35 42.999s-12.5 42.5 -12.5 72.5v102c0 30 4.16699 54.167 12.5 72.5s20 32.666 35 42.999s32.833 17.333 53.5 21
s43.667 5.5 69 5.5h175c24.667 0 47.5 -1.83301 68.5 -5.5s39 -10.667 54 -21s26.667 -24.666 35 -42.999s12.5 -42.5 12.5 -72.5v-102zM216 588h78l113 139l113 -139h80l-151 185h-82z" />
    <glyph glyph-name="otilde" unicode="&#xf5;" horiz-adv-x="815" 
d="M64 199c0 -42 7 -76.333 21 -103s33.5 -47.834 58.5 -63.501s54.833 -26.334 89.5 -32.001s72.334 -8.5 113.001 -8.5h123c40.667 0 78.334 2.83301 113.001 8.5s64.5 16.334 89.5 32.001s44.5 36.834 58.5 63.501s21 61 21 103v112c0 42 -7 76.333 -21 103
s-33.5 47.834 -58.5 63.501s-54.833 26.334 -89.5 32.001s-72.334 8.5 -113.001 8.5h-123c-40.667 0 -78.334 -2.83301 -113.001 -8.5s-64.5 -16.334 -89.5 -32.001s-44.5 -36.834 -58.5 -63.501s-21 -61 -21 -103v-112zM665 204c0 -30 -4.16699 -54.167 -12.5 -72.5
s-20 -32.666 -35 -42.999s-33 -17.333 -54 -21s-43.833 -5.5 -68.5 -5.5h-175c-25.333 0 -48.333 1.83301 -69 5.5s-38.5 10.667 -53.5 21s-26.667 24.666 -35 42.999s-12.5 42.5 -12.5 72.5v102c0 30 4.16699 54.167 12.5 72.5s20 32.666 35 42.999s32.833 17.333 53.5 21
s43.667 5.5 69 5.5h175c24.667 0 47.5 -1.83301 68.5 -5.5s39 -10.667 54 -21s26.667 -24.666 35 -42.999s12.5 -42.5 12.5 -72.5v-102zM566 737c-2 -8 -4.33105 -15.832 -6.99805 -23.499s-6.33398 -14.667 -11.001 -21s-10.334 -11.5 -17.001 -15.5s-14.334 -6 -23.001 -6
c-13.333 0 -27.666 3.16699 -42.999 9.5s-31.333 13.5 -48 21.5c-16 7.33301 -32.333 14.166 -49 20.499s-33.667 9.5 -51 9.5c-15.333 0 -30 -3.83301 -44 -11.5s-26.167 -17.667 -36.5 -30s-18.833 -26.166 -25.5 -41.499s-10.334 -31 -11.001 -47h50
c2 8 4.33301 15.833 7 23.5s6.33398 14.667 11.001 21s10.167 11.5 16.5 15.5s14.166 6 23.499 6c13.333 0 27.833 -3 43.5 -9s31.5 -13 47.5 -21s32.5 -15.167 49.5 -21.5s33.833 -9.5 50.5 -9.5c15.333 0 30 3.83301 44 11.5s26.167 17.667 36.5 30
s18.833 26.166 25.5 41.499s10.334 31 11.001 47h-50z" />
    <glyph glyph-name="odieresis" unicode="&#xf6;" horiz-adv-x="815" 
d="M64 199c0 -42 7 -76.333 21 -103s33.5 -47.834 58.5 -63.501s54.833 -26.334 89.5 -32.001s72.334 -8.5 113.001 -8.5h123c40.667 0 78.334 2.83301 113.001 8.5s64.5 16.334 89.5 32.001s44.5 36.834 58.5 63.501s21 61 21 103v112c0 42 -7 76.333 -21 103
s-33.5 47.834 -58.5 63.501s-54.833 26.334 -89.5 32.001s-72.334 8.5 -113.001 8.5h-123c-40.667 0 -78.334 -2.83301 -113.001 -8.5s-64.5 -16.334 -89.5 -32.001s-44.5 -36.834 -58.5 -63.501s-21 -61 -21 -103v-112zM665 204c0 -30 -4.16699 -54.167 -12.5 -72.5
s-20 -32.666 -35 -42.999s-33 -17.333 -54 -21s-43.833 -5.5 -68.5 -5.5h-175c-25.333 0 -48.333 1.83301 -69 5.5s-38.5 10.667 -53.5 21s-26.667 24.666 -35 42.999s-12.5 42.5 -12.5 72.5v102c0 30 4.16699 54.167 12.5 72.5s20 32.666 35 42.999s32.833 17.333 53.5 21
s43.667 5.5 69 5.5h175c24.667 0 47.5 -1.83301 68.5 -5.5s39 -10.667 54 -21s26.667 -24.666 35 -42.999s12.5 -42.5 12.5 -72.5v-102zM260 602h86v112h-86v-112zM470 602h86v112h-86v-112z" />
    <glyph glyph-name="divide" unicode="&#xf7;" horiz-adv-x="600" 
d="M47 213h506v80h-506v-80zM226 45c0 -20.667 7.16699 -38.167 21.5 -52.5s31.833 -21.5 52.5 -21.5s38.167 7.16699 52.5 21.5s21.5 31.833 21.5 52.5s-7.16699 38.167 -21.5 52.5s-31.833 21.5 -52.5 21.5s-38.167 -7.16699 -52.5 -21.5s-21.5 -31.833 -21.5 -52.5z
M226 461c0 -20.667 7.16699 -38.167 21.5 -52.5s31.833 -21.5 52.5 -21.5s38.167 7.16699 52.5 21.5s21.5 31.833 21.5 52.5s-7.16699 38.167 -21.5 52.5s-31.833 21.5 -52.5 21.5s-38.167 -7.16699 -52.5 -21.5s-21.5 -31.833 -21.5 -52.5z" />
    <glyph glyph-name="oslash" unicode="&#xf8;" horiz-adv-x="815" 
d="M170 118c-13.333 20.667 -20 49.333 -20 86v102c0 30 4.16699 54.167 12.5 72.5s20 32.666 35 42.999s32.833 17.333 53.5 21s43.667 5.5 69 5.5h175c21.333 0 41 -1.16699 59 -3.5s34 -7.16602 48 -14.499zM665 203.999c0 -30 -4.16895 -54.168 -12.502 -72.501
s-20 -32.666 -35 -42.999s-33 -17.333 -54 -21s-43.833 -5.5 -68.5 -5.5h-175c-21.333 0 -41.166 1.33301 -59.499 4s-34.166 7.66699 -47.499 15l431 312c14 -19.333 21 -48.333 21 -87v-102zM63.998 -28.002l82.001 59.999c25.333 -15.333 55 -25.833 89 -31.5
s71 -8.5 111 -8.5h123c40.667 0 78.334 2.83301 113.001 8.5s64.5 16.334 89.5 32.001s44.5 36.834 58.5 63.501s21 61 21 103v112c0 28.667 -3.33301 53.667 -10 75s-16.334 40 -29.001 56l71 51l-32 45l-82 -59c-24.667 14.667 -54 24.834 -88 30.501
s-71.333 8.5 -112 8.5h-123c-40.667 0 -78.334 -2.83301 -113.001 -8.5s-64.5 -16.334 -89.5 -32.001s-44.5 -36.834 -58.5 -63.501s-21 -61 -21 -103v-112c0 -56 13 -99.333 39 -130l-71 -52z" />
    <glyph glyph-name="ugrave" unicode="&#xf9;" horiz-adv-x="791" 
d="M630 0h80.001v510h-86v-290c0 -30 -3.5 -55.167 -10.5 -75.5s-19.667 -36.5 -38 -48.5s-43.5 -20.667 -75.5 -26s-73 -8 -123 -8h-22c-42 0 -75.333 3 -100 9s-43.5 14.333 -56.5 25s-21.5 23.667 -25.5 39s-6 32.333 -6 51v324h-86v-345c0 -23.333 3.5 -45.333 10.5 -66
s18.667 -39 35 -55s38.166 -28.667 65.499 -38s61 -14 101 -14h129c26.667 0 51 1.33301 73 4s41.5 7.5 58.5 14.5s31.667 16.667 44 29s22.5 28.5 30.5 48.5h2v-88zM413.001 588h67l-148 185h-103z" />
    <glyph glyph-name="uacute" unicode="&#xfa;" horiz-adv-x="791" 
d="M630 0h80.001v510h-86v-290c0 -30 -3.5 -55.167 -10.5 -75.5s-19.667 -36.5 -38 -48.5s-43.5 -20.667 -75.5 -26s-73 -8 -123 -8h-22c-42 0 -75.333 3 -100 9s-43.5 14.333 -56.5 25s-21.5 23.667 -25.5 39s-6 32.333 -6 51v324h-86v-345c0 -23.333 3.5 -45.333 10.5 -66
s18.667 -39 35 -55s38.166 -28.667 65.499 -38s61 -14 101 -14h129c26.667 0 51 1.33301 73 4s41.5 7.5 58.5 14.5s31.667 16.667 44 29s22.5 28.5 30.5 48.5h2v-88zM312.001 588h67l184 185h-103z" />
    <glyph glyph-name="ucircumflex" unicode="&#xfb;" horiz-adv-x="791" 
d="M630 0h80.001v510h-86v-290c0 -30 -3.5 -55.167 -10.5 -75.5s-19.667 -36.5 -38 -48.5s-43.5 -20.667 -75.5 -26s-73 -8 -123 -8h-22c-42 0 -75.333 3 -100 9s-43.5 14.333 -56.5 25s-21.5 23.667 -25.5 39s-6 32.333 -6 51v324h-86v-345c0 -23.333 3.5 -45.333 10.5 -66
s18.667 -39 35 -55s38.166 -28.667 65.499 -38s61 -14 101 -14h129c26.667 0 51 1.33301 73 4s41.5 7.5 58.5 14.5s31.667 16.667 44 29s22.5 28.5 30.5 48.5h2v-88zM204.001 588h78l113 139l113 -139h80l-151 185h-82z" />
    <glyph glyph-name="udieresis" unicode="&#xfc;" horiz-adv-x="791" 
d="M630 0h80.001v510h-86v-290c0 -30 -3.5 -55.167 -10.5 -75.5s-19.667 -36.5 -38 -48.5s-43.5 -20.667 -75.5 -26s-73 -8 -123 -8h-22c-42 0 -75.333 3 -100 9s-43.5 14.333 -56.5 25s-21.5 23.667 -25.5 39s-6 32.333 -6 51v324h-86v-345c0 -23.333 3.5 -45.333 10.5 -66
s18.667 -39 35 -55s38.166 -28.667 65.499 -38s61 -14 101 -14h129c26.667 0 51 1.33301 73 4s41.5 7.5 58.5 14.5s31.667 16.667 44 29s22.5 28.5 30.5 48.5h2v-88zM248.001 602h86v112h-86v-112zM458.001 602h86v112h-86v-112z" />
    <glyph glyph-name="yacute" unicode="&#xfd;" horiz-adv-x="667" 
d="M109 -190c44 0.666992 80.166 2.66992 108.499 6.00293s52 9.66602 71 18.999s34.833 22.166 47.5 38.499s25.667 37.5 39 63.5l288 573h-93l-222 -451l-247 451h-97l289 -518h21c-11.333 -26 -22.166 -46.333 -32.499 -61s-22.833 -25.834 -37.5 -33.501
s-32.667 -12.5 -54 -14.5s-48.333 -3 -81 -3v-70zM249.999 588.003h67l184 185h-103z" />
    <glyph glyph-name="thorn" unicode="&#xfe;" horiz-adv-x="791" 
d="M647 202c0 -29.333 -3.66797 -53.168 -11.001 -71.501s-17.833 -32.5 -31.5 -42.5s-30.5 -16.833 -50.5 -20.5s-42.333 -5.5 -67 -5.5h-153c-22.667 0 -44.167 1.66699 -64.5 5s-38 10 -53 20s-27 24.333 -36 43s-13.5 43.334 -13.5 74.001v97
c0 44 11.833 79.5 35.5 106.5s63.834 40.5 120.501 40.5h171c30 0 55 -3 75 -9s35.667 -15 47 -27s19.333 -27.167 24 -45.5s7 -39.833 7 -64.5v-100zM80.999 -178.002h86.0029v246h2c9.33301 -26.667 25.166 -46 47.499 -58s56.5 -18 102.5 -18h164
c44 0 81.833 3.83301 113.5 11.5s57.667 20.167 78 37.5s35.166 40 44.499 68s14 62.667 14 104v90c0 44 -6.5 80 -19.5 108s-30.5 49.833 -52.5 65.5s-47.167 26.5 -75.5 32.5s-57.833 9 -88.5 9h-157c-38 0 -72.833 -7 -104.5 -21s-53.834 -36.667 -66.501 -68h-2v295h-86
v-902z" />
    <glyph glyph-name="ydieresis" unicode="&#xff;" horiz-adv-x="667" 
d="M109 -190c44 0.666992 80.166 2.66992 108.499 6.00293s52 9.66602 71 18.999s34.833 22.166 47.5 38.499s25.667 37.5 39 63.5l288 573h-93l-222 -451l-247 451h-97l289 -518h21c-11.333 -26 -22.166 -46.333 -32.499 -61s-22.833 -25.834 -37.5 -33.501
s-32.667 -12.5 -54 -14.5s-48.333 -3 -81 -3v-70zM185.999 602.003h86v112h-86v-112zM395.999 602.003h86v112h-86v-112z" />
    <glyph glyph-name="dotlessi" unicode="&#x131;" 
d="M93 0h86v510h-86v-510z" />
    <glyph glyph-name="Lslash" unicode="&#x141;" horiz-adv-x="765" 
d="M96 0h660v80h-562v251l250 169v80l-250 -169v313h-98v-368l-52 -35v-80l52 35v-276z" />
    <glyph glyph-name="lslash" unicode="&#x142;" 
d="M93 0h86v386l78 60v77l-78 -60v261h-86v-327l-78 -61v-77l78 61v-320z" />
    <glyph glyph-name="OE" unicode="&#x152;" horiz-adv-x="1332" 
d="M711 226c0 -31.333 -4.5 -57 -13.5 -77s-21.167 -35.667 -36.5 -47s-33.333 -19.166 -54 -23.499s-42.667 -6.5 -66 -6.5h-245c-23.333 0 -45.333 2.16699 -66 6.5s-38.667 12.166 -54 23.499s-27.5 27 -36.5 47s-13.5 45.667 -13.5 77v272c0 31.333 4.5 57 13.5 77
s21.167 35.667 36.5 47s33.333 19.166 54 23.499s42.667 6.5 66 6.5h245c23.333 0 45.333 -2.16699 66 -6.5s38.667 -12.166 54 -23.499s27.5 -27 36.5 -47s13.5 -45.667 13.5 -77v-272zM711 0l593 0.000976562v80h-495v253h458v80h-458v231h477v80h-575v-74h-2
c-6 18.667 -14.333 33.5 -25 44.5s-22.834 19.333 -36.501 25s-28.167 9.16699 -43.5 10.5s-30 2 -44 2h-274c-49.333 0 -90.5 -5.5 -123.5 -16.5s-59.5 -27.833 -79.5 -50.5s-34.167 -50.834 -42.5 -84.501s-12.5 -73.5 -12.5 -119.5v-198
c0 -46 4.16699 -85.833 12.5 -119.5s22.5 -61.834 42.5 -84.501s46.5 -39.5 79.5 -50.5s74.167 -16.5 123.5 -16.5h274c14 0 28.667 0.666992 44 2s29.833 4.83301 43.5 10.5s25.834 13.834 36.501 24.501s19 25.667 25 45h2v-74z" />
    <glyph glyph-name="oe" unicode="&#x153;" horiz-adv-x="1333" 
d="M1199 310l-476 0.00195312c2 28.667 5.83301 52 11.5 70s14.834 32 27.501 42s29.667 16.833 51 20.5s48.333 5.5 81 5.5h126c34.667 0 63.667 -3 87 -9s41.666 -13.833 54.999 -23.5s22.833 -20.834 28.5 -33.501s8.5 -25.334 8.5 -38.001v-34zM48 199.002
c0 -42 6.99414 -76.3291 20.9941 -102.996s33.5 -47.834 58.5 -63.501s54.833 -26.334 89.5 -32.001s72.334 -8.5 113.001 -8.5h143c18 0 37.667 0.5 59 1.5s41.833 4.33301 61.5 10s37.5 14.667 53.5 27s28.333 29.833 37 52.5c4 -8 10.5 -17.167 19.5 -27.5
s20.333 -20.333 34 -30s29.667 -17.667 48 -24s38.5 -9.5 60.5 -9.5h182c40 0 75.833 2.5 107.5 7.5s58.667 13.333 81 25s39.333 27.167 51 46.5s17.5 43.666 17.5 72.999v10h-86c-1.33301 -19.333 -5.16602 -35 -11.499 -47s-15.833 -21.333 -28.5 -28
s-28.667 -11.167 -48 -13.5s-42.333 -3.5 -69 -3.5h-113c-37.333 0 -69.166 2.16699 -95.499 6.5s-47.666 12 -63.999 23s-28.166 25.833 -35.499 44.5s-11 42.667 -11 72v32h562v57c0 45.333 -6.66699 82.333 -20 111s-31.666 51.167 -54.999 67.5
s-51.166 27.5 -83.499 33.5s-67.833 9 -106.5 9h-88c-40 0 -73.667 -1.66699 -101 -5s-50.333 -8.16602 -69 -14.499s-33.834 -14.5 -45.501 -24.5s-22.5 -22 -32.5 -36c-13.333 19.333 -28.166 34.333 -44.499 45s-35 18.667 -56 24s-45.167 8.5 -72.5 9.5s-59 1.5 -95 1.5
h-86c-40.667 0 -78.334 -2.83301 -113.001 -8.5s-64.5 -16.334 -89.5 -32.001s-44.5 -36.834 -58.5 -63.501s-21 -61 -21 -103v-112zM636.994 204.006c0 -30 -4.33301 -54.167 -13 -72.5s-21 -32.666 -37 -42.999s-35.667 -17.333 -59 -21s-49.333 -5.5 -78 -5.5h-146
c-25.333 0 -48.333 1.83301 -69 5.5s-38.5 10.667 -53.5 21s-26.667 24.666 -35 42.999s-12.5 42.5 -12.5 72.5v102c0 30 4.16699 54.167 12.5 72.5s20 32.666 35 42.999s32.833 17.333 53.5 21s43.667 5.5 69 5.5h140c32.667 0 61 -1.83301 85 -5.5s44 -10.667 60 -21
s28 -24.666 36 -42.999s12 -42.5 12 -72.5v-102z" />
    <glyph glyph-name="Scaron" unicode="&#x160;" horiz-adv-x="987" 
d="M78 175c0 -39.333 7.3291 -70.9971 21.9961 -94.9971s34.334 -42.5 59.001 -55.5s53.167 -21.667 85.5 -26s66.5 -6.5 102.5 -6.5h272c36 0 71.5 1.66699 106.5 5s66.167 11.333 93.5 24s49.333 31.667 66 57s25 60.333 25 105v47c0 61.333 -21.333 106.333 -64 135
s-111.667 43 -207 43h-290c-38 0 -68.833 2 -92.5 6s-42 10.5 -55 19.5s-21.667 20.833 -26 35.5s-6.5 32.667 -6.5 54c0 30 4.5 53.5 13.5 70.5s23.5 29.833 43.5 38.5s46.333 14.167 79 16.5s72.667 3.5 120 3.5h104c64 0 114.167 -1.66699 150.5 -5s63.333 -10 81 -20
s28.5 -23.833 32.5 -41.5s6.33301 -40.834 7 -69.501h92v25c0 32 -4.5 60 -13.5 84s-24.833 44 -47.5 60s-53.667 27.833 -93 35.5s-89.333 11.5 -150 11.5h-211c-50.667 0 -94.667 -2.83301 -132 -8.5s-68.5 -16 -93.5 -31s-43.667 -35.5 -56 -61.5
s-18.5 -59.667 -18.5 -101c0 -48 6.66699 -86 20 -114s35.5 -49 66.5 -63s71.833 -23 122.5 -27s113.334 -6 188.001 -6h186c30.667 0 56.167 -1.66699 76.5 -5s36.5 -9.33301 48.5 -18s20.5 -20.334 25.5 -35.001s7.5 -33.334 7.5 -56.001c0 -26 -3 -47.667 -9 -65
s-16 -31 -30 -41s-32.833 -17.167 -56.5 -21.5s-53.167 -6.5 -88.5 -6.5h-304c-30.667 0 -56.167 2.16699 -76.5 6.5s-36.666 10.833 -48.999 19.5s-21.166 19.5 -26.499 32.5s-8 28.5 -8 46.5v51h-92v-53zM448.996 772.003h88l149 185h-81l-112 -139l-110 139h-81z" />
    <glyph glyph-name="scaron" unicode="&#x161;" horiz-adv-x="765" 
d="M62 145c0 -38 6.83301 -67.5029 20.5 -88.5029s32 -36.167 55 -45.5s49.167 -14.833 78.5 -16.5s60 -2.5 92 -2.5h158c26 0 53 1 81 3s53.5 7.83301 76.5 17.5s42 24.334 57 44.001s22.5 47.5 22.5 83.5v2c0 34.667 -5.33301 62 -16 82s-25.5 35.167 -44.5 45.5
s-41.833 16.833 -68.5 19.5s-56 4 -88 4h-227c-22.667 0 -40.834 1.5 -54.501 4.5s-24.167 7.33301 -31.5 13s-12.166 12.5 -14.499 20.5s-3.5 17.333 -3.5 28v19c0 14.667 2 26.5 6 35.5s11.5 16 22.5 21s26.333 8.5 46 10.5s44.834 3 75.501 3h150
c23.333 0 44.166 -0.5 62.499 -1.5s33.666 -4 45.999 -9s21.666 -13 27.999 -24s9.5 -26.167 9.5 -45.5v-5h80v27c0 18 -2.5 34.833 -7.5 50.5s-15.167 29.167 -30.5 40.5s-37.5 20.333 -66.5 27s-67.833 10 -116.5 10h-132c-53.333 0 -96.666 -2.83301 -129.999 -8.5
s-59.666 -14 -78.999 -25s-32.5 -24.5 -39.5 -40.5s-10.5 -34.333 -10.5 -55v-30c0 -48.667 12.5 -83.5 37.5 -104.5s67.833 -31.5 128.5 -31.5h265c26 0 46.667 -1.66699 62 -5s27 -8.16602 35 -14.499s13.333 -14.333 16 -24s4 -20.5 4 -32.5v-4
c0 -19.333 -2.83301 -34.333 -8.5 -45s-15 -18.667 -28 -24s-30.5 -8.66602 -52.5 -9.99902s-49 -2 -81 -2h-184c-44 0 -75.167 6.83301 -93.5 20.5s-27.5 36.5 -27.5 68.5v25h-80v-31zM338 587.997h88l149 185h-81l-112 -139l-110 139h-81z" />
    <glyph glyph-name="Ydieresis" unicode="&#x178;" horiz-adv-x="964" 
d="M433 0h98v306l415 418h-132l-332 -336l-332 336h-132l415 -418v-306zM334 786h86v112h-86v-112zM544 786h86v112h-86v-112z" />
    <glyph glyph-name="Zcaron" unicode="&#x17d;" horiz-adv-x="913" 
d="M42 0h829v80h-678l664 574v70h-794v-80h640l-661 -568v-76zM412 772h88l149 185h-81l-112 -139l-110 139h-81z" />
    <glyph glyph-name="zcaron" unicode="&#x17e;" horiz-adv-x="667" 
d="M45 0h577v70h-459v2l453 368v70h-556v-70h438v-2l-453 -368v-70zM289 588h88l149 185h-81l-112 -139l-110 139h-81z" />
    <glyph glyph-name="florin" unicode="&#x192;" horiz-adv-x="964" 
d="M49 -172c15.333 -3.33301 30.167 -5.16602 44.5 -5.49902s26.833 -0.5 37.5 -0.5c63.333 0 114.833 5.66699 154.5 17s71.667 27.5 96 48.5s42.833 46.167 55.5 75.5s23.334 62 32.001 98l64 262h217v70h-201l18 73c10.667 44 22.5 79 35.5 105s27.667 45.667 44 59
s35 22 56 26s44.833 6 71.5 6c23.333 0 45.333 -1 66 -3s43.667 -4.66699 69 -8v71c-12.667 2 -23.5 3.5 -32.5 4.5s-18.5 2 -28.5 3s-21.667 1.66699 -35 2s-30.666 0.5 -51.999 0.5c-31.333 0 -61.166 -3.16699 -89.499 -9.5s-54 -17.833 -77 -34.5s-43.333 -39 -61 -67
s-31.834 -63.333 -42.501 -106l-30 -122h-199v-70h183l-59 -233c-8.66699 -33.333 -18.334 -62.333 -29.001 -87s-25.334 -45.334 -44.001 -62.001s-42.5 -29 -71.5 -37s-65.833 -12 -110.5 -12c-13.333 0 -27 1 -41 3s-27.667 4.33301 -41 7v-74z" />
    <glyph glyph-name="circumflex" unicode="&#x2c6;" 
d="M-56 588h78l113 139l113 -139h80l-151 185h-82z" />
    <glyph glyph-name="caron" unicode="&#x2c7;" 
d="M91 588h88l149 185h-81l-112 -139l-110 139h-81z" />
    <glyph glyph-name="breve" unicode="&#x2d8;" 
d="M-56 764c5.33301 -52.667 24 -94.167 56 -124.5s74.667 -45.5 128 -45.5c55.333 0 101 14 137 42s57 70.667 63 128h-49c-9.33301 -36.667 -25.833 -63.5 -49.5 -80.5s-54.5 -25.5 -92.5 -25.5c-36.667 0 -68 8.33301 -94 25s-41.667 43.667 -47 81h-52z" />
    <glyph glyph-name="dotaccent" unicode="&#x2d9;" 
d="M93 602h86v112h-86v-112z" />
    <glyph glyph-name="ring" unicode="&#x2da;" 
d="M59 723c0 21.333 7.5 39.5 22.5 54.5s33.167 22.5 54.5 22.5s39.5 -7.5 54.5 -22.5s22.5 -33.167 22.5 -54.5s-7.5 -39.5 -22.5 -54.5s-33.167 -22.5 -54.5 -22.5s-39.5 7.5 -54.5 22.5s-22.5 33.167 -22.5 54.5zM1 723c0 -18.667 3.5 -36.167 10.5 -52.5
s16.667 -30.666 29 -42.999s26.666 -22 42.999 -29s33.833 -10.5 52.5 -10.5s36.167 3.5 52.5 10.5s30.666 16.667 42.999 29s22 26.666 29 42.999s10.5 33.833 10.5 52.5s-3.5 36.167 -10.5 52.5s-16.667 30.666 -29 42.999s-26.666 22 -42.999 29s-33.833 10.5 -52.5 10.5
s-36.167 -3.5 -52.5 -10.5s-30.666 -16.667 -42.999 -29s-22 -26.666 -29 -42.999s-10.5 -33.833 -10.5 -52.5z" />
    <glyph glyph-name="ogonek" unicode="&#x2db;" 
d="M142 0c-12.667 -7.33301 -24.667 -16.3311 -36 -26.998s-21.5 -22.334 -30.5 -35.001s-16.167 -25.5 -21.5 -38.5s-8 -25.167 -8 -36.5c0 -21.333 7.83301 -38.5 23.5 -51.5s39.5 -19.5 71.5 -19.5c15.333 0 31 1.33301 47 4s28.667 6 38 10l-12 34
c-5.33301 -2 -12.333 -3.83301 -21 -5.5s-16.667 -2.5 -24 -2.5c-17.333 0 -30.5 4.5 -39.5 13.5s-13.5 19.5 -13.5 31.5c0 17.333 7 36.166 21 56.499s32.667 42.5 56 66.5h-51z" />
    <glyph glyph-name="tilde" unicode="&#x2dc;" 
d="M294 737c-2 -8 -4.33105 -15.832 -6.99805 -23.499s-6.33398 -14.667 -11.001 -21s-10.334 -11.5 -17.001 -15.5s-14.334 -6 -23.001 -6c-13.333 0 -27.666 3.16699 -42.999 9.5s-31.333 13.5 -48 21.5c-16 7.33301 -32.333 14.166 -49 20.499s-33.667 9.5 -51 9.5
c-15.333 0 -30 -3.83301 -44 -11.5s-26.167 -17.667 -36.5 -30s-18.833 -26.166 -25.5 -41.499s-10.334 -31 -11.001 -47h50c2 8 4.33301 15.833 7 23.5s6.33398 14.667 11.001 21s10.167 11.5 16.5 15.5s14.166 6 23.499 6c13.333 0 27.833 -3 43.5 -9s31.5 -13 47.5 -21
s32.5 -15.167 49.5 -21.5s33.833 -9.5 50.5 -9.5c15.333 0 30 3.83301 44 11.5s26.167 17.667 36.5 30s18.833 26.166 25.5 41.499s10.334 31 11.001 47h-50z" />
    <glyph glyph-name="hungarumlaut" unicode="&#x2dd;" 
d="M164 588h67l184 185h-103zM-60 588h67l184 185h-103z" />
    <glyph glyph-name="endash" unicode="&#x2013;" horiz-adv-x="500" 
d="M0 225h500v80h-500v-80z" />
    <glyph glyph-name="emdash" unicode="&#x2014;" horiz-adv-x="1000" 
d="M0 225h1000v80h-1000v-80z" />
    <glyph glyph-name="quoteleft" unicode="&#x2018;" 
d="M80 482h106v130h-38c0 21.333 3 35.666 9 42.999s17.667 11 35 11v58c-24 0 -43.333 -2.83301 -58 -8.5s-26 -13.667 -34 -24s-13.333 -22.666 -16 -36.999s-4 -30.5 -4 -48.5v-124z" />
    <glyph glyph-name="quoteright" unicode="&#x2019;" 
d="M192 724h-106v-130h38c0 -21.333 -3 -35.666 -9 -42.999s-17.667 -11 -35 -11v-58c24 0 43.333 2.83301 58 8.5s26 13.667 34 24s13.333 22.666 16 36.999s4 30.5 4 48.5v124z" />
    <glyph glyph-name="quotesinglbase" unicode="&#x201a;" 
d="M192 130h-106v-130h38c0 -21.333 -3 -35.666 -9 -42.999s-17.667 -11 -35 -11v-58c24 0 43.333 2.83301 58 8.5s26 13.667 34 24s13.333 22.666 16 36.999s4 30.5 4 48.5v124z" />
    <glyph glyph-name="quotedblleft" unicode="&#x201c;" horiz-adv-x="494" 
d="M89 482h106v130h-38c0 21.333 3 35.666 9 42.999s17.667 11 35 11v58c-24 0 -43.333 -2.83301 -58 -8.5s-26 -13.667 -34 -24s-13.333 -22.666 -16 -36.999s-4 -30.5 -4 -48.5v-124zM293 482h106v130h-38c0 21.333 3 35.666 9 42.999s17.667 11 35 11v58
c-24 0 -43.333 -2.83301 -58 -8.5s-26 -13.667 -34 -24s-13.333 -22.666 -16 -36.999s-4 -30.5 -4 -48.5v-124z" />
    <glyph glyph-name="quotedblright" unicode="&#x201d;" horiz-adv-x="494" 
d="M405 724h-106v-130h38c0 -21.333 -3 -35.666 -9 -42.999s-17.667 -11 -35 -11v-58c24 0 43.333 2.83301 58 8.5s26 13.667 34 24s13.333 22.666 16 36.999s4 30.5 4 48.5v124zM201 724h-106v-130h38c0 -21.333 -3 -35.666 -9 -42.999s-17.667 -11 -35 -11v-58
c24 0 43.333 2.83301 58 8.5s26 13.667 34 24s13.333 22.666 16 36.999s4 30.5 4 48.5v124z" />
    <glyph glyph-name="quotedblbase" unicode="&#x201e;" horiz-adv-x="494" 
d="M405 130h-106v-130h38c0 -21.333 -3 -35.666 -9 -42.999s-17.667 -11 -35 -11v-58c24 0 43.333 2.83301 58 8.5s26 13.667 34 24s13.333 22.666 16 36.999s4 30.5 4 48.5v124zM201 130h-106v-130h38c0 -21.333 -3 -35.666 -9 -42.999s-17.667 -11 -35 -11v-58
c24 0 43.333 2.83301 58 8.5s26 13.667 34 24s13.333 22.666 16 36.999s4 30.5 4 48.5v124z" />
    <glyph glyph-name="dagger" unicode="&#x2020;" horiz-adv-x="668" 
d="M294 0h80v466h218v70h-218v188h-80v-188h-218v-70h218v-466z" />
    <glyph glyph-name="daggerdbl" unicode="&#x2021;" horiz-adv-x="668" 
d="M294 233h-206v-70h206v-163h80v163h206v70h-206v258h206v70h-206v163h-80v-163h-206v-70h206v-258z" />
    <glyph glyph-name="bullet" unicode="&#x2022;" horiz-adv-x="500" 
d="M69 362c0 -25.333 4.66699 -48.833 14 -70.5s22.333 -40.834 39 -57.501s35.834 -29.667 57.501 -39s45.167 -14 70.5 -14c24.667 0 48 4.66699 70 14s41.333 22.333 58 39s29.667 35.834 39 57.501s14 45.167 14 70.5c0 24.667 -4.66699 48 -14 70
s-22.333 41.333 -39 58s-36 29.667 -58 39s-45.333 14 -70 14c-25.333 0 -48.833 -4.66699 -70.5 -14s-40.834 -22.333 -57.501 -39s-29.667 -36 -39 -58s-14 -45.333 -14 -70z" />
    <glyph glyph-name="ellipsis" unicode="&#x2026;" horiz-adv-x="1000" 
d="M111 0h112v124h-112v-124zM444 0h112v124h-112v-124zM777 0h112v124h-112v-124z" />
    <glyph glyph-name="perthousand" unicode="&#x2030;" horiz-adv-x="1333" 
d="M315 497c0 -19.333 -1.16699 -34.166 -3.5 -44.499s-7.66602 -18.166 -15.999 -23.499s-20.5 -8.5 -36.5 -9.5s-37.333 -1.5 -64 -1.5s-48 0.5 -64 1.5s-28.167 4.16699 -36.5 9.5s-13.666 13.166 -15.999 23.499s-3.5 25.166 -3.5 44.499v92
c0 18.667 1.16699 33.334 3.5 44.001s7.66602 18.667 15.999 24s20.5 8.5 36.5 9.5s37.333 1.5 64 1.5s48 -0.5 64 -1.5s28.167 -4.16699 36.5 -9.5s13.666 -13.333 15.999 -24s3.5 -25.334 3.5 -44.001v-92zM291 -8h65l245 740h-65zM820 135
c0 -19.333 -1.16699 -34.166 -3.5 -44.499s-7.66602 -18.166 -15.999 -23.499s-20.5 -8.5 -36.5 -9.5s-37.333 -1.5 -64 -1.5s-48 0.5 -64 1.5s-28.167 4.16699 -36.5 9.5s-13.666 13.166 -15.999 23.499s-3.5 25.166 -3.5 44.499v92c0 18.667 1.16699 33.334 3.5 44.001
s7.66602 18.667 15.999 24s20.5 8.5 36.5 9.5s37.333 1.5 64 1.5s48 -0.5 64 -1.5s28.167 -4.16699 36.5 -9.5s13.666 -13.333 15.999 -24s3.5 -25.334 3.5 -44.001v-92zM195 354c40 0 72.167 1.16699 96.5 3.5s43 9.5 56 21.5s21.5 30.667 25.5 56s6 61.333 6 108
s-2.16699 82.667 -6.5 108s-13 44 -26 56s-31.5 19.167 -55.5 21.5s-56 3.5 -96 3.5s-72.167 -1.16699 -96.5 -3.5s-43 -9.5 -56 -21.5s-21.5 -30.667 -25.5 -56s-6 -61.333 -6 -108s2 -82.667 6 -108s12.5 -44 25.5 -56s31.667 -19.167 56 -21.5s56.5 -3.5 96.5 -3.5z
M700 -8c40 0 72.167 1.16699 96.5 3.5s43 9.5 56 21.5s21.667 30.667 26 56s6.5 61.333 6.5 108h-1c0 46.667 -2.16699 82.667 -6.5 108s-13 44 -26 56s-31.5 19.167 -55.5 21.5s-56 3.5 -96 3.5s-72.167 -1.16699 -96.5 -3.5s-43 -9.5 -56 -21.5s-21.5 -30.667 -25.5 -56
s-6 -61.333 -6 -108s2 -82.667 6 -108s12.5 -44 25.5 -56s31.667 -19.167 56 -21.5s56.5 -3.5 96.5 -3.5zM1137 -8c40 0 72.167 1.16699 96.5 3.5s43 9.5 56 21.5s21.667 30.667 26 56s6.5 61.333 6.5 108h-1c0 46.667 -2.16699 82.667 -6.5 108s-13 44 -26 56
s-31.5 19.167 -55.5 21.5s-56 3.5 -96 3.5s-72.167 -1.16699 -96.5 -3.5s-43 -9.5 -56 -21.5s-21.5 -30.667 -25.5 -56s-6 -61.333 -6 -108s2 -82.667 6 -108s12.5 -44 25.5 -56s31.667 -19.167 56 -21.5s56.5 -3.5 96.5 -3.5zM1257 135
c0 -19.333 -1.16699 -34.166 -3.5 -44.499s-7.66602 -18.166 -15.999 -23.499s-20.5 -8.5 -36.5 -9.5s-37.333 -1.5 -64 -1.5s-48 0.5 -64 1.5s-28.167 4.16699 -36.5 9.5s-13.666 13.166 -15.999 23.499s-3.5 25.166 -3.5 44.499v92c0 18.667 1.16699 33.334 3.5 44.001
s7.66602 18.667 15.999 24s20.5 8.5 36.5 9.5s37.333 1.5 64 1.5s48 -0.5 64 -1.5s28.167 -4.16699 36.5 -9.5s13.666 -13.333 15.999 -24s3.5 -25.334 3.5 -44.001v-92z" />
    <glyph glyph-name="guilsinglleft" unicode="&#x2039;" horiz-adv-x="296" 
d="M161 111h83l-109 154l109 154h-83l-109 -154z" />
    <glyph glyph-name="guilsinglright" unicode="&#x203a;" horiz-adv-x="296" 
d="M52 111h83l109 154l-109 154h-83l109 -154z" />
    <glyph glyph-name="fraction" unicode="&#x2044;" horiz-adv-x="222" 
d="M-221 -8h83l581 740h-83z" />
    <glyph glyph-name="fraction" unicode="&#x2215;" horiz-adv-x="222" 
d="M-221 -8h83l581 740h-83z" />
    <glyph glyph-name="trademark" unicode="&#x2122;" horiz-adv-x="990" 
d="M177 312h80v342h126v70h-332v-70h126v-342zM859 312h80v412h-129l-103 -281l-103 281h-129v-412h80v324h2l119 -324h62l119 324h2v-324z" />
    <glyph glyph-name="minus" unicode="&#x2212;" horiz-adv-x="600" 
d="M47 218h506v70h-506v-70z" />
    <glyph glyph-name="uniFB01" unicode="&#xfb01;" horiz-adv-x="791" 
d="M139 0l86 -0.00195312v440h243v70h-243v63c0 22.667 6.83301 41.834 20.5 57.501s36.5 23.5 68.5 23.5h154v70h-161c-23.333 0 -45.333 -3.16699 -66 -9.5s-38.5 -16.166 -53.5 -29.499s-26.833 -30.833 -35.5 -52.5s-13 -47.5 -13 -77.5v-45h-111v-70h111v-440z
M594 -0.00195312h86v510h-86v-510zM594 629.998h86v94h-86v-94z" />
    <glyph glyph-name="uniFB02" unicode="&#xfb02;" horiz-adv-x="791" 
d="M139 0l86 -0.00195312v440h243v70h-243v63c0 22.667 6.83301 41.834 20.5 57.501s36.5 23.5 68.5 23.5h154v70h-161c-23.333 0 -45.333 -3.16699 -66 -9.5s-38.5 -16.166 -53.5 -29.499s-26.833 -30.833 -35.5 -52.5s-13 -47.5 -13 -77.5v-45h-111v-70h111v-440z
M594 -0.00195312h86v724h-86v-724z" />
    <glyph glyph-name="nonmarkingreturn" horiz-adv-x="482" 
 />
    </font>
</defs>
</svg>
